M48
;Layer_Color=9474304
;FILE_FORMAT=2:5
INCH,LZ
;TYPE=PLATED
T1F00S00C0.02362
T2F00S00C0.02402
T3F00S00C0.03150
T4F00S00C0.03898
T5F00S00C0.04331
T6F00S00C0.04724
T7F00S00C0.05512
%
T01
X0051134Y0024409
X0208661Y0029528
Y0104331
X0122126Y0097716
Y0087717
Y0077716
Y0067716
X0090472
Y0077716
Y0087717
X0090433Y0097716
X0051134Y0099213
T02
X0070866Y0076772
Y0096457
T03
X0141732Y0072835
X0149606
T04
X0098228Y0124016
X0108268
X0118307
T05
X0228346Y0059842
Y0101575
X0189275Y0102756
X0168972
Y0061024
X0189275
T06
X0263779Y0074803
Y0094488
X0016693Y0090551
Y0070866
T07
X0088583Y0019685
X0108268
X0127953
M30
