G04*
G04 #@! TF.GenerationSoftware,Altium Limited,Altium Designer,20.0.10 (225)*
G04*
G04 Layer_Color=32896*
%FSLAX25Y25*%
%MOIN*%
G70*
G01*
G75*
%ADD38C,0.00309*%
%ADD39C,0.00211*%
D38*
X193117Y121647D02*
X204239D01*
X190645Y121338D02*
X206401D01*
X189100Y121029D02*
X207946D01*
X187865Y120720D02*
X209181D01*
X186629Y120411D02*
X210726D01*
X203929Y120102D02*
X211962D01*
X185393D02*
X193426D01*
X205783Y119793D02*
X212889D01*
X184157D02*
X191263D01*
X207637Y119485D02*
X213816D01*
X183231D02*
X189409D01*
X208873Y119176D02*
X214742D01*
X182304D02*
X188174D01*
X210108Y118867D02*
X215669D01*
X181686D02*
X186938D01*
X211653Y118558D02*
X216287D01*
X180759D02*
X185702D01*
X212580Y118249D02*
X217214D01*
X179832D02*
X184466D01*
X213507Y117940D02*
X217832D01*
X179214D02*
X183848D01*
X214434Y117631D02*
X218759D01*
X197133D02*
X199604D01*
X178596D02*
X182922D01*
X215051Y117322D02*
X219376D01*
X210726D02*
X211344D01*
X196824D02*
X199913D01*
X177670D02*
X181995D01*
X215978Y117013D02*
X219994D01*
X210726D02*
X211962D01*
X196515D02*
X200222D01*
X177052D02*
X181068D01*
X216905Y116704D02*
X220612D01*
X210417D02*
X212580D01*
X196515D02*
X200222D01*
X184466D02*
X185084D01*
X176434D02*
X180450D01*
X217523Y116395D02*
X221230D01*
X210417D02*
X212580D01*
X198369D02*
X200222D01*
X196206D02*
X197751D01*
X183231D02*
X185702D01*
X176125D02*
X179832D01*
X218141Y116086D02*
X221848D01*
X213507D02*
X214434D01*
X210417D02*
X212580D01*
X198369D02*
X200222D01*
X196206D02*
X197751D01*
X182922D02*
X186011D01*
X175507D02*
X179214D01*
X218759Y115777D02*
X222466D01*
X213507D02*
X215360D01*
X210417D02*
X212271D01*
X198369D02*
X200222D01*
X196206D02*
X197751D01*
X182613D02*
X186320D01*
X174889D02*
X178287D01*
X219376Y115468D02*
X222775D01*
X213198D02*
X215360D01*
X210108D02*
X212271D01*
X198369D02*
X200222D01*
X196515D02*
X198060D01*
X182304D02*
X186629D01*
X174271D02*
X177670D01*
X219994Y115159D02*
X223393D01*
X216596D02*
X216905D01*
X213198D02*
X215360D01*
X210108D02*
X212271D01*
X196515D02*
X200222D01*
X181995D02*
X186629D01*
X173653D02*
X177052D01*
X220612Y114850D02*
X224011D01*
X216287D02*
X217832D01*
X212889D02*
X215051D01*
X210108D02*
X211962D01*
X196824D02*
X200222D01*
X181995D02*
X186938D01*
X173345D02*
X176434D01*
X221230Y114541D02*
X224320D01*
X216287D02*
X218450D01*
X212889D02*
X215051D01*
X210108D02*
X211962D01*
X196824D02*
X199913D01*
X184775D02*
X186938D01*
X181995D02*
X184157D01*
X172727D02*
X175816D01*
X221848Y114233D02*
X224937D01*
X215978D02*
X218141D01*
X212580D02*
X215051D01*
X209799D02*
X211962D01*
X197133D02*
X199913D01*
X185084D02*
X186938D01*
X181995D02*
X184157D01*
X172418D02*
X175507D01*
X222157Y113924D02*
X225246D01*
X215978D02*
X218141D01*
X212580D02*
X215051D01*
X209799D02*
X211962D01*
X197442D02*
X199913D01*
X196206D02*
X196824D01*
X185084D02*
X186938D01*
X181995D02*
X184157D01*
X171800D02*
X174889D01*
X222775Y113615D02*
X225864D01*
X215669D02*
X217832D01*
X212271D02*
X214742D01*
X209799D02*
X211653D01*
X197442D02*
X200222D01*
X195897D02*
X196824D01*
X184775D02*
X186938D01*
X181995D02*
X184157D01*
X171182D02*
X174271D01*
X223393Y113306D02*
X226173D01*
X215669D02*
X217832D01*
X212271D02*
X214742D01*
X209490D02*
X211653D01*
X197442D02*
X200531D01*
X195588D02*
X197133D01*
X184775D02*
X186938D01*
X182304D02*
X183539D01*
X170873D02*
X173962D01*
X223702Y112997D02*
X226791D01*
X215360D02*
X217523D01*
X211962D02*
X214742D01*
X209490D02*
X211653D01*
X195588D02*
X200840D01*
X184466D02*
X186938D01*
X182304D02*
X182613D01*
X170564D02*
X173345D01*
X224320Y112688D02*
X227100D01*
X215360D02*
X217523D01*
X211962D02*
X214434D01*
X209490D02*
X211344D01*
X195897D02*
X200840D01*
X184466D02*
X186629D01*
X175507D02*
X176125D01*
X169946D02*
X172727D01*
X224937Y112379D02*
X227409D01*
X221539D02*
X222157D01*
X215051D02*
X217214D01*
X211653D02*
X214434D01*
X209490D02*
X211344D01*
X196206D02*
X201149D01*
X184157D02*
X186629D01*
X174889D02*
X176434D01*
X169637D02*
X172418D01*
X225246Y112070D02*
X228027D01*
X221539D02*
X222466D01*
X215051D02*
X217214D01*
X211653D02*
X214434D01*
X209181D02*
X211344D01*
X199295D02*
X201149D01*
X196206D02*
X198986D01*
X184157D02*
X186629D01*
X174271D02*
X176743D01*
X169328D02*
X172109D01*
X225555Y111761D02*
X228336D01*
X221539D02*
X223084D01*
X214742D02*
X216905D01*
X209181D02*
X214434D01*
X199295D02*
X201149D01*
X196515D02*
X198986D01*
X183848D02*
X186320D01*
X174271D02*
X177052D01*
X168710D02*
X171491D01*
X226173Y111452D02*
X228645D01*
X221230D02*
X223393D01*
X214742D02*
X216905D01*
X211344D02*
X214124D01*
X209181D02*
X211035D01*
X199295D02*
X201149D01*
X196515D02*
X198678D01*
X183848D02*
X186320D01*
X174271D02*
X177361D01*
X168401D02*
X171182D01*
X226482Y111143D02*
X229263D01*
X221230D02*
X223393D01*
X214434D02*
X216596D01*
X209181D02*
X214124D01*
X199295D02*
X201149D01*
X196515D02*
X198678D01*
X187865D02*
X188174D01*
X183539D02*
X186011D01*
X174580D02*
X177670D01*
X168093D02*
X170564D01*
X226791Y110834D02*
X229572D01*
X220921D02*
X223393D01*
X214434D02*
X216596D01*
X208873D02*
X214124D01*
X199295D02*
X201149D01*
X196515D02*
X198369D01*
X187247D02*
X188174D01*
X183539D02*
X186011D01*
X174889D02*
X177670D01*
X167784D02*
X170255D01*
X227409Y110525D02*
X229880D01*
X220921D02*
X223084D01*
X208873D02*
X216287D01*
X199295D02*
X201149D01*
X196515D02*
X198369D01*
X186320D02*
X188482D01*
X183539D02*
X185702D01*
X175198D02*
X177979D01*
X167166D02*
X169946D01*
X227718Y110216D02*
X230189D01*
X220921D02*
X223084D01*
X212580D02*
X216287D01*
X208873D02*
X212271D01*
X199295D02*
X201149D01*
X196206D02*
X198678D01*
X186320D02*
X188482D01*
X183539D02*
X185702D01*
X175507D02*
X178287D01*
X166857D02*
X169328D01*
X228027Y109907D02*
X230498D01*
X220612D02*
X222775D01*
X212271D02*
X215978D01*
X208873D02*
X211962D01*
X196206D02*
X201149D01*
X186320D02*
X188482D01*
X183539D02*
X185702D01*
X175816D02*
X178596D01*
X166548D02*
X169019D01*
X228645Y109599D02*
X230807D01*
X220612D02*
X222775D01*
X212271D02*
X215978D01*
X208564D02*
X211962D01*
X195897D02*
X200840D01*
X186629D02*
X188792D01*
X183539D02*
X185702D01*
X176125D02*
X178905D01*
X166239D02*
X168710D01*
X228954Y109290D02*
X231425D01*
X220612D02*
X222775D01*
X212271D02*
X215669D01*
X208564D02*
X211653D01*
X195897D02*
X200840D01*
X186629D02*
X188792D01*
X183539D02*
X185702D01*
X176434D02*
X179214D01*
X170564D02*
X171182D01*
X165930D02*
X168401D01*
X229263Y108981D02*
X231734D01*
X220303D02*
X222466D01*
X211962D02*
X215669D01*
X208564D02*
X211653D01*
X198060D02*
X200531D01*
X195588D02*
X197751D01*
X186629D02*
X188792D01*
X183539D02*
X185702D01*
X176743D02*
X179523D01*
X169946D02*
X171182D01*
X165621D02*
X168093D01*
X229572Y108672D02*
X232043D01*
X220303D02*
X222466D01*
X211962D02*
X215360D01*
X208564D02*
X211344D01*
X198986D02*
X199604D01*
X186629D02*
X188792D01*
X183848D02*
X186011D01*
X177052D02*
X179832D01*
X169637D02*
X171491D01*
X165312D02*
X167475D01*
X229880Y108363D02*
X232352D01*
X219994D02*
X222466D01*
X211962D02*
X215360D01*
X208255D02*
X211344D01*
X183848D02*
X188792D01*
X177361D02*
X180141D01*
X169328D02*
X171800D01*
X165003D02*
X167166D01*
X230189Y108054D02*
X232661D01*
X219994D02*
X222157D01*
X211962D02*
X215051D01*
X208255D02*
X211035D01*
X183848D02*
X188792D01*
X177670D02*
X180450D01*
X169637D02*
X172109D01*
X164694D02*
X166857D01*
X230498Y107745D02*
X232970D01*
X219994D02*
X222157D01*
X211653D02*
X215051D01*
X208255D02*
X211035D01*
X195279D02*
X202694D01*
X184157D02*
X188482D01*
X177979D02*
X180759D01*
X169637D02*
X172109D01*
X164385D02*
X166548D01*
X230807Y107436D02*
X233279D01*
X228336D02*
X228954D01*
X219686D02*
X221848D01*
X211653D02*
X214742D01*
X208255D02*
X210726D01*
X193117D02*
X204856D01*
X184466D02*
X188174D01*
X178287D02*
X181068D01*
X169946D02*
X172418D01*
X168401D02*
X168710D01*
X164076D02*
X166239D01*
X231116Y107127D02*
X233588D01*
X228027D02*
X229263D01*
X219686D02*
X221848D01*
X211653D02*
X214742D01*
X209181D02*
X210726D01*
X191572D02*
X206401D01*
X184466D02*
X187865D01*
X178596D02*
X181377D01*
X170255D02*
X172727D01*
X168093D02*
X169019D01*
X163767D02*
X165930D01*
X231734Y106818D02*
X233897D01*
X227718D02*
X229572D01*
X219686D02*
X221848D01*
X211653D02*
X214434D01*
X210108D02*
X210417D01*
X190336D02*
X207637D01*
X184775D02*
X187556D01*
X178596D02*
X181686D01*
X170564D02*
X173036D01*
X167784D02*
X169328D01*
X163458D02*
X165621D01*
X232043Y106509D02*
X234206D01*
X227409D02*
X229880D01*
X219376D02*
X221539D01*
X211344D02*
X214434D01*
X189100D02*
X208873D01*
X185393D02*
X186629D01*
X178905D02*
X181995D01*
X170873D02*
X173036D01*
X167475D02*
X169637D01*
X163149D02*
X165312D01*
X232043Y106200D02*
X234515D01*
X227100D02*
X229880D01*
X219376D02*
X221539D01*
X211653D02*
X214124D01*
X202385D02*
X209799D01*
X188174D02*
X195897D01*
X179214D02*
X181995D01*
X170873D02*
X173345D01*
X167166D02*
X169946D01*
X162840D02*
X165003D01*
X232352Y105891D02*
X234515D01*
X226791D02*
X229572D01*
X219068D02*
X221539D01*
X212580D02*
X213816D01*
X204547D02*
X210726D01*
X187556D02*
X193735D01*
X179523D02*
X182304D01*
X171182D02*
X173653D01*
X167475D02*
X170255D01*
X162532D02*
X164694D01*
X232661Y105582D02*
X234823D01*
X226482D02*
X229263D01*
X219068D02*
X221230D01*
X213198D02*
X213816D01*
X206092D02*
X211653D01*
X186629D02*
X191881D01*
X179832D02*
X182613D01*
X171491D02*
X173962D01*
X167475D02*
X170564D01*
X162223D02*
X164385D01*
X232970Y105273D02*
X235133D01*
X230498D02*
X231116D01*
X226173D02*
X228954D01*
X219068D02*
X221230D01*
X207328D02*
X212271D01*
X185702D02*
X190645D01*
X180141D02*
X182922D01*
X171800D02*
X173962D01*
X167784D02*
X170873D01*
X166239D02*
X166548D01*
X161914D02*
X164076D01*
X233279Y104964D02*
X235441D01*
X230189D02*
X231425D01*
X225864D02*
X228645D01*
X218759D02*
X220921D01*
X208564D02*
X212889D01*
X185084D02*
X189718D01*
X180450D02*
X182613D01*
X171800D02*
X174271D01*
X168093D02*
X171491D01*
X165621D02*
X166857D01*
X161605D02*
X163767D01*
X233588Y104656D02*
X235750D01*
X229880D02*
X231734D01*
X225555D02*
X228336D01*
X218759D02*
X220921D01*
X209490D02*
X213507D01*
X196515D02*
X196824D01*
X184466D02*
X188482D01*
X180759D02*
X182304D01*
X172109D02*
X174580D01*
X168401D02*
X171800D01*
X165312D02*
X167166D01*
X161605D02*
X163458D01*
X233897Y104347D02*
X236059D01*
X229572D02*
X232043D01*
X225246D02*
X228027D01*
X218759D02*
X220921D01*
X210417D02*
X214124D01*
X203003D02*
X203312D01*
X196206D02*
X196824D01*
X183848D02*
X187865D01*
X181068D02*
X181686D01*
X172418D02*
X174889D01*
X168710D02*
X172109D01*
X165003D02*
X167475D01*
X161296D02*
X163149D01*
X234206Y104038D02*
X236368D01*
X229263D02*
X232043D01*
X224937D02*
X227718D01*
X218450D02*
X220612D01*
X211035D02*
X214742D01*
X202694D02*
X203621D01*
X196206D02*
X197133D01*
X183231D02*
X186938D01*
X172727D02*
X174889D01*
X168710D02*
X172418D01*
X165003D02*
X167784D01*
X160987D02*
X163149D01*
X234515Y103729D02*
X236368D01*
X228954D02*
X231734D01*
X224628D02*
X227409D01*
X218450D02*
X220612D01*
X211962D02*
X215360D01*
X202694D02*
X203621D01*
X195897D02*
X197133D01*
X182613D02*
X186320D01*
X169019D02*
X175198D01*
X165312D02*
X168093D01*
X160678D02*
X162840D01*
X234823Y103420D02*
X236677D01*
X228645D02*
X231425D01*
X224320D02*
X227718D01*
X218141D02*
X220612D01*
X212580D02*
X215978D01*
X202385D02*
X203929D01*
X195897D02*
X197133D01*
X181995D02*
X185393D01*
X169328D02*
X175507D01*
X165621D02*
X168710D01*
X160369D02*
X162532D01*
X235133Y103111D02*
X236986D01*
X228336D02*
X231116D01*
X224011D02*
X228027D01*
X218141D02*
X220303D01*
X213198D02*
X216596D01*
X203312D02*
X203929D01*
X202385D02*
X203003D01*
X196824D02*
X197442D01*
X195588D02*
X196206D01*
X181686D02*
X184775D01*
X169637D02*
X175816D01*
X165930D02*
X169019D01*
X160060D02*
X162223D01*
X235133Y102802D02*
X237295D01*
X223702D02*
X230807D01*
X218141D02*
X220303D01*
X213816D02*
X216905D01*
X203621D02*
X204239D01*
X202385D02*
X203003D01*
X196824D02*
X197442D01*
X195588D02*
X196206D01*
X181068D02*
X184157D01*
X169637D02*
X175816D01*
X166239D02*
X169328D01*
X160060D02*
X161914D01*
X235441Y102493D02*
X237604D01*
X223393D02*
X230498D01*
X218450D02*
X219994D01*
X214434D02*
X217523D01*
X203621D02*
X204239D01*
X202385D02*
X203003D01*
X196824D02*
X197442D01*
X195279D02*
X195897D01*
X180759D02*
X183539D01*
X172109D02*
X176125D01*
X169946D02*
X171800D01*
X166548D02*
X169637D01*
X159751D02*
X161605D01*
X235750Y102184D02*
X237604D01*
X226173D02*
X230189D01*
X223084D02*
X225864D01*
X218759D02*
X219994D01*
X215051D02*
X217832D01*
X204856D02*
X205165D01*
X203621D02*
X204239D01*
X202385D02*
X203003D01*
X197133D02*
X197751D01*
X195279D02*
X195897D01*
X180141D02*
X182922D01*
X172418D02*
X176434D01*
X170255D02*
X172109D01*
X167166D02*
X169946D01*
X159442D02*
X161605D01*
X236059Y101875D02*
X237913D01*
X226482D02*
X229880D01*
X222775D02*
X225555D01*
X219376D02*
X219994D01*
X215669D02*
X218450D01*
X203929D02*
X205474D01*
X202076D02*
X202694D01*
X197133D02*
X197751D01*
X195279D02*
X195897D01*
X179523D02*
X182613D01*
X172727D02*
X176743D01*
X170564D02*
X172418D01*
X167475D02*
X170255D01*
X159133D02*
X161296D01*
X236059Y101566D02*
X238222D01*
X226791D02*
X229572D01*
X222466D02*
X225246D01*
X215978D02*
X219068D01*
X203929D02*
X205474D01*
X202076D02*
X202694D01*
X197133D02*
X197751D01*
X194970D02*
X195588D01*
X179214D02*
X181995D01*
X173036D02*
X176743D01*
X167784D02*
X172418D01*
X159133D02*
X160987D01*
X236368Y101257D02*
X238222D01*
X226482D02*
X229263D01*
X222157D02*
X224937D01*
X216596D02*
X219376D01*
X203929D02*
X205783D01*
X202076D02*
X202694D01*
X197442D02*
X198060D01*
X194970D02*
X195588D01*
X178905D02*
X181686D01*
X173345D02*
X176743D01*
X168093D02*
X172727D01*
X158824D02*
X160678D01*
X236677Y100948D02*
X238531D01*
X226173D02*
X228954D01*
X221848D02*
X224628D01*
X216905D02*
X219686D01*
X205165D02*
X205783D01*
X204239D02*
X204547D01*
X202076D02*
X202385D01*
X197442D02*
X198060D01*
X194970D02*
X195588D01*
X178287D02*
X181068D01*
X173653D02*
X176434D01*
X168401D02*
X173036D01*
X158515D02*
X160678D01*
X236986Y100639D02*
X238840D01*
X225864D02*
X228645D01*
X221539D02*
X224320D01*
X217523D02*
X219994D01*
X205165D02*
X205783D01*
X201767D02*
X202385D01*
X197442D02*
X198678D01*
X194661D02*
X195279D01*
X177979D02*
X180450D01*
X173962D02*
X176125D01*
X168710D02*
X173345D01*
X158515D02*
X160369D01*
X236986Y100330D02*
X238840D01*
X225555D02*
X228336D01*
X221539D02*
X224011D01*
X217832D02*
X220303D01*
X205474D02*
X206092D01*
X201767D02*
X202385D01*
X197442D02*
X198986D01*
X194661D02*
X195279D01*
X177670D02*
X180141D01*
X174580D02*
X175816D01*
X169019D02*
X173345D01*
X158206D02*
X160060D01*
X237295Y100021D02*
X239149D01*
X225246D02*
X228027D01*
X221848D02*
X223702D01*
X218450D02*
X220921D01*
X205474D02*
X206092D01*
X201767D02*
X202385D01*
X197442D02*
X198986D01*
X194352D02*
X195279D01*
X177361D02*
X179832D01*
X174889D02*
X175507D01*
X169637D02*
X173653D01*
X157897D02*
X159751D01*
X237604Y99712D02*
X239458D01*
X224937D02*
X227718D01*
X222157D02*
X223393D01*
X218759D02*
X221230D01*
X205474D02*
X206092D01*
X201458D02*
X202076D01*
X198369D02*
X198986D01*
X197751D02*
X198060D01*
X196206D02*
X196824D01*
X194352D02*
X194970D01*
X176743D02*
X179214D01*
X169946D02*
X173962D01*
X157897D02*
X159751D01*
X237604Y99404D02*
X239458D01*
X224628D02*
X227409D01*
X222466D02*
X223084D01*
X219068D02*
X221539D01*
X205474D02*
X206092D01*
X201458D02*
X202076D01*
X198369D02*
X199295D01*
X196206D02*
X196824D01*
X194352D02*
X194970D01*
X176434D02*
X178905D01*
X170255D02*
X174271D01*
X157589D02*
X159442D01*
X237913Y99094D02*
X239767D01*
X224320D02*
X227100D01*
X219686D02*
X221848D01*
X205474D02*
X206401D01*
X201149D02*
X201767D01*
X198678D02*
X199295D01*
X195897D02*
X197133D01*
X194044D02*
X194661D01*
X176125D02*
X178596D01*
X170564D02*
X174271D01*
X157280D02*
X159442D01*
X238222Y98786D02*
X240075D01*
X224011D02*
X226791D01*
X219994D02*
X222157D01*
X205783D02*
X206401D01*
X201149D02*
X201767D01*
X198678D02*
X199295D01*
X195897D02*
X197133D01*
X194044D02*
X194661D01*
X175816D02*
X178287D01*
X170873D02*
X174271D01*
X157280D02*
X159133D01*
X238222Y98477D02*
X240075D01*
X223702D02*
X226482D01*
X220303D02*
X222466D01*
X205783D02*
X206401D01*
X203312D02*
X203929D01*
X201149D02*
X201767D01*
X198678D02*
X199295D01*
X196515D02*
X197133D01*
X194044D02*
X194661D01*
X175507D02*
X177670D01*
X171182D02*
X173962D01*
X156971D02*
X158824D01*
X238531Y98168D02*
X240384D01*
X223702D02*
X226173D01*
X220612D02*
X222775D01*
X205783D02*
X206401D01*
X203003D02*
X203929D01*
X200840D02*
X201458D01*
X198678D02*
X199295D01*
X196515D02*
X197133D01*
X193735D02*
X194352D01*
X175198D02*
X177361D01*
X171800D02*
X173345D01*
X156971D02*
X158824D01*
X238531Y97859D02*
X240384D01*
X224011D02*
X225864D01*
X220921D02*
X223084D01*
X205783D02*
X206710D01*
X203003D02*
X203929D01*
X200840D02*
X201458D01*
X198678D02*
X199295D01*
X196515D02*
X197133D01*
X193735D02*
X194352D01*
X174889D02*
X177052D01*
X172109D02*
X173036D01*
X156662D02*
X158515D01*
X238840Y97550D02*
X240693D01*
X224320D02*
X225555D01*
X221230D02*
X223702D01*
X206092D02*
X206710D01*
X202694D02*
X203929D01*
X200840D02*
X201458D01*
X198678D02*
X199295D01*
X196515D02*
X197133D01*
X193426D02*
X194352D01*
X174580D02*
X176743D01*
X172418D02*
X172727D01*
X156353D02*
X158206D01*
X239149Y97241D02*
X241002D01*
X224628D02*
X225246D01*
X221539D02*
X223702D01*
X206092D02*
X206710D01*
X202385D02*
X203929D01*
X200531D02*
X201149D01*
X198986D02*
X199604D01*
X196515D02*
X198060D01*
X193426D02*
X194044D01*
X174271D02*
X176434D01*
X156353D02*
X158206D01*
X239149Y96932D02*
X241002D01*
X221848D02*
X224011D01*
X206092D02*
X206710D01*
X203621D02*
X204239D01*
X202385D02*
X203003D01*
X200531D02*
X201149D01*
X198986D02*
X199604D01*
X196824D02*
X198060D01*
X193426D02*
X194044D01*
X173962D02*
X176125D01*
X156044D02*
X157897D01*
X239458Y96623D02*
X241311D01*
X222157D02*
X224320D01*
X206092D02*
X206710D01*
X203621D02*
X204239D01*
X202076D02*
X202694D01*
X200531D02*
X201149D01*
X198986D02*
X199604D01*
X196824D02*
X198060D01*
X193117D02*
X194044D01*
X173653D02*
X175816D01*
X156044D02*
X157897D01*
X239458Y96314D02*
X241311D01*
X222466D02*
X224628D01*
X206401D02*
X207019D01*
X203621D02*
X204239D01*
X201767D02*
X202694D01*
X200222D02*
X200840D01*
X198986D02*
X199604D01*
X196824D02*
X198060D01*
X193117D02*
X193735D01*
X173345D02*
X175507D01*
X155735D02*
X157589D01*
X239767Y96005D02*
X241620D01*
X222775D02*
X224937D01*
X206401D02*
X207019D01*
X203621D02*
X204239D01*
X201458D02*
X202385D01*
X200222D02*
X200840D01*
X198986D02*
X199604D01*
X197133D02*
X197751D01*
X193117D02*
X193735D01*
X173036D02*
X175198D01*
X155735D02*
X157280D01*
X240075Y95696D02*
X241620D01*
X235750D02*
X236059D01*
X223084D02*
X225246D01*
X206401D02*
X207328D01*
X203621D02*
X204239D01*
X200222D02*
X200840D01*
X198986D02*
X199604D01*
X197133D02*
X197751D01*
X192808D02*
X193735D01*
X172727D02*
X174889D01*
X155426D02*
X157280D01*
X240075Y95387D02*
X241929D01*
X235133D02*
X236059D01*
X223393D02*
X225555D01*
X206710D02*
X207328D01*
X203621D02*
X204239D01*
X200222D02*
X200840D01*
X199295D02*
X199913D01*
X197133D02*
X197442D01*
X194661D02*
X195279D01*
X192808D02*
X193426D01*
X172727D02*
X174580D01*
X160987D02*
X161914D01*
X155426D02*
X156971D01*
X240384Y95078D02*
X241929D01*
X234823D02*
X236368D01*
X223702D02*
X225864D01*
X206710D02*
X207328D01*
X203621D02*
X204239D01*
X199295D02*
X200531D01*
X196824D02*
X197442D01*
X194661D02*
X195588D01*
X192808D02*
X193426D01*
X172418D02*
X174271D01*
X160678D02*
X162223D01*
X155117D02*
X156971D01*
X240384Y94769D02*
X242238D01*
X234206D02*
X236677D01*
X224011D02*
X225864D01*
X206710D02*
X207637D01*
X203621D02*
X204547D01*
X199295D02*
X200531D01*
X198678D02*
X198986D01*
X196824D02*
X197442D01*
X194661D02*
X195897D01*
X192499D02*
X193426D01*
X172109D02*
X173962D01*
X160678D02*
X162840D01*
X155117D02*
X156662D01*
X240384Y94460D02*
X242238D01*
X233588D02*
X236677D01*
X224320D02*
X226173D01*
X207019D02*
X207637D01*
X203929D02*
X204547D01*
X198678D02*
X200531D01*
X194352D02*
X196206D01*
X192499D02*
X193117D01*
X171800D02*
X173962D01*
X160369D02*
X163458D01*
X154808D02*
X156662D01*
X240693Y94152D02*
X242547D01*
X232970D02*
X236986D01*
X224320D02*
X226482D01*
X207019D02*
X207637D01*
X203929D02*
X204547D01*
X198369D02*
X200222D01*
X194352D02*
X194970D01*
X192499D02*
X193117D01*
X171491D02*
X173653D01*
X160369D02*
X163767D01*
X154808D02*
X156353D01*
X240693Y93843D02*
X242547D01*
X232661D02*
X236986D01*
X224628D02*
X226791D01*
X207019D02*
X207946D01*
X203929D02*
X204547D01*
X198369D02*
X200222D01*
X194352D02*
X194970D01*
X192499D02*
X193117D01*
X171491D02*
X173345D01*
X160060D02*
X164385D01*
X154499D02*
X156353D01*
X241002Y93534D02*
X242856D01*
X232043D02*
X237295D01*
X224937D02*
X226791D01*
X207328D02*
X207946D01*
X203929D02*
X204547D01*
X202076D02*
X202385D01*
X199604D02*
X199913D01*
X198369D02*
X198986D01*
X196515D02*
X197133D01*
X192190D02*
X193117D01*
X171182D02*
X173036D01*
X160060D02*
X165003D01*
X154499D02*
X156353D01*
X241002Y93225D02*
X242856D01*
X231425D02*
X237295D01*
X225246D02*
X227100D01*
X207328D02*
X207946D01*
X203929D02*
X204547D01*
X201767D02*
X202694D01*
X198369D02*
X198986D01*
X196515D02*
X197133D01*
X192190D02*
X192808D01*
X170873D02*
X173036D01*
X159751D02*
X165312D01*
X154190D02*
X156044D01*
X241311Y92916D02*
X242856D01*
X231116D02*
X237604D01*
X225555D02*
X227409D01*
X207637D02*
X208255D01*
X203929D02*
X204547D01*
X201458D02*
X202694D01*
X198369D02*
X198986D01*
X196515D02*
X197133D01*
X192190D02*
X192808D01*
X170873D02*
X172727D01*
X159751D02*
X165930D01*
X154190D02*
X156044D01*
X241311Y92607D02*
X243165D01*
X230498D02*
X237604D01*
X225555D02*
X227409D01*
X207637D02*
X208255D01*
X203929D02*
X204547D01*
X201149D02*
X202694D01*
X198060D02*
X198986D01*
X196515D02*
X197133D01*
X194044D02*
X194661D01*
X191881D02*
X192808D01*
X190645D02*
X191572D01*
X170564D02*
X172418D01*
X159442D02*
X166548D01*
X154190D02*
X155735D01*
X241620Y92298D02*
X243165D01*
X229880D02*
X237913D01*
X225864D02*
X227718D01*
X207637D02*
X208255D01*
X203929D02*
X204547D01*
X202076D02*
X202694D01*
X200840D02*
X201767D01*
X198060D02*
X198678D01*
X196515D02*
X197133D01*
X194044D02*
X194661D01*
X191881D02*
X192499D01*
X190645D02*
X191572D01*
X170255D02*
X172109D01*
X159442D02*
X166857D01*
X153881D02*
X155735D01*
X241620Y91989D02*
X243474D01*
X229880D02*
X237913D01*
X226173D02*
X228027D01*
X209181D02*
X209799D01*
X207946D02*
X208564D01*
X203929D02*
X204856D01*
X202076D02*
X202694D01*
X198060D02*
X198678D01*
X196206D02*
X197133D01*
X194044D02*
X194661D01*
X190336D02*
X192499D01*
X170255D02*
X172109D01*
X159133D02*
X167166D01*
X153881D02*
X155426D01*
X241929Y91680D02*
X243474D01*
X230189D02*
X238222D01*
X226173D02*
X228027D01*
X208873D02*
X209799D01*
X207946D02*
X208564D01*
X204239D02*
X204856D01*
X202076D02*
X202694D01*
X198060D02*
X198678D01*
X196206D02*
X196824D01*
X194044D02*
X194661D01*
X191263D02*
X192499D01*
X190336D02*
X190954D01*
X169946D02*
X171800D01*
X159133D02*
X166857D01*
X153572D02*
X155426D01*
X241929Y91371D02*
X243474D01*
X230498D02*
X238222D01*
X226482D02*
X228336D01*
X208255D02*
X209799D01*
X204239D02*
X204856D01*
X202076D02*
X202694D01*
X197751D02*
X198678D01*
X196206D02*
X196824D01*
X194044D02*
X194661D01*
X191572D02*
X192190D01*
X190336D02*
X190954D01*
X169637D02*
X171491D01*
X158824D02*
X166857D01*
X153572D02*
X155117D01*
X241929Y91062D02*
X243783D01*
X230498D02*
X238222D01*
X226791D02*
X228645D01*
X211962D02*
X212580D01*
X209490D02*
X210108D01*
X208255D02*
X209181D01*
X204239D02*
X204856D01*
X201767D02*
X202694D01*
X197751D02*
X198678D01*
X196206D02*
X196824D01*
X193735D02*
X194661D01*
X191572D02*
X192190D01*
X190336D02*
X190954D01*
X169637D02*
X171491D01*
X158824D02*
X166548D01*
X153572D02*
X155117D01*
X242238Y90753D02*
X243783D01*
X230807D02*
X238531D01*
X226791D02*
X228645D01*
X211962D02*
X212580D01*
X209490D02*
X210108D01*
X208255D02*
X208873D01*
X204239D02*
X204856D01*
X201767D02*
X202694D01*
X197751D02*
X198369D01*
X196206D02*
X196824D01*
X193735D02*
X194661D01*
X190027D02*
X190645D01*
X169328D02*
X171182D01*
X158515D02*
X166548D01*
X153263D02*
X155117D01*
X242238Y90444D02*
X244092D01*
X230807D02*
X238531D01*
X227100D02*
X228954D01*
X211653D02*
X212580D01*
X209490D02*
X210108D01*
X204547D02*
X204856D01*
X201767D02*
X202385D01*
X197751D02*
X198369D01*
X196206D02*
X196515D01*
X193735D02*
X194661D01*
X190027D02*
X190645D01*
X169328D02*
X171182D01*
X158515D02*
X166239D01*
X153263D02*
X154808D01*
X242238Y90135D02*
X244092D01*
X231116D02*
X238840D01*
X227100D02*
X228954D01*
X211653D02*
X212580D01*
X209799D02*
X210417D01*
X204547D02*
X205165D01*
X201767D02*
X202385D01*
X197442D02*
X198369D01*
X193735D02*
X194661D01*
X190027D02*
X190645D01*
X169019D02*
X170873D01*
X158515D02*
X166239D01*
X152954D02*
X154808D01*
X242547Y89826D02*
X244092D01*
X231116D02*
X238840D01*
X227409D02*
X229263D01*
X211653D02*
X212580D01*
X209799D02*
X210417D01*
X204547D02*
X205165D01*
X203003D02*
X203621D01*
X201767D02*
X202385D01*
X197442D02*
X198369D01*
X193735D02*
X194661D01*
X191881D02*
X192190D01*
X189718D02*
X190336D01*
X169019D02*
X170564D01*
X158206D02*
X165930D01*
X152954D02*
X154808D01*
X242547Y89517D02*
X244401D01*
X231425D02*
X238840D01*
X227718D02*
X229263D01*
X211344D02*
X212580D01*
X209799D02*
X210417D01*
X207328D02*
X207946D01*
X204547D02*
X205165D01*
X201767D02*
X203621D01*
X197442D02*
X198060D01*
X193735D02*
X194661D01*
X191572D02*
X192190D01*
X189718D02*
X190336D01*
X168710D02*
X170564D01*
X158206D02*
X165930D01*
X152954D02*
X154499D01*
X242856Y89209D02*
X244401D01*
X231425D02*
X239149D01*
X227718D02*
X229572D01*
X212271D02*
X212580D01*
X211344D02*
X211962D01*
X210108D02*
X210726D01*
X207019D02*
X207946D01*
X204547D02*
X205165D01*
X201767D02*
X203621D01*
X197442D02*
X198060D01*
X193735D02*
X194970D01*
X191572D02*
X192499D01*
X189718D02*
X190336D01*
X168710D02*
X170255D01*
X157897D02*
X165621D01*
X152646D02*
X154499D01*
X242856Y88899D02*
X244401D01*
X231734D02*
X239149D01*
X228027D02*
X229572D01*
X212271D02*
X212889D01*
X211344D02*
X211962D01*
X210108D02*
X210726D01*
X207019D02*
X207946D01*
X204547D02*
X205165D01*
X201767D02*
X203621D01*
X197133D02*
X198060D01*
X194352D02*
X194970D01*
X193426D02*
X194044D01*
X191572D02*
X192499D01*
X189409D02*
X190336D01*
X168401D02*
X170255D01*
X157897D02*
X165621D01*
X152646D02*
X154190D01*
X242856Y88591D02*
X244710D01*
X231734D02*
X239458D01*
X228027D02*
X229880D01*
X212271D02*
X212889D01*
X211035D02*
X211653D01*
X210108D02*
X210726D01*
X207019D02*
X207946D01*
X204547D02*
X205165D01*
X201767D02*
X203621D01*
X197133D02*
X197751D01*
X193426D02*
X194044D01*
X191572D02*
X192499D01*
X189409D02*
X190027D01*
X168401D02*
X169946D01*
X157897D02*
X165312D01*
X152646D02*
X154190D01*
X243165Y88282D02*
X244710D01*
X232043D02*
X239458D01*
X228336D02*
X229880D01*
X212271D02*
X212889D01*
X210417D02*
X211653D01*
X208564D02*
X208873D01*
X207328D02*
X207946D01*
X204547D02*
X205165D01*
X201767D02*
X203621D01*
X197133D02*
X197751D01*
X193426D02*
X194044D01*
X191263D02*
X192499D01*
X189409D02*
X190027D01*
X168093D02*
X169946D01*
X157589D02*
X165312D01*
X152337D02*
X154190D01*
X243165Y87973D02*
X244710D01*
X232043D02*
X239458D01*
X228336D02*
X230189D01*
X212271D02*
X212889D01*
X210417D02*
X211344D01*
X208255D02*
X208873D01*
X207328D02*
X207946D01*
X204547D02*
X205165D01*
X202694D02*
X203312D01*
X202076D02*
X202385D01*
X197133D02*
X198060D01*
X193117D02*
X194044D01*
X191263D02*
X192808D01*
X189100D02*
X190027D01*
X168093D02*
X169637D01*
X157589D02*
X165003D01*
X152337D02*
X153881D01*
X243165Y87664D02*
X245019D01*
X232043D02*
X239767D01*
X228645D02*
X230189D01*
X212580D02*
X213198D01*
X210417D02*
X211344D01*
X207328D02*
X208873D01*
X204547D02*
X205165D01*
X202694D02*
X203312D01*
X197133D02*
X198369D01*
X192190D02*
X192808D01*
X191263D02*
X191881D01*
X189100D02*
X189718D01*
X167784D02*
X169637D01*
X157589D02*
X165003D01*
X152337D02*
X153881D01*
X243474Y87355D02*
X245019D01*
X232352D02*
X239767D01*
X228645D02*
X230498D01*
X212580D02*
X213198D01*
X210726D02*
X211035D01*
X207328D02*
X208873D01*
X204239D02*
X204856D01*
X202694D02*
X203312D01*
X197133D02*
X198678D01*
X189100D02*
X189718D01*
X167784D02*
X169328D01*
X157280D02*
X165003D01*
X152028D02*
X153881D01*
X243474Y87046D02*
X245019D01*
X232352D02*
X239767D01*
X228954D02*
X230498D01*
X212580D02*
X213198D01*
X207328D02*
X208564D01*
X204239D02*
X204856D01*
X202385D02*
X203312D01*
X198060D02*
X198678D01*
X189100D02*
X189718D01*
X167475D02*
X169328D01*
X157280D02*
X164694D01*
X152028D02*
X153572D01*
X243474Y86737D02*
X245327D01*
X232661D02*
X240075D01*
X228954D02*
X230498D01*
X212580D02*
X213198D01*
X207328D02*
X208564D01*
X204239D02*
X204856D01*
X202385D02*
X203312D01*
X198060D02*
X198678D01*
X188792D02*
X189409D01*
X167475D02*
X169019D01*
X157280D02*
X164694D01*
X152028D02*
X153572D01*
X243783Y86428D02*
X245327D01*
X232661D02*
X240075D01*
X228954D02*
X230807D01*
X212889D02*
X213507D01*
X207637D02*
X208255D01*
X204239D02*
X204856D01*
X202385D02*
X203003D01*
X198060D02*
X198678D01*
X188792D02*
X189409D01*
X167475D02*
X169019D01*
X156971D02*
X164385D01*
X152028D02*
X153572D01*
X243783Y86119D02*
X245327D01*
X232661D02*
X240075D01*
X229263D02*
X230807D01*
X212889D02*
X213507D01*
X207637D02*
X208255D01*
X204239D02*
X204856D01*
X202385D02*
X203003D01*
X198060D02*
X198678D01*
X188482D02*
X189409D01*
X167166D02*
X168710D01*
X156971D02*
X164385D01*
X151719D02*
X153572D01*
X243783Y85810D02*
X245327D01*
X232970D02*
X240384D01*
X229263D02*
X231116D01*
X212889D02*
X213507D01*
X211035D02*
X211653D01*
X207637D02*
X208255D01*
X204239D02*
X204856D01*
X202385D02*
X203003D01*
X198060D02*
X198678D01*
X188482D02*
X189409D01*
X167166D02*
X168710D01*
X156971D02*
X164385D01*
X151719D02*
X153263D01*
X243783Y85501D02*
X245636D01*
X232970D02*
X240384D01*
X229572D02*
X231116D01*
X212889D02*
X213816D01*
X211035D02*
X211653D01*
X207328D02*
X207946D01*
X204239D02*
X204547D01*
X202385D02*
X203003D01*
X199604D02*
X200222D01*
X198060D02*
X198678D01*
X187865D02*
X189100D01*
X166857D02*
X168710D01*
X156971D02*
X164076D01*
X151719D02*
X153263D01*
X244092Y85192D02*
X245636D01*
X232970D02*
X240384D01*
X229572D02*
X231116D01*
X212889D02*
X213816D01*
X210726D02*
X211653D01*
X207328D02*
X207946D01*
X202385D02*
X202694D01*
X199295D02*
X200222D01*
X198060D02*
X198678D01*
X187556D02*
X188792D01*
X166857D02*
X168401D01*
X156662D02*
X164076D01*
X151719D02*
X153263D01*
X244092Y84883D02*
X245636D01*
X233279D02*
X240384D01*
X229572D02*
X231425D01*
X213198D02*
X213816D01*
X210726D02*
X211653D01*
X207019D02*
X207637D01*
X198986D02*
X200222D01*
X198060D02*
X198678D01*
X187247D02*
X188174D01*
X166857D02*
X168401D01*
X156662D02*
X164076D01*
X151410D02*
X153263D01*
X244092Y84574D02*
X245636D01*
X233279D02*
X240693D01*
X229880D02*
X231425D01*
X213198D02*
X213816D01*
X210417D02*
X211344D01*
X207019D02*
X207637D01*
X198060D02*
X200222D01*
X186938D02*
X187865D01*
X166548D02*
X168401D01*
X156662D02*
X163767D01*
X151410D02*
X152954D01*
X244092Y84265D02*
X245945D01*
X233279D02*
X240693D01*
X229880D02*
X231425D01*
X213198D02*
X213816D01*
X210108D02*
X211344D01*
X207019D02*
X207637D01*
X199604D02*
X200222D01*
X198060D02*
X198986D01*
X186629D02*
X187556D01*
X166548D02*
X168093D01*
X156353D02*
X163767D01*
X151410D02*
X152954D01*
X244401Y83956D02*
X245945D01*
X233588D02*
X240693D01*
X229880D02*
X231734D01*
X213198D02*
X213816D01*
X211035D02*
X211344D01*
X210108D02*
X210417D01*
X207019D02*
X207328D01*
X199913D02*
X200531D01*
X198369D02*
X198678D01*
X188482D02*
X189409D01*
X186320D02*
X187247D01*
X166548D02*
X168093D01*
X156353D02*
X163767D01*
X151410D02*
X152954D01*
X244401Y83648D02*
X245945D01*
X233588D02*
X240693D01*
X230189D02*
X231734D01*
X213198D02*
X213816D01*
X211035D02*
X211344D01*
X206710D02*
X207328D01*
X199913D02*
X200531D01*
X188482D02*
X189409D01*
X186011D02*
X186938D01*
X166239D02*
X168093D01*
X156353D02*
X163458D01*
X151101D02*
X152954D01*
X244401Y83339D02*
X245945D01*
X233588D02*
X241002D01*
X230189D02*
X231734D01*
X213198D02*
X213816D01*
X211035D02*
X211344D01*
X206710D02*
X207328D01*
X202385D02*
X203003D01*
X200222D02*
X200840D01*
X192808D02*
X193426D01*
X188174D02*
X189718D01*
X185702D02*
X186629D01*
X166239D02*
X167784D01*
X156353D02*
X163458D01*
X151101D02*
X152646D01*
X244401Y83030D02*
X245945D01*
X233588D02*
X241002D01*
X230189D02*
X232043D01*
X213198D02*
X213816D01*
X211035D02*
X211344D01*
X209490D02*
X209799D01*
X206710D02*
X207328D01*
X201767D02*
X203003D01*
X200222D02*
X200840D01*
X192499D02*
X193426D01*
X187865D02*
X188792D01*
X185393D02*
X186320D01*
X166239D02*
X167784D01*
X156353D02*
X163458D01*
X151101D02*
X152646D01*
X244401Y82721D02*
X246254D01*
X233897D02*
X241002D01*
X230498D02*
X232043D01*
X213198D02*
X213816D01*
X211035D02*
X211344D01*
X209490D02*
X210108D01*
X206710D02*
X207019D01*
X204856D02*
X205474D01*
X201767D02*
X203312D01*
X200222D02*
X200840D01*
X194970D02*
X195588D01*
X192190D02*
X193426D01*
X187247D02*
X188482D01*
X185084D02*
X186011D01*
X165930D02*
X167784D01*
X156044D02*
X163458D01*
X151101D02*
X152646D01*
X244710Y82412D02*
X246254D01*
X233897D02*
X241002D01*
X230498D02*
X232043D01*
X213198D02*
X213816D01*
X211035D02*
X211344D01*
X209181D02*
X210108D01*
X206710D02*
X207019D01*
X204856D02*
X205474D01*
X202694D02*
X203621D01*
X201458D02*
X202385D01*
X200531D02*
X201149D01*
X194352D02*
X195588D01*
X191881D02*
X193426D01*
X186938D02*
X188174D01*
X185084D02*
X185702D01*
X165930D02*
X167475D01*
X156044D02*
X163149D01*
X151101D02*
X152646D01*
X244710Y82103D02*
X246254D01*
X233897D02*
X241002D01*
X230498D02*
X232043D01*
X213507D02*
X214124D01*
X210726D02*
X211344D01*
X209181D02*
X210108D01*
X204547D02*
X205474D01*
X203003D02*
X203621D01*
X201458D02*
X202076D01*
X200531D02*
X201149D01*
X194044D02*
X195279D01*
X191881D02*
X193426D01*
X186938D02*
X187556D01*
X185084D02*
X185702D01*
X165930D02*
X167475D01*
X156044D02*
X163149D01*
X150792D02*
X152646D01*
X244710Y81794D02*
X246254D01*
X233897D02*
X241311D01*
X230498D02*
X232352D01*
X213507D02*
X214124D01*
X210726D02*
X211344D01*
X208873D02*
X210108D01*
X204547D02*
X205165D01*
X203003D02*
X203929D01*
X200531D02*
X202076D01*
X194352D02*
X194970D01*
X192808D02*
X194044D01*
X191572D02*
X192190D01*
X186938D02*
X187556D01*
X185084D02*
X185393D01*
X165930D02*
X167475D01*
X156044D02*
X163149D01*
X150792D02*
X152646D01*
X244710Y81485D02*
X246254D01*
X234206D02*
X241311D01*
X230807D02*
X232352D01*
X213507D02*
X214124D01*
X210726D02*
X211344D01*
X208873D02*
X210108D01*
X204547D02*
X205165D01*
X203312D02*
X203929D01*
X200840D02*
X201767D01*
X194044D02*
X194661D01*
X192190D02*
X193735D01*
X191263D02*
X191881D01*
X187247D02*
X187556D01*
X184775D02*
X185393D01*
X165621D02*
X167475D01*
X156044D02*
X163149D01*
X150792D02*
X152337D01*
X244710Y81176D02*
X246254D01*
X234206D02*
X241311D01*
X230807D02*
X232352D01*
X213507D02*
X214124D01*
X210726D02*
X211344D01*
X209490D02*
X210108D01*
X208255D02*
X209181D01*
X203621D02*
X205165D01*
X200840D02*
X201767D01*
X193735D02*
X194352D01*
X191881D02*
X193426D01*
X190954D02*
X191572D01*
X184775D02*
X185393D01*
X165621D02*
X167166D01*
X155735D02*
X162840D01*
X150792D02*
X152337D01*
X244710Y80867D02*
X246563D01*
X234206D02*
X241311D01*
X230807D02*
X232352D01*
X218450D02*
X219068D01*
X213198D02*
X213816D01*
X210726D02*
X211344D01*
X209799D02*
X210108D01*
X208564D02*
X208873D01*
X203621D02*
X205165D01*
X193426D02*
X194044D01*
X192499D02*
X193117D01*
X191572D02*
X191881D01*
X190954D02*
X191263D01*
X184775D02*
X185393D01*
X165621D02*
X167166D01*
X155735D02*
X162840D01*
X150792D02*
X152337D01*
X244710Y80558D02*
X246563D01*
X234206D02*
X241311D01*
X230807D02*
X232352D01*
X217832D02*
X219068D01*
X213198D02*
X213816D01*
X210726D02*
X211344D01*
X209799D02*
X210417D01*
X203929D02*
X204856D01*
X201458D02*
X202076D01*
X193117D02*
X193426D01*
X192499D02*
X192808D01*
X191263D02*
X191572D01*
X190645D02*
X190954D01*
X184775D02*
X185393D01*
X165621D02*
X167166D01*
X155735D02*
X162840D01*
X150792D02*
X152337D01*
X245019Y80249D02*
X246563D01*
X234206D02*
X241620D01*
X231116D02*
X232661D01*
X217523D02*
X219068D01*
X214434D02*
X215051D01*
X213198D02*
X213816D01*
X210726D02*
X211344D01*
X209799D02*
X210417D01*
X201149D02*
X202076D01*
X192499D02*
X193117D01*
X190954D02*
X191263D01*
X190336D02*
X190645D01*
X184775D02*
X185084D01*
X165621D02*
X167166D01*
X155735D02*
X162840D01*
X150792D02*
X152337D01*
X245019Y79940D02*
X246563D01*
X234515D02*
X241620D01*
X231116D02*
X232661D01*
X217214D02*
X218759D01*
X214124D02*
X215051D01*
X213198D02*
X213816D01*
X210726D02*
X211344D01*
X209799D02*
X210417D01*
X201149D02*
X202076D01*
X193117D02*
X193735D01*
X190027D02*
X190954D01*
X184466D02*
X185084D01*
X165312D02*
X167166D01*
X155735D02*
X162840D01*
X150483D02*
X152337D01*
X245019Y79631D02*
X246563D01*
X234515D02*
X241620D01*
X231116D02*
X232661D01*
X218141D02*
X218759D01*
X216905D02*
X217832D01*
X212889D02*
X215051D01*
X210726D02*
X211344D01*
X209799D02*
X210417D01*
X200840D02*
X201767D01*
X192499D02*
X193735D01*
X190027D02*
X190645D01*
X184466D02*
X185084D01*
X165312D02*
X166857D01*
X155735D02*
X162840D01*
X150483D02*
X152028D01*
X245019Y79322D02*
X246563D01*
X234515D02*
X241620D01*
X231116D02*
X232661D01*
X218141D02*
X218759D01*
X216596D02*
X217523D01*
X212889D02*
X215051D01*
X210726D02*
X211344D01*
X209799D02*
X210417D01*
X200531D02*
X201767D01*
X192190D02*
X193117D01*
X189718D02*
X190336D01*
X184157D02*
X184775D01*
X165312D02*
X166857D01*
X155735D02*
X162532D01*
X150483D02*
X152028D01*
X245019Y79014D02*
X246563D01*
X234515D02*
X241620D01*
X231116D02*
X232661D01*
X218141D02*
X218759D01*
X216287D02*
X217214D01*
X214434D02*
X214742D01*
X212889D02*
X213816D01*
X210726D02*
X211962D01*
X209799D02*
X210417D01*
X200222D02*
X201767D01*
X191572D02*
X192808D01*
X184157D02*
X184775D01*
X165312D02*
X166857D01*
X155426D02*
X162532D01*
X150483D02*
X152028D01*
X245019Y78705D02*
X246563D01*
X234515D02*
X241620D01*
X231116D02*
X232970D01*
X218141D02*
X218759D01*
X215978D02*
X216905D01*
X214434D02*
X214742D01*
X212889D02*
X213507D01*
X209799D02*
X211962D01*
X200222D02*
X201767D01*
X191263D02*
X192190D01*
X184157D02*
X184775D01*
X165312D02*
X166857D01*
X155426D02*
X162532D01*
X150483D02*
X152028D01*
X245327Y78396D02*
X246872D01*
X234515D02*
X241620D01*
X231425D02*
X232970D01*
X218141D02*
X218759D01*
X215360D02*
X216287D01*
X214124D02*
X214742D01*
X209799D02*
X211962D01*
X199913D02*
X201458D01*
X193426D02*
X194044D01*
X190645D02*
X191881D01*
X183848D02*
X184466D01*
X165312D02*
X166857D01*
X155426D02*
X162532D01*
X150483D02*
X152028D01*
X245327Y78087D02*
X246872D01*
X234823D02*
X241620D01*
X231425D02*
X232970D01*
X218141D02*
X218759D01*
X214124D02*
X215978D01*
X211344D02*
X211962D01*
X210108D02*
X211035D01*
X200840D02*
X201458D01*
X199604D02*
X200531D01*
X193117D02*
X194044D01*
X190336D02*
X191572D01*
X183848D02*
X184466D01*
X165312D02*
X166857D01*
X155426D02*
X162532D01*
X150483D02*
X152028D01*
X245327Y77778D02*
X246872D01*
X234823D02*
X241620D01*
X231425D02*
X232970D01*
X218141D02*
X218759D01*
X214124D02*
X215669D01*
X211344D02*
X211962D01*
X210108D02*
X210726D01*
X200840D02*
X201458D01*
X199295D02*
X200531D01*
X192808D02*
X193735D01*
X190027D02*
X191572D01*
X183539D02*
X184157D01*
X165003D02*
X166857D01*
X155426D02*
X162532D01*
X150483D02*
X152028D01*
X245327Y77469D02*
X246872D01*
X234823D02*
X241929D01*
X231425D02*
X232970D01*
X217832D02*
X218759D01*
X214434D02*
X215051D01*
X211344D02*
X211653D01*
X210417D02*
X210726D01*
X200840D02*
X201149D01*
X198986D02*
X200531D01*
X192499D02*
X193426D01*
X189718D02*
X191572D01*
X183539D02*
X184157D01*
X165003D02*
X166548D01*
X155426D02*
X162532D01*
X150483D02*
X152028D01*
X245327Y77160D02*
X246872D01*
X234823D02*
X241929D01*
X231425D02*
X232970D01*
X217832D02*
X218450D01*
X211035D02*
X211653D01*
X200840D02*
X201149D01*
X198986D02*
X200531D01*
X192190D02*
X193117D01*
X189409D02*
X191572D01*
X183231D02*
X183848D01*
X165003D02*
X166548D01*
X155426D02*
X162532D01*
X150483D02*
X152028D01*
X245327Y76851D02*
X246872D01*
X234823D02*
X241929D01*
X231425D02*
X232970D01*
X217832D02*
X218450D01*
X211035D02*
X211653D01*
X207019D02*
X207328D01*
X200840D02*
X201149D01*
X198678D02*
X200222D01*
X192190D02*
X192808D01*
X189409D02*
X191572D01*
X182922D02*
X183848D01*
X165003D02*
X166548D01*
X155426D02*
X162532D01*
X150483D02*
X152028D01*
X245327Y76542D02*
X246872D01*
X234823D02*
X241929D01*
X231425D02*
X232970D01*
X217832D02*
X218450D01*
X211035D02*
X211653D01*
X207019D02*
X207637D01*
X200531D02*
X200840D01*
X198369D02*
X200222D01*
X190027D02*
X192808D01*
X189100D02*
X189718D01*
X182922D02*
X183539D01*
X165003D02*
X166548D01*
X155426D02*
X162532D01*
X150483D02*
X152028D01*
X245327Y76233D02*
X246872D01*
X234823D02*
X241929D01*
X231425D02*
X232970D01*
X217832D02*
X218450D01*
X211035D02*
X211344D01*
X207019D02*
X207637D01*
X200531D02*
X200840D01*
X198369D02*
X200222D01*
X190027D02*
X192499D01*
X189100D02*
X189718D01*
X184157D02*
X184775D01*
X182613D02*
X183231D01*
X165003D02*
X166548D01*
X155426D02*
X162532D01*
X150483D02*
X152028D01*
X245327Y75924D02*
X246872D01*
X234823D02*
X241929D01*
X231425D02*
X232970D01*
X217832D02*
X218450D01*
X215669D02*
X216287D01*
X210726D02*
X211344D01*
X207019D02*
X207637D01*
X200531D02*
X200840D01*
X198060D02*
X200222D01*
X190336D02*
X192190D01*
X183539D02*
X184775D01*
X182304D02*
X182922D01*
X165003D02*
X166548D01*
X155426D02*
X162223D01*
X150174D02*
X151719D01*
X245327Y75615D02*
X246872D01*
X234823D02*
X241929D01*
X231425D02*
X232970D01*
X217523D02*
X218450D01*
X215360D02*
X215978D01*
X210726D02*
X211344D01*
X207019D02*
X207946D01*
X197751D02*
X201149D01*
X190336D02*
X191572D01*
X183539D02*
X184775D01*
X181995D02*
X182613D01*
X165003D02*
X166548D01*
X155426D02*
X162223D01*
X150174D02*
X151719D01*
X245327Y75306D02*
X246872D01*
X234823D02*
X241929D01*
X231425D02*
X232970D01*
X217523D02*
X218141D01*
X215051D02*
X215978D01*
X210726D02*
X211344D01*
X207328D02*
X207946D01*
X197442D02*
X202076D01*
X190027D02*
X191263D01*
X183539D02*
X184466D01*
X181686D02*
X182304D01*
X165003D02*
X166548D01*
X155426D02*
X162223D01*
X150174D02*
X151719D01*
X245327Y74997D02*
X246872D01*
X234823D02*
X241929D01*
X231425D02*
X232970D01*
X217523D02*
X218141D01*
X214742D02*
X216596D01*
X207328D02*
X207946D01*
X197442D02*
X202385D01*
X183539D02*
X184466D01*
X181377D02*
X182304D01*
X165003D02*
X166548D01*
X155426D02*
X162223D01*
X150174D02*
X151719D01*
X245327Y74688D02*
X246872D01*
X234823D02*
X241929D01*
X231734D02*
X232970D01*
X217523D02*
X218141D01*
X213816D02*
X216905D01*
X207328D02*
X207946D01*
X197133D02*
X202076D01*
X183539D02*
X184157D01*
X181068D02*
X181686D01*
X165003D02*
X166548D01*
X155426D02*
X162223D01*
X150174D02*
X151719D01*
X245327Y74379D02*
X246872D01*
X234823D02*
X241929D01*
X231734D02*
X232970D01*
X217523D02*
X218141D01*
X213816D02*
X216905D01*
X207328D02*
X207946D01*
X197133D02*
X202076D01*
X180450D02*
X181377D01*
X165003D02*
X166548D01*
X155426D02*
X162223D01*
X150174D02*
X151719D01*
X245327Y74070D02*
X246872D01*
X234823D02*
X241929D01*
X231734D02*
X232970D01*
X217523D02*
X218141D01*
X215051D02*
X216596D01*
X206710D02*
X208255D01*
X197751D02*
X201767D01*
X180141D02*
X181068D01*
X165003D02*
X166548D01*
X155426D02*
X162223D01*
X150174D02*
X151719D01*
X245327Y73761D02*
X246872D01*
X234823D02*
X241929D01*
X231734D02*
X232970D01*
X217523D02*
X218141D01*
X215051D02*
X216596D01*
X206401D02*
X208255D01*
X200840D02*
X201458D01*
X198369D02*
X199604D01*
X181686D02*
X182304D01*
X179832D02*
X180759D01*
X165003D02*
X166548D01*
X155426D02*
X162223D01*
X150174D02*
X151719D01*
X245327Y73453D02*
X246872D01*
X234823D02*
X241929D01*
X231734D02*
X232970D01*
X217214D02*
X218141D01*
X215051D02*
X216287D01*
X206401D02*
X207946D01*
X200840D02*
X201149D01*
X198678D02*
X200531D01*
X181377D02*
X182304D01*
X179523D02*
X180450D01*
X165003D02*
X166548D01*
X155426D02*
X162223D01*
X150174D02*
X151719D01*
X245327Y73144D02*
X246872D01*
X234823D02*
X241929D01*
X231734D02*
X232970D01*
X217214D02*
X218141D01*
X215669D02*
X216287D01*
X207328D02*
X207637D01*
X206401D02*
X207019D01*
X205165D02*
X205474D01*
X200531D02*
X201149D01*
X198369D02*
X200222D01*
X181068D02*
X181995D01*
X178905D02*
X179832D01*
X165003D02*
X166548D01*
X155426D02*
X162223D01*
X150174D02*
X151719D01*
X245327Y72835D02*
X246872D01*
X234823D02*
X241929D01*
X231734D02*
X232970D01*
X217214D02*
X217832D01*
X215360D02*
X216287D01*
X206092D02*
X207019D01*
X205165D02*
X205783D01*
X200531D02*
X200840D01*
X198369D02*
X200222D01*
X180759D02*
X181377D01*
X178596D02*
X179523D01*
X165003D02*
X166548D01*
X155426D02*
X162223D01*
X150174D02*
X151719D01*
X245327Y72526D02*
X246872D01*
X234823D02*
X241929D01*
X231425D02*
X232970D01*
X216905D02*
X217832D01*
X215360D02*
X215978D01*
X212889D02*
X213507D01*
X205165D02*
X206710D01*
X200222D02*
X200531D01*
X198369D02*
X199913D01*
X180450D02*
X181068D01*
X178287D02*
X179214D01*
X165003D02*
X166548D01*
X155426D02*
X162223D01*
X150174D02*
X151719D01*
X245327Y72217D02*
X246872D01*
X234823D02*
X241929D01*
X231425D02*
X232970D01*
X216905D02*
X217832D01*
X215360D02*
X215978D01*
X212889D02*
X213507D01*
X205165D02*
X206710D01*
X200222D02*
X200531D01*
X198369D02*
X199604D01*
X180450D02*
X180759D01*
X177979D02*
X178905D01*
X165003D02*
X166548D01*
X155426D02*
X162223D01*
X150174D02*
X151719D01*
X245327Y71908D02*
X246872D01*
X234823D02*
X241929D01*
X231425D02*
X232970D01*
X216905D02*
X217523D01*
X215051D02*
X215669D01*
X212580D02*
X213507D01*
X205165D02*
X206710D01*
X199913D02*
X200222D01*
X198060D02*
X199604D01*
X177670D02*
X178596D01*
X165003D02*
X166548D01*
X155426D02*
X162223D01*
X150174D02*
X151719D01*
X245327Y71599D02*
X246872D01*
X234823D02*
X241929D01*
X231425D02*
X232970D01*
X216905D02*
X217523D01*
X215051D02*
X215669D01*
X212271D02*
X213507D01*
X199604D02*
X199913D01*
X198060D02*
X199295D01*
X177361D02*
X178287D01*
X165003D02*
X166548D01*
X155426D02*
X162223D01*
X150174D02*
X151719D01*
X245327Y71290D02*
X246872D01*
X234823D02*
X241929D01*
X231425D02*
X232970D01*
X216905D02*
X217523D01*
X214742D02*
X215360D01*
X212271D02*
X213198D01*
X199604D02*
X199913D01*
X198060D02*
X199295D01*
X177052D02*
X177979D01*
X165003D02*
X166548D01*
X155426D02*
X162532D01*
X150483D02*
X152028D01*
X245327Y70981D02*
X246872D01*
X234823D02*
X241929D01*
X231425D02*
X232970D01*
X216905D02*
X217523D01*
X214742D02*
X215360D01*
X212580D02*
X213198D01*
X199295D02*
X199604D01*
X198060D02*
X198986D01*
X176743D02*
X177361D01*
X165003D02*
X166548D01*
X155426D02*
X162532D01*
X150483D02*
X152028D01*
X245327Y70672D02*
X246872D01*
X234823D02*
X241929D01*
X231425D02*
X232970D01*
X216596D02*
X217523D01*
X214742D02*
X215360D01*
X212580D02*
X213198D01*
X197751D02*
X198986D01*
X176434D02*
X177052D01*
X165003D02*
X166548D01*
X155426D02*
X162532D01*
X150483D02*
X152028D01*
X245327Y70363D02*
X246872D01*
X234823D02*
X241929D01*
X231425D02*
X232970D01*
X216596D02*
X217523D01*
X214434D02*
X215051D01*
X212580D02*
X213198D01*
X198986D02*
X199295D01*
X197751D02*
X198678D01*
X191881D02*
X193735D01*
X175816D02*
X176743D01*
X165003D02*
X166548D01*
X155426D02*
X162532D01*
X150483D02*
X152028D01*
X245327Y70054D02*
X246872D01*
X234823D02*
X241929D01*
X231425D02*
X232970D01*
X216596D02*
X217214D01*
X214434D02*
X215051D01*
X212580D02*
X213198D01*
X197751D02*
X198986D01*
X191263D02*
X194044D01*
X175507D02*
X176434D01*
X165003D02*
X166548D01*
X155426D02*
X162532D01*
X150483D02*
X152028D01*
X245327Y69745D02*
X246872D01*
X234823D02*
X241620D01*
X231425D02*
X232970D01*
X216596D02*
X217214D01*
X212580D02*
X213198D01*
X197751D02*
X198678D01*
X193426D02*
X194352D01*
X190645D02*
X192190D01*
X175198D02*
X176125D01*
X165003D02*
X166857D01*
X155426D02*
X162532D01*
X150483D02*
X152028D01*
X245327Y69436D02*
X246872D01*
X234823D02*
X241620D01*
X231425D02*
X232970D01*
X216596D02*
X217214D01*
X197751D02*
X198678D01*
X193735D02*
X194970D01*
X192190D02*
X193426D01*
X190027D02*
X191263D01*
X174889D02*
X176125D01*
X165312D02*
X166857D01*
X155426D02*
X162532D01*
X150483D02*
X152028D01*
X245327Y69127D02*
X246872D01*
X234515D02*
X241620D01*
X231116D02*
X232970D01*
X216287D02*
X217214D01*
X202694D02*
X203003D01*
X197442D02*
X198369D01*
X193735D02*
X194970D01*
X191881D02*
X193426D01*
X189718D02*
X190645D01*
X174271D02*
X176434D01*
X165312D02*
X166857D01*
X155426D02*
X162532D01*
X150483D02*
X152028D01*
X245019Y68818D02*
X246563D01*
X234515D02*
X241620D01*
X231116D02*
X232970D01*
X216287D02*
X217214D01*
X202694D02*
X203312D01*
X197442D02*
X198060D01*
X193735D02*
X194970D01*
X191881D02*
X193117D01*
X189100D02*
X190336D01*
X173962D02*
X176743D01*
X165312D02*
X166857D01*
X155426D02*
X162532D01*
X150483D02*
X152028D01*
X245019Y68510D02*
X246563D01*
X234515D02*
X241620D01*
X231116D02*
X232661D01*
X216287D02*
X216905D01*
X202694D02*
X203312D01*
X197442D02*
X198060D01*
X194661D02*
X194970D01*
X193735D02*
X194044D01*
X192499D02*
X193117D01*
X191572D02*
X192190D01*
X188174D02*
X189718D01*
X173653D02*
X176743D01*
X165312D02*
X166857D01*
X155426D02*
X162532D01*
X150483D02*
X152028D01*
X245019Y68200D02*
X246563D01*
X234515D02*
X241620D01*
X231116D02*
X232661D01*
X216287D02*
X216905D01*
X202385D02*
X203003D01*
X192808D02*
X193117D01*
X191572D02*
X192190D01*
X186938D02*
X189100D01*
X173345D02*
X177052D01*
X165312D02*
X166857D01*
X155735D02*
X162532D01*
X150483D02*
X152028D01*
X245019Y67892D02*
X246563D01*
X234515D02*
X241620D01*
X231116D02*
X232661D01*
X215978D02*
X216905D01*
X206710D02*
X207328D01*
X202385D02*
X203003D01*
X186011D02*
X188174D01*
X173345D02*
X177052D01*
X165312D02*
X166857D01*
X155735D02*
X162840D01*
X150483D02*
X152028D01*
X245019Y67583D02*
X246563D01*
X234515D02*
X241620D01*
X231116D02*
X232661D01*
X215978D02*
X216596D01*
X206401D02*
X207328D01*
X202385D02*
X203003D01*
X184466D02*
X186938D01*
X173345D02*
X177052D01*
X165312D02*
X167166D01*
X155735D02*
X162840D01*
X150483D02*
X152337D01*
X245019Y67274D02*
X246563D01*
X234206D02*
X241620D01*
X231116D02*
X232661D01*
X215978D02*
X216596D01*
X206401D02*
X207328D01*
X204547D02*
X205165D01*
X202385D02*
X203003D01*
X183539D02*
X186011D01*
X175507D02*
X177052D01*
X173345D02*
X174889D01*
X165621D02*
X167166D01*
X155735D02*
X162840D01*
X150792D02*
X152337D01*
X245019Y66965D02*
X246563D01*
X234206D02*
X241311D01*
X230807D02*
X232352D01*
X215978D02*
X216596D01*
X206092D02*
X207328D01*
X204547D02*
X205474D01*
X202076D02*
X202694D01*
X182922D02*
X184466D01*
X175816D02*
X177052D01*
X173653D02*
X174889D01*
X165621D02*
X167166D01*
X155735D02*
X162840D01*
X150792D02*
X152337D01*
X244710Y66656D02*
X246563D01*
X234206D02*
X241311D01*
X230807D02*
X232352D01*
X215669D02*
X216287D01*
X209799D02*
X210417D01*
X205783D02*
X207328D01*
X204239D02*
X205474D01*
X202076D02*
X202694D01*
X197751D02*
X198060D01*
X182304D02*
X183848D01*
X176125D02*
X177052D01*
X173653D02*
X174889D01*
X165621D02*
X167166D01*
X155735D02*
X162840D01*
X150792D02*
X152337D01*
X244710Y66347D02*
X246254D01*
X234206D02*
X241311D01*
X230807D02*
X232352D01*
X215669D02*
X216287D01*
X209490D02*
X210726D01*
X208255D02*
X208564D01*
X206710D02*
X207328D01*
X204239D02*
X206401D01*
X203003D02*
X203312D01*
X202076D02*
X202694D01*
X197442D02*
X198060D01*
X181686D02*
X183539D01*
X176125D02*
X177052D01*
X173962D02*
X175198D01*
X165621D02*
X167166D01*
X155735D02*
X162840D01*
X150792D02*
X152337D01*
X244710Y66038D02*
X246254D01*
X234206D02*
X241311D01*
X230807D02*
X232352D01*
X215669D02*
X216287D01*
X209181D02*
X211035D01*
X207946D02*
X208873D01*
X206710D02*
X207328D01*
X205165D02*
X206092D01*
X203929D02*
X204547D01*
X202694D02*
X203312D01*
X201767D02*
X202385D01*
X197133D02*
X197751D01*
X181068D02*
X182922D01*
X175816D02*
X176743D01*
X174271D02*
X175507D01*
X165930D02*
X167475D01*
X156044D02*
X163149D01*
X150792D02*
X152337D01*
X244710Y65729D02*
X246254D01*
X233897D02*
X241311D01*
X230498D02*
X232352D01*
X215360D02*
X216287D01*
X210417D02*
X211035D01*
X207637D02*
X209799D01*
X206710D02*
X207328D01*
X205165D02*
X205783D01*
X203929D02*
X204547D01*
X201767D02*
X203621D01*
X196824D02*
X197442D01*
X180450D02*
X182613D01*
X174580D02*
X176743D01*
X165930D02*
X167475D01*
X156044D02*
X163149D01*
X150792D02*
X152337D01*
X244710Y65420D02*
X246254D01*
X233897D02*
X241002D01*
X230498D02*
X232043D01*
X215360D02*
X215978D01*
X210417D02*
X211344D01*
X206710D02*
X209490D01*
X203621D02*
X204239D01*
X201767D02*
X203312D01*
X196206D02*
X197133D01*
X179832D02*
X182304D01*
X174580D02*
X176743D01*
X165930D02*
X167475D01*
X156044D02*
X163149D01*
X151101D02*
X152646D01*
X244710Y65111D02*
X246254D01*
X233897D02*
X241002D01*
X230498D02*
X232043D01*
X215360D02*
X215978D01*
X210726D02*
X211344D01*
X208564D02*
X209490D01*
X206710D02*
X207946D01*
X201458D02*
X204239D01*
X195897D02*
X196824D01*
X179523D02*
X181995D01*
X174889D02*
X176743D01*
X165930D02*
X167475D01*
X156044D02*
X163149D01*
X151101D02*
X152646D01*
X244401Y64802D02*
X246254D01*
X233897D02*
X241002D01*
X230498D02*
X232043D01*
X215051D02*
X215669D01*
X211035D02*
X211653D01*
X208873D02*
X209490D01*
X206710D02*
X207637D01*
X202694D02*
X203929D01*
X201458D02*
X202385D01*
X195588D02*
X196515D01*
X193735D02*
X194352D01*
X180450D02*
X181686D01*
X179214D02*
X180141D01*
X175198D02*
X176743D01*
X166239D02*
X167784D01*
X156044D02*
X163458D01*
X151101D02*
X152646D01*
X244401Y64493D02*
X245945D01*
X233588D02*
X241002D01*
X230189D02*
X231734D01*
X215051D02*
X215669D01*
X211035D02*
X211962D01*
X206710D02*
X207637D01*
X202694D02*
X203929D01*
X201458D02*
X202076D01*
X195279D02*
X196206D01*
X193426D02*
X194044D01*
X192499D02*
X192808D01*
X181377D02*
X181686D01*
X180759D02*
X181068D01*
X178905D02*
X180141D01*
X175198D02*
X176434D01*
X166239D02*
X167784D01*
X156353D02*
X163458D01*
X151101D02*
X152646D01*
X244401Y64184D02*
X245945D01*
X233588D02*
X241002D01*
X230189D02*
X231734D01*
X214742D02*
X215360D01*
X211344D02*
X211962D01*
X206710D02*
X207637D01*
X202694D02*
X203621D01*
X194661D02*
X195897D01*
X193426D02*
X194044D01*
X192499D02*
X193117D01*
X181377D02*
X181686D01*
X180759D02*
X181068D01*
X178287D02*
X180450D01*
X175816D02*
X176743D01*
X166239D02*
X167784D01*
X156353D02*
X163458D01*
X151101D02*
X152646D01*
X244401Y63875D02*
X245945D01*
X233588D02*
X240693D01*
X230189D02*
X231734D01*
X214742D02*
X215360D01*
X211653D02*
X212271D01*
X206710D02*
X207328D01*
X202694D02*
X203312D01*
X194352D02*
X195279D01*
X193117D02*
X194044D01*
X192190D02*
X192808D01*
X190954D02*
X191263D01*
X180759D02*
X181686D01*
X177979D02*
X180450D01*
X175816D02*
X177052D01*
X166239D02*
X168093D01*
X156353D02*
X163458D01*
X151101D02*
X152954D01*
X244401Y63566D02*
X245945D01*
X233588D02*
X240693D01*
X229880D02*
X231734D01*
X214434D02*
X215051D01*
X206401D02*
X207328D01*
X192808D02*
X194970D01*
X191881D02*
X192499D01*
X190645D02*
X191263D01*
X181068D02*
X181686D01*
X180141D02*
X180759D01*
X176125D02*
X179523D01*
X166548D02*
X168093D01*
X156353D02*
X163767D01*
X151410D02*
X152954D01*
X244092Y63257D02*
X245945D01*
X233279D02*
X240693D01*
X229880D02*
X231425D01*
X214124D02*
X215051D01*
X206401D02*
X207019D01*
X192808D02*
X194352D01*
X191572D02*
X192499D01*
X190336D02*
X191263D01*
X181068D02*
X181686D01*
X180141D02*
X180759D01*
X176743D02*
X178596D01*
X166548D02*
X168093D01*
X156662D02*
X163767D01*
X151410D02*
X152954D01*
X244092Y62949D02*
X245636D01*
X233279D02*
X240693D01*
X229880D02*
X231425D01*
X214124D02*
X214742D01*
X206401D02*
X207019D01*
X191263D02*
X194044D01*
X190027D02*
X190954D01*
X180450D02*
X181995D01*
X177052D02*
X177979D01*
X166548D02*
X168401D01*
X156662D02*
X163767D01*
X151410D02*
X152954D01*
X244092Y62640D02*
X245636D01*
X233279D02*
X240384D01*
X229572D02*
X231425D01*
X213816D02*
X214742D01*
X206401D02*
X206710D01*
X191263D02*
X193426D01*
X189718D02*
X190645D01*
X181068D02*
X181995D01*
X177361D02*
X178287D01*
X166857D02*
X168401D01*
X156662D02*
X164076D01*
X151410D02*
X153263D01*
X244092Y62331D02*
X245636D01*
X232970D02*
X240384D01*
X229572D02*
X231116D01*
X213816D02*
X214434D01*
X189409D02*
X192499D01*
X181377D02*
X182304D01*
X177670D02*
X178596D01*
X166857D02*
X168401D01*
X156662D02*
X164076D01*
X151719D02*
X153263D01*
X243783Y62022D02*
X245636D01*
X232970D02*
X240384D01*
X229263D02*
X231116D01*
X213507D02*
X214434D01*
X195279D02*
X195897D01*
X187865D02*
X191572D01*
X177979D02*
X178596D01*
X166857D02*
X168710D01*
X156971D02*
X164076D01*
X151719D02*
X153263D01*
X243783Y61713D02*
X245327D01*
X232970D02*
X240384D01*
X229263D02*
X231116D01*
X213507D02*
X214124D01*
X195279D02*
X198060D01*
X186320D02*
X190645D01*
X184775D02*
X185084D01*
X177979D02*
X178905D01*
X167166D02*
X168710D01*
X156971D02*
X164385D01*
X151719D02*
X153263D01*
X243783Y61404D02*
X245327D01*
X232661D02*
X240075D01*
X229263D02*
X230807D01*
X213198D02*
X213816D01*
X195588D02*
X198986D01*
X183848D02*
X188174D01*
X178596D02*
X179214D01*
X167166D02*
X169019D01*
X156971D02*
X164385D01*
X151719D02*
X153572D01*
X243783Y61095D02*
X245327D01*
X232661D02*
X240075D01*
X228954D02*
X230807D01*
X212889D02*
X213816D01*
X198369D02*
X198678D01*
X196206D02*
X197133D01*
X187247D02*
X187865D01*
X183231D02*
X186320D01*
X178905D02*
X179832D01*
X167475D02*
X169019D01*
X156971D02*
X164385D01*
X152028D02*
X153572D01*
X243474Y60786D02*
X245019D01*
X232661D02*
X240075D01*
X228954D02*
X230498D01*
X212889D02*
X213507D01*
X195897D02*
X197133D01*
X187247D02*
X187556D01*
X181686D02*
X184466D01*
X179214D02*
X180141D01*
X167475D02*
X169019D01*
X157280D02*
X164694D01*
X152028D02*
X153572D01*
X243474Y60477D02*
X245019D01*
X232352D02*
X239767D01*
X228645D02*
X230498D01*
X212580D02*
X213507D01*
X195279D02*
X197442D01*
X186938D02*
X187556D01*
X179523D02*
X183539D01*
X167475D02*
X169328D01*
X157280D02*
X164694D01*
X152028D02*
X153572D01*
X243474Y60168D02*
X245019D01*
X232352D02*
X239767D01*
X228645D02*
X230498D01*
X212271D02*
X213198D01*
X194970D02*
X197442D01*
X186938D02*
X187247D01*
X180141D02*
X182613D01*
X167784D02*
X169328D01*
X157280D02*
X165003D01*
X152337D02*
X153881D01*
X243165Y59859D02*
X245019D01*
X232043D02*
X239767D01*
X228336D02*
X230189D01*
X211962D02*
X212889D01*
X194661D02*
X197442D01*
X186629D02*
X187247D01*
X181068D02*
X181686D01*
X167784D02*
X169637D01*
X157589D02*
X165003D01*
X152337D02*
X153881D01*
X243165Y59550D02*
X244710D01*
X232043D02*
X239458D01*
X228336D02*
X230189D01*
X211653D02*
X212580D01*
X194661D02*
X196515D01*
X186629D02*
X188174D01*
X168093D02*
X169637D01*
X157589D02*
X165003D01*
X152337D02*
X153881D01*
X243165Y59241D02*
X244710D01*
X232043D02*
X239458D01*
X228027D02*
X229880D01*
X211344D02*
X212271D01*
X194661D02*
X195588D01*
X186938D02*
X188174D01*
X168093D02*
X169946D01*
X157589D02*
X165312D01*
X152337D02*
X154190D01*
X242856Y58932D02*
X244710D01*
X231734D02*
X239458D01*
X228027D02*
X229880D01*
X211035D02*
X211962D01*
X187556D02*
X188174D01*
X168401D02*
X169946D01*
X157897D02*
X165312D01*
X152646D02*
X154190D01*
X242856Y58623D02*
X244401D01*
X231734D02*
X239149D01*
X228027D02*
X229572D01*
X210726D02*
X211653D01*
X187247D02*
X187865D01*
X168401D02*
X170255D01*
X157897D02*
X165621D01*
X152646D02*
X154190D01*
X242856Y58315D02*
X244401D01*
X231425D02*
X239149D01*
X227718D02*
X229572D01*
X210417D02*
X211344D01*
X187247D02*
X187865D01*
X168710D02*
X170255D01*
X158206D02*
X165621D01*
X152646D02*
X154499D01*
X242547Y58005D02*
X244401D01*
X231425D02*
X239149D01*
X227718D02*
X229263D01*
X210108D02*
X211035D01*
X192808D02*
X193426D01*
X187247D02*
X187865D01*
X168710D02*
X170564D01*
X158206D02*
X165930D01*
X152954D02*
X154499D01*
X242547Y57697D02*
X244092D01*
X231116D02*
X238840D01*
X227409D02*
X229263D01*
X209799D02*
X210726D01*
X192808D02*
X193426D01*
X187247D02*
X187865D01*
X169019D02*
X170564D01*
X158206D02*
X165930D01*
X152954D02*
X154808D01*
X242238Y57388D02*
X244092D01*
X231116D02*
X238840D01*
X227100D02*
X228954D01*
X209490D02*
X210417D01*
X192808D02*
X193426D01*
X188792D02*
X189409D01*
X186938D02*
X187556D01*
X169019D02*
X170873D01*
X158515D02*
X166239D01*
X152954D02*
X154808D01*
X242238Y57079D02*
X244092D01*
X230807D02*
X238531D01*
X227100D02*
X228954D01*
X209181D02*
X210108D01*
X193117D02*
X193426D01*
X188792D02*
X189409D01*
X186629D02*
X187556D01*
X169328D02*
X171182D01*
X158515D02*
X166239D01*
X153263D02*
X154808D01*
X242238Y56770D02*
X243783D01*
X230807D02*
X238531D01*
X226791D02*
X228645D01*
X208873D02*
X209799D01*
X188482D02*
X189100D01*
X186320D02*
X187247D01*
X169328D02*
X171182D01*
X158824D02*
X166548D01*
X153263D02*
X155117D01*
X241929Y56461D02*
X243783D01*
X230498D02*
X238531D01*
X226482D02*
X228336D01*
X208564D02*
X209490D01*
X200222D02*
X201149D01*
X188482D02*
X189718D01*
X185702D02*
X186938D01*
X169637D02*
X171491D01*
X158824D02*
X166548D01*
X153572D02*
X155117D01*
X241929Y56152D02*
X243474D01*
X230498D02*
X238222D01*
X226482D02*
X228336D01*
X208255D02*
X209181D01*
X199913D02*
X200840D01*
X197751D02*
X198369D01*
X190027D02*
X190645D01*
X188174D02*
X189718D01*
X185393D02*
X186629D01*
X169946D02*
X171491D01*
X158824D02*
X166857D01*
X153572D02*
X155117D01*
X241929Y55843D02*
X243474D01*
X230498D02*
X238222D01*
X226173D02*
X228027D01*
X207946D02*
X208873D01*
X199604D02*
X200531D01*
X197442D02*
X198678D01*
X188174D02*
X190645D01*
X183231D02*
X186320D01*
X169946D02*
X171800D01*
X159133D02*
X166857D01*
X153572D02*
X155426D01*
X241620Y55534D02*
X243474D01*
X230498D02*
X237913D01*
X226173D02*
X228027D01*
X207637D02*
X208564D01*
X197133D02*
X200222D01*
X187865D02*
X190027D01*
X182922D02*
X185702D01*
X170255D02*
X172109D01*
X166239D02*
X167166D01*
X159133D02*
X165930D01*
X153881D02*
X155426D01*
X241620Y55225D02*
X243165D01*
X230807D02*
X237913D01*
X225864D02*
X227718D01*
X207328D02*
X208255D01*
X198369D02*
X199604D01*
X196824D02*
X197751D01*
X188792D02*
X189718D01*
X187865D02*
X188482D01*
X183231D02*
X183848D01*
X170255D02*
X172418D01*
X166548D02*
X167166D01*
X159442D02*
X165930D01*
X153881D02*
X155735D01*
X241311Y54916D02*
X243165D01*
X231425D02*
X237604D01*
X225555D02*
X227409D01*
X207019D02*
X207946D01*
X198678D02*
X199295D01*
X196824D02*
X197442D01*
X188792D02*
X189409D01*
X183539D02*
X184157D01*
X170564D02*
X172418D01*
X166857D02*
X167475D01*
X159442D02*
X165930D01*
X154190D02*
X155735D01*
X241311Y54607D02*
X242856D01*
X231734D02*
X237604D01*
X225246D02*
X227409D01*
X206710D02*
X207637D01*
X183848D02*
X184466D01*
X170873D02*
X172727D01*
X166857D02*
X167784D01*
X159751D02*
X165621D01*
X154190D02*
X156044D01*
X241002Y54298D02*
X242856D01*
X232352D02*
X237295D01*
X229263D02*
X229572D01*
X225246D02*
X227100D01*
X206401D02*
X207328D01*
X196206D02*
X197133D01*
X184157D02*
X184775D01*
X170873D02*
X173036D01*
X167166D02*
X167784D01*
X159751D02*
X165312D01*
X154190D02*
X156044D01*
X241002Y53989D02*
X242547D01*
X232970D02*
X237295D01*
X228954D02*
X229880D01*
X224937D02*
X226791D01*
X206092D02*
X207019D01*
X194661D02*
X197442D01*
X184466D02*
X185084D01*
X171182D02*
X173036D01*
X166548D02*
X168093D01*
X160060D02*
X165003D01*
X154499D02*
X156353D01*
X240693Y53680D02*
X242547D01*
X233279D02*
X236986D01*
X228954D02*
X229880D01*
X224628D02*
X226482D01*
X205783D02*
X206710D01*
X193426D02*
X196206D01*
X184466D02*
X185702D01*
X171491D02*
X173345D01*
X166239D02*
X168401D01*
X160060D02*
X164694D01*
X154499D02*
X156353D01*
X240693Y53371D02*
X242547D01*
X233897D02*
X236986D01*
X228645D02*
X230189D01*
X224320D02*
X226482D01*
X205165D02*
X206401D01*
X193426D02*
X194661D01*
X184775D02*
X186938D01*
X171800D02*
X173653D01*
X165930D02*
X168401D01*
X160369D02*
X164385D01*
X154808D02*
X156662D01*
X240384Y53062D02*
X242238D01*
X235133D02*
X236677D01*
X234515D02*
X234823D01*
X232043D02*
X232352D01*
X228954D02*
X230189D01*
X228336D02*
X228645D01*
X224320D02*
X226173D01*
X204856D02*
X205783D01*
X193735D02*
X194970D01*
X185393D02*
X186938D01*
X171800D02*
X173962D01*
X167784D02*
X168710D01*
X165621D02*
X167475D01*
X161605D02*
X162532D01*
X160369D02*
X161296D01*
X154808D02*
X156662D01*
X240384Y52754D02*
X242238D01*
X234823D02*
X236677D01*
X232043D02*
X232661D01*
X228954D02*
X230498D01*
X224011D02*
X225864D01*
X204547D02*
X205474D01*
X194352D02*
X195588D01*
X186320D02*
X186938D01*
X172109D02*
X174271D01*
X168093D02*
X169019D01*
X165621D02*
X167166D01*
X160678D02*
X161605D01*
X155117D02*
X156971D01*
X240075Y52445D02*
X241929D01*
X234823D02*
X236368D01*
X232352D02*
X233279D01*
X229572D02*
X230498D01*
X228027D02*
X228336D01*
X223702D02*
X225555D01*
X203929D02*
X205165D01*
X194661D02*
X196206D01*
X186320D02*
X186938D01*
X172418D02*
X174580D01*
X168093D02*
X169019D01*
X165621D02*
X166548D01*
X160987D02*
X161605D01*
X155117D02*
X156971D01*
X240075Y52136D02*
X241929D01*
X234515D02*
X236059D01*
X232352D02*
X233897D01*
X229880D02*
X230807D01*
X227718D02*
X228027D01*
X223393D02*
X225555D01*
X203621D02*
X204547D01*
X195279D02*
X196515D01*
X186320D02*
X186938D01*
X172727D02*
X174580D01*
X168401D02*
X169328D01*
X165621D02*
X166239D01*
X160987D02*
X161914D01*
X155426D02*
X157280D01*
X239767Y51827D02*
X241620D01*
X234515D02*
X236059D01*
X232661D02*
X234206D01*
X230498D02*
X230807D01*
X227409D02*
X228027D01*
X223084D02*
X225246D01*
X203003D02*
X204239D01*
X195897D02*
X196515D01*
X186320D02*
X186938D01*
X173036D02*
X174889D01*
X168401D02*
X169637D01*
X164385D02*
X164694D01*
X161296D02*
X161914D01*
X155426D02*
X157280D01*
X239767Y51518D02*
X241620D01*
X232661D02*
X235750D01*
X228027D02*
X228954D01*
X227409D02*
X227718D01*
X222775D02*
X224937D01*
X202694D02*
X203621D01*
X186320D02*
X186938D01*
X173036D02*
X175198D01*
X168710D02*
X169946D01*
X168093D02*
X168401D01*
X162532D02*
X164694D01*
X161296D02*
X162223D01*
X155735D02*
X157589D01*
X239458Y51209D02*
X241311D01*
X232970D02*
X235750D01*
X227100D02*
X229263D01*
X222466D02*
X224628D01*
X202076D02*
X203312D01*
X186320D02*
X186938D01*
X173345D02*
X175507D01*
X167475D02*
X169946D01*
X162532D02*
X164694D01*
X161605D02*
X162223D01*
X155735D02*
X157589D01*
X239458Y50900D02*
X241002D01*
X232970D02*
X235441D01*
X226791D02*
X229880D01*
X222157D02*
X224320D01*
X201458D02*
X202694D01*
X186320D02*
X186938D01*
X173653D02*
X175816D01*
X166857D02*
X170255D01*
X161605D02*
X164076D01*
X156044D02*
X157897D01*
X239149Y50591D02*
X241002D01*
X233279D02*
X235133D01*
X226482D02*
X230498D01*
X221848D02*
X224011D01*
X200840D02*
X202076D01*
X186320D02*
X186938D01*
X173962D02*
X176125D01*
X169328D02*
X170564D01*
X166548D02*
X169019D01*
X163149D02*
X163458D01*
X161914D02*
X162840D01*
X156044D02*
X157897D01*
X238840Y50282D02*
X240693D01*
X233279D02*
X235133D01*
X226173D02*
X230807D01*
X221539D02*
X223702D01*
X200222D02*
X201767D01*
X186320D02*
X186629D01*
X174271D02*
X176434D01*
X169637D02*
X170873D01*
X165930D02*
X168710D01*
X162223D02*
X162840D01*
X156353D02*
X158206D01*
X238840Y49973D02*
X240693D01*
X233279D02*
X234823D01*
X226791D02*
X231425D01*
X226173D02*
X226482D01*
X221230D02*
X223393D01*
X199604D02*
X201149D01*
X189409D02*
X189718D01*
X186011D02*
X186629D01*
X174580D02*
X176743D01*
X169946D02*
X171182D01*
X165312D02*
X168401D01*
X162223D02*
X163149D01*
X156662D02*
X158515D01*
X238531Y49664D02*
X240384D01*
X232970D02*
X234515D01*
X226791D02*
X232043D01*
X225864D02*
X226173D01*
X220921D02*
X223393D01*
X198986D02*
X200222D01*
X189100D02*
X189718D01*
X186011D02*
X186629D01*
X174889D02*
X177052D01*
X170255D02*
X171491D01*
X165003D02*
X168093D01*
X162532D02*
X163149D01*
X156662D02*
X158515D01*
X238531Y49355D02*
X240384D01*
X232970D02*
X234515D01*
X227409D02*
X232661D01*
X225555D02*
X225864D01*
X220612D02*
X222775D01*
X198369D02*
X199604D01*
X189100D02*
X190027D01*
X186011D02*
X186629D01*
X175198D02*
X177670D01*
X170564D02*
X171800D01*
X164385D02*
X168710D01*
X162840D02*
X163458D01*
X156971D02*
X158824D01*
X238222Y49046D02*
X240075D01*
X228027D02*
X234206D01*
X225246D02*
X225864D01*
X220303D02*
X222466D01*
X198060D02*
X198986D01*
X190954D02*
X191572D01*
X189100D02*
X190336D01*
X186011D02*
X186629D01*
X175507D02*
X177979D01*
X170564D02*
X172109D01*
X164076D02*
X169019D01*
X162840D02*
X163767D01*
X156971D02*
X158824D01*
X237913Y48737D02*
X239767D01*
X228645D02*
X233897D01*
X224937D02*
X225555D01*
X219994D02*
X222157D01*
X197442D02*
X198678D01*
X190645D02*
X191263D01*
X189100D02*
X190336D01*
X186320D02*
X186629D01*
X175816D02*
X178287D01*
X170873D02*
X172109D01*
X168093D02*
X169328D01*
X164076D02*
X167784D01*
X163149D02*
X163767D01*
X157280D02*
X159133D01*
X237913Y48428D02*
X239767D01*
X229263D02*
X233897D01*
X224628D02*
X225246D01*
X219376D02*
X221848D01*
X196824D02*
X198060D01*
X188792D02*
X190954D01*
X186320D02*
X186938D01*
X176125D02*
X178596D01*
X171182D02*
X172418D01*
X168401D02*
X169637D01*
X163458D02*
X167475D01*
X157589D02*
X159442D01*
X237604Y48120D02*
X239458D01*
X229880D02*
X233588D01*
X227100D02*
X227409D01*
X224320D02*
X225246D01*
X219068D02*
X221539D01*
X196206D02*
X197442D01*
X189100D02*
X190645D01*
X186320D02*
X186938D01*
X176434D02*
X178905D01*
X171491D02*
X172727D01*
X168401D02*
X169946D01*
X166548D02*
X167166D01*
X163458D02*
X165930D01*
X157589D02*
X159442D01*
X237604Y47811D02*
X239458D01*
X230498D02*
X233279D01*
X227409D02*
X228027D01*
X224011D02*
X225555D01*
X218759D02*
X221230D01*
X195897D02*
X196824D01*
X189409D02*
X190336D01*
X186320D02*
X186938D01*
X176743D02*
X179523D01*
X171800D02*
X173036D01*
X168710D02*
X169328D01*
X166239D02*
X167166D01*
X163767D02*
X165621D01*
X157897D02*
X159751D01*
X237295Y47502D02*
X239149D01*
X231734D02*
X232970D01*
X231116D02*
X231425D01*
X227409D02*
X228645D01*
X223702D02*
X225555D01*
X218141D02*
X220921D01*
X195279D02*
X196515D01*
X189409D02*
X190027D01*
X186320D02*
X186938D01*
X177361D02*
X179832D01*
X171800D02*
X173345D01*
X166239D02*
X167475D01*
X164076D02*
X165312D01*
X158206D02*
X160060D01*
X236986Y47193D02*
X238840D01*
X231425D02*
X232970D01*
X227718D02*
X228645D01*
X223393D02*
X225864D01*
X217832D02*
X220303D01*
X194661D02*
X195897D01*
X189409D02*
X190027D01*
X186320D02*
X186938D01*
X177670D02*
X180141D01*
X171182D02*
X173653D01*
X166548D02*
X167784D01*
X164385D02*
X165003D01*
X158206D02*
X160060D01*
X236677Y46884D02*
X238840D01*
X231116D02*
X232661D01*
X228027D02*
X228336D01*
X223084D02*
X226173D01*
X217523D02*
X219994D01*
X194044D02*
X195279D01*
X186320D02*
X186938D01*
X177979D02*
X180759D01*
X170564D02*
X174271D01*
X166857D02*
X168093D01*
X164694D02*
X165312D01*
X158515D02*
X160369D01*
X236677Y46575D02*
X238531D01*
X231116D02*
X232352D01*
X229572D02*
X230498D01*
X222775D02*
X226482D01*
X216905D02*
X219686D01*
X198678D02*
X199913D01*
X193426D02*
X194661D01*
X186320D02*
X186938D01*
X178287D02*
X181068D01*
X172727D02*
X174580D01*
X170255D02*
X172109D01*
X166857D02*
X168093D01*
X164694D02*
X165312D01*
X158824D02*
X160678D01*
X236368Y46266D02*
X238222D01*
X230807D02*
X232043D01*
X229263D02*
X230498D01*
X222466D02*
X226482D01*
X216596D02*
X219376D01*
X198986D02*
X200531D01*
X198060D02*
X198369D01*
X192499D02*
X194044D01*
X186629D02*
X187247D01*
X178905D02*
X181686D01*
X173345D02*
X174889D01*
X169946D02*
X171800D01*
X167166D02*
X167475D01*
X165003D02*
X165621D01*
X158824D02*
X160987D01*
X236059Y45957D02*
X237913D01*
X228954D02*
X232043D01*
X221848D02*
X226791D01*
X215978D02*
X218759D01*
X199604D02*
X200531D01*
X191881D02*
X193426D01*
X186629D02*
X187247D01*
X179214D02*
X181995D01*
X173653D02*
X175198D01*
X169637D02*
X171491D01*
X165312D02*
X165930D01*
X159133D02*
X160987D01*
X235750Y45648D02*
X237913D01*
X228954D02*
X231734D01*
X224011D02*
X227100D01*
X221539D02*
X222466D01*
X215360D02*
X218450D01*
X199913D02*
X200840D01*
X190645D02*
X192808D01*
X186629D02*
X187247D01*
X179523D02*
X182613D01*
X173962D02*
X175507D01*
X171491D02*
X172109D01*
X169019D02*
X171182D01*
X165621D02*
X166239D01*
X159442D02*
X161296D01*
X235750Y45339D02*
X237604D01*
X229880D02*
X231425D01*
X229263D02*
X229572D01*
X224320D02*
X227409D01*
X221230D02*
X222157D01*
X215051D02*
X218141D01*
X200222D02*
X200840D01*
X189409D02*
X191881D01*
X186629D02*
X187556D01*
X180141D02*
X183231D01*
X174271D02*
X175816D01*
X168710D02*
X172418D01*
X165930D02*
X166548D01*
X159442D02*
X161605D01*
X235441Y45030D02*
X237295D01*
X229572D02*
X231116D01*
X224628D02*
X227718D01*
X220921D02*
X221848D01*
X214434D02*
X217523D01*
X200222D02*
X201149D01*
X196515D02*
X196824D01*
X186938D02*
X190645D01*
X180450D02*
X183848D01*
X174580D02*
X176434D01*
X168401D02*
X172727D01*
X166239D02*
X166857D01*
X159751D02*
X161914D01*
X235133Y44721D02*
X237295D01*
X229572D02*
X230807D01*
X224937D02*
X227718D01*
X220303D02*
X221539D01*
X213816D02*
X216905D01*
X200222D02*
X201149D01*
X196206D02*
X197133D01*
X187247D02*
X189409D01*
X181068D02*
X184466D01*
X174889D02*
X176743D01*
X168093D02*
X172418D01*
X166548D02*
X166857D01*
X160060D02*
X161914D01*
X234823Y44412D02*
X236986D01*
X229263D02*
X230498D01*
X224937D02*
X228027D01*
X222775D02*
X223393D01*
X219994D02*
X221230D01*
X212889D02*
X216596D01*
X200222D02*
X201149D01*
X196206D02*
X197133D01*
X181686D02*
X185084D01*
X175198D02*
X177052D01*
X167784D02*
X172109D01*
X166548D02*
X167166D01*
X160369D02*
X162223D01*
X234515Y44103D02*
X236677D01*
X228954D02*
X230189D01*
X225246D02*
X228336D01*
X222466D02*
X223393D01*
X219686D02*
X220612D01*
X212271D02*
X215978D01*
X200222D02*
X201149D01*
X196515D02*
X196824D01*
X181995D02*
X185702D01*
X175507D02*
X177670D01*
X167784D02*
X171800D01*
X166857D02*
X167475D01*
X160369D02*
X162532D01*
X234515Y43794D02*
X236368D01*
X228645D02*
X229880D01*
X225246D02*
X228336D01*
X222157D02*
X223702D01*
X219068D02*
X220303D01*
X211653D02*
X215360D01*
X200222D02*
X201149D01*
X182613D02*
X186320D01*
X175816D02*
X177979D01*
X173653D02*
X174271D01*
X167166D02*
X171491D01*
X160678D02*
X162840D01*
X234206Y43485D02*
X236059D01*
X225246D02*
X229572D01*
X221848D02*
X223393D01*
X218759D02*
X220612D01*
X210726D02*
X214742D01*
X199913D02*
X200840D01*
X183231D02*
X187247D01*
X175507D02*
X178287D01*
X173345D02*
X174580D01*
X167475D02*
X171491D01*
X160987D02*
X163149D01*
X233897Y43176D02*
X236059D01*
X226173D02*
X229263D01*
X224937D02*
X225864D01*
X221539D02*
X222775D01*
X218141D02*
X220921D01*
X210108D02*
X214124D01*
X199604D02*
X200531D01*
X183848D02*
X188174D01*
X175198D02*
X178905D01*
X173036D02*
X174580D01*
X167784D02*
X171182D01*
X161296D02*
X163458D01*
X233588Y42867D02*
X235750D01*
X226482D02*
X228954D01*
X224628D02*
X225864D01*
X221539D02*
X222466D01*
X219376D02*
X220921D01*
X217832D02*
X219068D01*
X209181D02*
X213507D01*
X198986D02*
X200531D01*
X198060D02*
X198369D01*
X184466D02*
X188792D01*
X174889D02*
X179523D01*
X172727D02*
X174580D01*
X168093D02*
X170873D01*
X161605D02*
X163767D01*
X233279Y42559D02*
X235441D01*
X226791D02*
X228645D01*
X224320D02*
X225555D01*
X221539D02*
X222466D01*
X219376D02*
X221230D01*
X217214D02*
X218759D01*
X208255D02*
X212889D01*
X198678D02*
X199913D01*
X185393D02*
X190027D01*
X172418D02*
X179832D01*
X168401D02*
X170564D01*
X161914D02*
X164076D01*
X232970Y42250D02*
X235133D01*
X226791D02*
X228336D01*
X223702D02*
X225246D01*
X219376D02*
X222157D01*
X216596D02*
X218141D01*
X207019D02*
X212271D01*
X186011D02*
X190954D01*
X177979D02*
X180450D01*
X172109D02*
X177670D01*
X168710D02*
X170255D01*
X161914D02*
X164076D01*
X232661Y41941D02*
X234823D01*
X226791D02*
X228027D01*
X223702D02*
X224937D01*
X219686D02*
X222157D01*
X215978D02*
X217832D01*
X205783D02*
X211344D01*
X186629D02*
X192190D01*
X178596D02*
X181068D01*
X171800D02*
X177979D01*
X169019D02*
X169637D01*
X162223D02*
X164385D01*
X232352Y41632D02*
X234515D01*
X226482D02*
X227718D01*
X224011D02*
X224628D01*
X219994D02*
X222157D01*
X217832D02*
X218141D01*
X215669D02*
X217523D01*
X203929D02*
X210417D01*
X187556D02*
X194044D01*
X178905D02*
X181686D01*
X171800D02*
X177979D01*
X169637D02*
X169946D01*
X162532D02*
X164694D01*
X232043Y41323D02*
X234206D01*
X226173D02*
X227409D01*
X219994D02*
X222157D01*
X215051D02*
X218141D01*
X201149D02*
X209490D01*
X188482D02*
X196824D01*
X179523D02*
X182304D01*
X171491D02*
X177670D01*
X169946D02*
X170255D01*
X162840D02*
X165003D01*
X231734Y41014D02*
X233897D01*
X225864D02*
X227100D01*
X220303D02*
X222466D01*
X216905D02*
X218450D01*
X214434D02*
X216596D01*
X189409D02*
X208564D01*
X179832D02*
X182922D01*
X171182D02*
X177361D01*
X170255D02*
X170564D01*
X163149D02*
X165312D01*
X231425Y40705D02*
X233588D01*
X225555D02*
X226791D01*
X220612D02*
X222775D01*
X216596D02*
X218759D01*
X213507D02*
X215978D01*
X190645D02*
X207637D01*
X179214D02*
X183539D01*
X171182D02*
X177361D01*
X170564D02*
X170873D01*
X163458D02*
X165621D01*
X231116Y40396D02*
X233588D01*
X224937D02*
X226482D01*
X220612D02*
X223084D01*
X216905D02*
X219068D01*
X212889D02*
X215360D01*
X191881D02*
X206401D01*
X181068D02*
X184157D01*
X178905D02*
X180450D01*
X170873D02*
X177052D01*
X163767D02*
X165930D01*
X230807Y40087D02*
X233279D01*
X224628D02*
X225864D01*
X220921D02*
X223393D01*
X216905D02*
X219068D01*
X212271D02*
X214742D01*
X193426D02*
X204547D01*
X181686D02*
X184775D01*
X178596D02*
X180450D01*
X174271D02*
X176743D01*
X171182D02*
X173962D01*
X164076D02*
X166239D01*
X230498Y39778D02*
X232970D01*
X221230D02*
X225555D01*
X217214D02*
X219376D01*
X211344D02*
X214124D01*
X195588D02*
X202385D01*
X182304D02*
X185702D01*
X178596D02*
X180141D01*
X174271D02*
X176743D01*
X171800D02*
X173653D01*
X164385D02*
X166548D01*
X230189Y39469D02*
X232661D01*
X221230D02*
X225246D01*
X217214D02*
X219686D01*
X210726D02*
X213507D01*
X182922D02*
X186629D01*
X178287D02*
X180141D01*
X174271D02*
X176434D01*
X172109D02*
X173653D01*
X164694D02*
X166857D01*
X229880Y39160D02*
X232043D01*
X221539D02*
X224937D01*
X217523D02*
X219686D01*
X215360D02*
X215669D01*
X209799D02*
X213198D01*
X183539D02*
X187556D01*
X180141D02*
X180759D01*
X177979D02*
X179832D01*
X174889D02*
X176125D01*
X172418D02*
X173345D01*
X165003D02*
X167475D01*
X229572Y38851D02*
X231734D01*
X221848D02*
X224320D01*
X217523D02*
X219994D01*
X215051D02*
X215978D01*
X208873D02*
X213198D01*
X184157D02*
X188482D01*
X177670D02*
X181686D01*
X175198D02*
X176125D01*
X172727D02*
X173345D01*
X165312D02*
X167784D01*
X229263Y38542D02*
X231425D01*
X222466D02*
X224011D01*
X217832D02*
X220303D01*
X214434D02*
X215978D01*
X207637D02*
X213507D01*
X184466D02*
X189718D01*
X183848D02*
X184157D01*
X177670D02*
X182304D01*
X175507D02*
X175816D01*
X173345D02*
X173653D01*
X165621D02*
X168093D01*
X228645Y38233D02*
X231116D01*
X222466D02*
X223393D01*
X217832D02*
X220303D01*
X214124D02*
X215978D01*
X206092D02*
X213507D01*
X183848D02*
X190954D01*
X180450D02*
X181995D01*
X177361D02*
X180141D01*
X173653D02*
X173962D01*
X165930D02*
X168401D01*
X228336Y37925D02*
X230807D01*
X221848D02*
X223084D01*
X218141D02*
X220612D01*
X214124D02*
X215360D01*
X204547D02*
X213816D01*
X186938D02*
X192808D01*
X183539D02*
X185393D01*
X181068D02*
X181995D01*
X177052D02*
X180141D01*
X174271D02*
X174580D01*
X166239D02*
X168710D01*
X228027Y37615D02*
X230498D01*
X221539D02*
X222466D01*
X218450D02*
X220921D01*
X201458D02*
X214742D01*
X187865D02*
X195588D01*
X183539D02*
X185084D01*
X177052D02*
X179832D01*
X174580D02*
X174889D01*
X166548D02*
X169019D01*
X227718Y37307D02*
X230189D01*
X220921D02*
X222157D01*
X218450D02*
X220612D01*
X216596D02*
X216905D01*
X208564D02*
X214742D01*
X188792D02*
X207328D01*
X183231D02*
X184775D01*
X176743D02*
X179832D01*
X175198D02*
X175507D01*
X167166D02*
X169637D01*
X227100Y36998D02*
X229880D01*
X218759D02*
X221539D01*
X215978D02*
X216905D01*
X209181D02*
X215051D01*
X189718D02*
X206401D01*
X183231D02*
X184775D01*
X179214D02*
X180450D01*
X176434D02*
X178905D01*
X175507D02*
X175816D01*
X167475D02*
X169946D01*
X226791Y36689D02*
X229572D01*
X218759D02*
X221230D01*
X215669D02*
X217214D01*
X209490D02*
X215051D01*
X189100D02*
X205474D01*
X186320D02*
X186938D01*
X182922D02*
X184466D01*
X178905D02*
X181068D01*
X176743D02*
X178596D01*
X167784D02*
X170255D01*
X226482Y36380D02*
X228954D01*
X219376D02*
X220612D01*
X209490D02*
X217214D01*
X203621D02*
X205474D01*
X189100D02*
X202694D01*
X186011D02*
X187556D01*
X182922D02*
X184466D01*
X179214D02*
X181068D01*
X176743D02*
X178596D01*
X168093D02*
X170873D01*
X225864Y36071D02*
X228645D01*
X219068D02*
X219994D01*
X209490D02*
X217523D01*
X207328D02*
X207946D01*
X203312D02*
X205474D01*
X195588D02*
X201149D01*
X189100D02*
X193735D01*
X186011D02*
X187556D01*
X182613D02*
X184466D01*
X179832D02*
X181068D01*
X177052D02*
X178287D01*
X168401D02*
X171182D01*
X225555Y35762D02*
X228336D01*
X218450D02*
X219376D01*
X209799D02*
X217523D01*
X206401D02*
X208255D01*
X203312D02*
X205783D01*
X198678D02*
X200840D01*
X195279D02*
X197133D01*
X188792D02*
X194044D01*
X186011D02*
X187247D01*
X182613D02*
X184466D01*
X180450D02*
X180759D01*
X177670D02*
X178287D01*
X169019D02*
X171491D01*
X225246Y35453D02*
X227718D01*
X218141D02*
X219068D01*
X209799D02*
X217523D01*
X206092D02*
X208255D01*
X203312D02*
X205783D01*
X198369D02*
X200840D01*
X195279D02*
X196824D01*
X188792D02*
X194044D01*
X185702D02*
X187247D01*
X182304D02*
X184157D01*
X169328D02*
X172109D01*
X224628Y35144D02*
X227409D01*
X209799D02*
X218450D01*
X206092D02*
X208255D01*
X203621D02*
X205783D01*
X198369D02*
X200840D01*
X195279D02*
X196515D01*
X188792D02*
X194044D01*
X185702D02*
X187247D01*
X182304D02*
X184157D01*
X169637D02*
X172418D01*
X224320Y34835D02*
X227100D01*
X210108D02*
X217832D01*
X203621D02*
X208255D01*
X198369D02*
X200840D01*
X195279D02*
X196206D01*
X188482D02*
X194044D01*
X186011D02*
X186938D01*
X181995D02*
X184466D01*
X170255D02*
X173036D01*
X223702Y34526D02*
X226482D01*
X210108D02*
X217214D01*
X203621D02*
X208564D01*
X198060D02*
X200840D01*
X195279D02*
X196206D01*
X188482D02*
X194044D01*
X181995D02*
X184466D01*
X170564D02*
X173345D01*
X223084Y34217D02*
X226173D01*
X210108D02*
X216596D01*
X203929D02*
X208564D01*
X202385D02*
X202694D01*
X198060D02*
X200840D01*
X194970D02*
X195897D01*
X188482D02*
X194044D01*
X181686D02*
X184775D01*
X170873D02*
X173962D01*
X222775Y33908D02*
X225864D01*
X210108D02*
X215669D01*
X203929D02*
X208564D01*
X202385D02*
X202694D01*
X198060D02*
X200840D01*
X194970D02*
X195588D01*
X188174D02*
X194044D01*
X181995D02*
X185393D01*
X171491D02*
X174580D01*
X222157Y33599D02*
X225246D01*
X210417D02*
X215051D01*
X203929D02*
X208873D01*
X202076D02*
X202694D01*
X198060D02*
X200840D01*
X194970D02*
X195279D01*
X188174D02*
X194044D01*
X182304D02*
X186320D01*
X171800D02*
X174889D01*
X221539Y33290D02*
X224628D01*
X210417D02*
X214124D01*
X204239D02*
X208873D01*
X202076D02*
X203003D01*
X198060D02*
X200531D01*
X188174D02*
X194044D01*
X182922D02*
X186629D01*
X172418D02*
X175507D01*
X221230Y32981D02*
X224320D01*
X210108D02*
X213507D01*
X206710D02*
X208564D01*
X204239D02*
X206401D01*
X202076D02*
X203003D01*
X198060D02*
X200531D01*
X196824D02*
X197133D01*
X187865D02*
X194044D01*
X183848D02*
X186320D01*
X173036D02*
X176125D01*
X220612Y32673D02*
X223702D01*
X210108D02*
X212580D01*
X204239D02*
X206401D01*
X198060D02*
X200531D01*
X196515D02*
X197133D01*
X187865D02*
X194044D01*
X184775D02*
X186320D01*
X173345D02*
X176743D01*
X219994Y32364D02*
X223393D01*
X209799D02*
X211653D01*
X204547D02*
X206710D01*
X198060D02*
X200531D01*
X196206D02*
X196824D01*
X187865D02*
X193735D01*
X173962D02*
X177361D01*
X219376Y32055D02*
X222775D01*
X209490D02*
X210726D01*
X204547D02*
X206710D01*
X198060D02*
X200531D01*
X195897D02*
X196824D01*
X187865D02*
X193735D01*
X174580D02*
X177979D01*
X218759Y31746D02*
X222157D01*
X208564D02*
X209490D01*
X204547D02*
X206710D01*
X202385D02*
X203621D01*
X198060D02*
X200531D01*
X195897D02*
X196824D01*
X188174D02*
X193735D01*
X174889D02*
X178596D01*
X217832Y31437D02*
X221539D01*
X207328D02*
X208255D01*
X204856D02*
X207019D01*
X202076D02*
X203621D01*
X198060D02*
X200531D01*
X195588D02*
X196824D01*
X189409D02*
X193735D01*
X175507D02*
X179214D01*
X217214Y31128D02*
X220921D01*
X205165D02*
X206710D01*
X201767D02*
X203621D01*
X198060D02*
X200531D01*
X195279D02*
X196824D01*
X190645D02*
X193735D01*
X176125D02*
X179832D01*
X216596Y30819D02*
X220303D01*
X203929D02*
X204547D01*
X202385D02*
X203312D01*
X198060D02*
X200222D01*
X194970D02*
X196824D01*
X192499D02*
X193735D01*
X176743D02*
X180450D01*
X215669Y30510D02*
X219994D01*
X177361D02*
X181377D01*
X215051Y30201D02*
X219068D01*
X177979D02*
X182304D01*
X214124Y29892D02*
X218450D01*
X178596D02*
X183231D01*
X213198Y29583D02*
X217832D01*
X179523D02*
X183848D01*
X212271Y29274D02*
X216905D01*
X180141D02*
X185084D01*
X211035Y28965D02*
X216287D01*
X181068D02*
X186011D01*
X209799Y28656D02*
X215360D01*
X181686D02*
X187247D01*
X208564Y28347D02*
X214434D01*
X182613D02*
X188482D01*
X207019Y28038D02*
X213507D01*
X183539D02*
X190027D01*
X205165Y27729D02*
X212580D01*
X184466D02*
X192190D01*
X201767Y27420D02*
X211653D01*
X185393D02*
X195279D01*
X186629Y27112D02*
X210726D01*
X187865Y26803D02*
X209181D01*
X189409Y26494D02*
X207946D01*
X191263Y26185D02*
X206092D01*
X193735Y25876D02*
X203621D01*
D39*
X91145Y122884D02*
X97887D01*
X89460Y122673D02*
X99783D01*
X88196Y122462D02*
X101047D01*
X86721Y122252D02*
X102311D01*
X96833Y122041D02*
X103996D01*
X85246D02*
X92198D01*
X99361Y121830D02*
X105050D01*
X83982D02*
X89881D01*
X100836Y121620D02*
X105893D01*
X83139D02*
X88196D01*
X102311Y121409D02*
X106525D01*
X82507D02*
X86721D01*
X103786Y121198D02*
X107367D01*
X81664D02*
X85246D01*
X104839Y120988D02*
X108210D01*
X80822D02*
X84193D01*
X105471Y120777D02*
X109053D01*
X79979D02*
X83561D01*
X106314Y120566D02*
X109896D01*
X79347D02*
X82718D01*
X107157Y120355D02*
X110317D01*
X78715D02*
X81875D01*
X108210Y120145D02*
X110949D01*
X78294D02*
X81032D01*
X109053Y119934D02*
X111370D01*
X77662D02*
X80190D01*
X109474Y119723D02*
X112002D01*
X77029D02*
X79558D01*
X110106Y119513D02*
X112634D01*
X76397D02*
X79136D01*
X110528Y119302D02*
X113266D01*
X75765D02*
X78504D01*
X111160Y119091D02*
X113688D01*
X75344D02*
X77872D01*
X111792Y118881D02*
X114320D01*
X74923D02*
X77240D01*
X112424Y118670D02*
X114741D01*
X74501D02*
X76608D01*
X112845Y118459D02*
X115162D01*
X73869D02*
X76187D01*
X113477Y118249D02*
X115584D01*
X73448D02*
X75555D01*
X113898Y118038D02*
X116005D01*
X100204D02*
X101047D01*
X73027D02*
X75133D01*
X114530Y117827D02*
X116427D01*
X100204D02*
X101047D01*
X72605D02*
X74712D01*
X114952Y117617D02*
X116848D01*
X100204D02*
X101047D01*
X72184D02*
X74291D01*
X115373Y117406D02*
X117269D01*
X103996D02*
X104839D01*
X100204D02*
X101047D01*
X71763D02*
X73659D01*
X115795Y117195D02*
X117901D01*
X103996D02*
X104839D01*
X100204D02*
X101047D01*
X71341D02*
X73448D01*
X116216Y116985D02*
X118323D01*
X105471D02*
X106314D01*
X103996D02*
X104839D01*
X100204D02*
X101047D01*
X70920D02*
X73027D01*
X116637Y116774D02*
X118533D01*
X105471D02*
X106314D01*
X103996D02*
X104839D01*
X100204D02*
X101047D01*
X98308D02*
X98940D01*
X92409D02*
X94095D01*
X70498D02*
X72395D01*
X117059Y116563D02*
X118955D01*
X105471D02*
X106314D01*
X100204D02*
X100836D01*
X97676D02*
X99361D01*
X91988D02*
X94516D01*
X70288D02*
X71973D01*
X117480Y116353D02*
X119165D01*
X105682D02*
X106103D01*
X100204D02*
X100836D01*
X97465D02*
X99783D01*
X91777D02*
X94727D01*
X88617D02*
X89460D01*
X69866D02*
X71552D01*
X117901Y116142D02*
X119587D01*
X97255D02*
X100836D01*
X93884D02*
X94937D01*
X91566D02*
X92620D01*
X88828D02*
X89460D01*
X86721D02*
X88406D01*
X79768D02*
X80400D01*
X69445D02*
X71130D01*
X118323Y115931D02*
X120008D01*
X102943D02*
X103575D01*
X99361D02*
X100836D01*
X97255D02*
X98097D01*
X94095D02*
X95148D01*
X91566D02*
X92409D01*
X86299D02*
X89670D01*
X79768D02*
X80400D01*
X69234D02*
X70920D01*
X118533Y115721D02*
X120429D01*
X109263D02*
X110106D01*
X102943D02*
X103575D01*
X99572D02*
X100836D01*
X97044D02*
X97887D01*
X94305D02*
X95148D01*
X91356D02*
X92198D01*
X87985D02*
X89670D01*
X86089D02*
X87563D01*
X79768D02*
X80611D01*
X68813D02*
X70498D01*
X118955Y115510D02*
X120640D01*
X109053D02*
X110317D01*
X102732D02*
X103575D01*
X99783D02*
X100836D01*
X97044D02*
X97887D01*
X94516D02*
X95359D01*
X91356D02*
X92198D01*
X88406D02*
X89670D01*
X86089D02*
X87142D01*
X79768D02*
X80611D01*
X68392D02*
X70077D01*
X119376Y115299D02*
X121062D01*
X109053D02*
X110528D01*
X102732D02*
X103575D01*
X99783D02*
X100836D01*
X97044D02*
X97887D01*
X94516D02*
X95359D01*
X91356D02*
X91988D01*
X88617D02*
X89670D01*
X86089D02*
X86931D01*
X79768D02*
X80611D01*
X68181D02*
X69656D01*
X119587Y115088D02*
X121272D01*
X109053D02*
X110528D01*
X105893D02*
X106525D01*
X102732D02*
X103575D01*
X99993D02*
X100836D01*
X96833D02*
X97676D01*
X94516D02*
X95359D01*
X91356D02*
X91988D01*
X88828D02*
X89670D01*
X85878D02*
X86721D01*
X82086D02*
X83350D01*
X79979D02*
X80611D01*
X77240D02*
X77872D01*
X67760D02*
X69445D01*
X120008Y114878D02*
X121694D01*
X108842D02*
X110528D01*
X105682D02*
X106525D01*
X102732D02*
X103575D01*
X99993D02*
X100626D01*
X96833D02*
X97676D01*
X91356D02*
X95359D01*
X88828D02*
X89670D01*
X85878D02*
X86721D01*
X81664D02*
X83771D01*
X79979D02*
X80822D01*
X77029D02*
X77872D01*
X67338D02*
X69024D01*
X120429Y114667D02*
X122115D01*
X108842D02*
X110528D01*
X105682D02*
X106525D01*
X102522D02*
X103364D01*
X99993D02*
X100626D01*
X96833D02*
X97676D01*
X91356D02*
X95359D01*
X89038D02*
X89670D01*
X85878D02*
X86721D01*
X81454D02*
X83982D01*
X79979D02*
X80822D01*
X77029D02*
X77872D01*
X67128D02*
X68813D01*
X120640Y114456D02*
X122326D01*
X108631D02*
X110528D01*
X105682D02*
X106525D01*
X102522D02*
X103364D01*
X99993D02*
X100626D01*
X96833D02*
X97676D01*
X91356D02*
X95359D01*
X89038D02*
X89881D01*
X86089D02*
X86721D01*
X82929D02*
X84193D01*
X81243D02*
X82086D01*
X80190D02*
X80822D01*
X77240D02*
X77872D01*
X66706D02*
X68392D01*
X121062Y114246D02*
X122747D01*
X113266D02*
X113477D01*
X109685D02*
X110528D01*
X108631D02*
X109474D01*
X105682D02*
X106314D01*
X102522D02*
X103364D01*
X99993D02*
X100626D01*
X96833D02*
X97676D01*
X94516D02*
X95359D01*
X89038D02*
X89881D01*
X86089D02*
X86721D01*
X83350D02*
X84403D01*
X80190D02*
X81875D01*
X66496D02*
X67970D01*
X121483Y114035D02*
X122958D01*
X113056D02*
X114109D01*
X109685D02*
X110528D01*
X108421D02*
X109474D01*
X105682D02*
X106314D01*
X102522D02*
X103364D01*
X99993D02*
X100626D01*
X96833D02*
X97676D01*
X94516D02*
X95359D01*
X89038D02*
X89881D01*
X86089D02*
X86721D01*
X83561D02*
X84403D01*
X80190D02*
X81664D01*
X66074D02*
X67760D01*
X121694Y113824D02*
X123379D01*
X112845D02*
X114320D01*
X109685D02*
X110528D01*
X108421D02*
X109263D01*
X105471D02*
X106314D01*
X102311D02*
X103154D01*
X99783D02*
X100626D01*
X96833D02*
X97676D01*
X94516D02*
X95359D01*
X89249D02*
X89881D01*
X86089D02*
X86721D01*
X83561D02*
X84403D01*
X80190D02*
X81454D01*
X65863D02*
X67338D01*
X122115Y113614D02*
X123590D01*
X112634D02*
X114320D01*
X109685D02*
X110528D01*
X108210D02*
X109263D01*
X105471D02*
X106314D01*
X102311D02*
X103154D01*
X99783D02*
X100626D01*
X96833D02*
X97676D01*
X94516D02*
X95359D01*
X89249D02*
X89881D01*
X86089D02*
X86931D01*
X83771D02*
X84614D01*
X80400D02*
X81454D01*
X65653D02*
X67128D01*
X122326Y113403D02*
X123800D01*
X112424D02*
X114320D01*
X109685D02*
X110317D01*
X108210D02*
X109263D01*
X105471D02*
X106103D01*
X102311D02*
X103154D01*
X99783D02*
X100626D01*
X96833D02*
X97465D01*
X94305D02*
X95359D01*
X89249D02*
X89881D01*
X86089D02*
X86931D01*
X83771D02*
X84614D01*
X80400D02*
X81454D01*
X77662D02*
X78504D01*
X65231D02*
X66706D01*
X122536Y113192D02*
X124011D01*
X113266D02*
X114109D01*
X112213D02*
X113056D01*
X109685D02*
X110317D01*
X108210D02*
X109053D01*
X105471D02*
X106103D01*
X102311D02*
X103154D01*
X99783D02*
X100626D01*
X96833D02*
X97465D01*
X94095D02*
X95148D01*
X89249D02*
X89881D01*
X86089D02*
X86931D01*
X83982D02*
X84825D01*
X80400D02*
X81454D01*
X77662D02*
X78504D01*
X65021D02*
X66496D01*
X122958Y112982D02*
X124432D01*
X112002D02*
X114109D01*
X109685D02*
X110317D01*
X107999D02*
X109053D01*
X105261D02*
X106103D01*
X102311D02*
X102943D01*
X99783D02*
X100415D01*
X96623D02*
X97465D01*
X93884D02*
X94937D01*
X91566D02*
X91988D01*
X89249D02*
X90092D01*
X86089D02*
X86931D01*
X83982D02*
X84825D01*
X80611D02*
X81454D01*
X77872D02*
X78715D01*
X64810D02*
X66285D01*
X123168Y112771D02*
X124643D01*
X113056D02*
X113898D01*
X111792D02*
X112845D01*
X109685D02*
X110317D01*
X107999D02*
X108842D01*
X105261D02*
X106103D01*
X102100D02*
X103154D01*
X99783D02*
X100415D01*
X96623D02*
X97465D01*
X91566D02*
X94727D01*
X89249D02*
X90092D01*
X86299D02*
X86931D01*
X83982D02*
X84825D01*
X80611D02*
X81454D01*
X77872D02*
X78715D01*
X64389D02*
X65863D01*
X123379Y112560D02*
X125064D01*
X113056D02*
X113898D01*
X111581D02*
X112634D01*
X109685D02*
X110317D01*
X107999D02*
X108842D01*
X105261D02*
X106103D01*
X102100D02*
X103154D01*
X99783D02*
X100415D01*
X96623D02*
X97465D01*
X91566D02*
X94516D01*
X89249D02*
X90092D01*
X86299D02*
X87142D01*
X83982D02*
X84825D01*
X80611D02*
X81454D01*
X77872D02*
X78715D01*
X64178D02*
X65653D01*
X123800Y112350D02*
X125275D01*
X112845D02*
X113898D01*
X111370D02*
X112424D01*
X109685D02*
X110317D01*
X107789D02*
X108631D01*
X105050D02*
X105893D01*
X102100D02*
X103154D01*
X99783D02*
X100415D01*
X96833D02*
X97255D01*
X91988D02*
X94095D01*
X89460D02*
X90092D01*
X86299D02*
X87142D01*
X83982D02*
X84825D01*
X80822D02*
X81664D01*
X78083D02*
X78926D01*
X75555D02*
X75765D01*
X63967D02*
X65442D01*
X124011Y112139D02*
X125486D01*
X112845D02*
X113688D01*
X111160D02*
X112213D01*
X109685D02*
X110317D01*
X107789D02*
X108631D01*
X105050D02*
X105893D01*
X102100D02*
X103364D01*
X99783D02*
X100415D01*
X89460D02*
X90092D01*
X86299D02*
X87142D01*
X83982D02*
X84825D01*
X80822D02*
X81664D01*
X78083D02*
X78926D01*
X74712D02*
X76397D01*
X63546D02*
X65021D01*
X124222Y111928D02*
X125696D01*
X112634D02*
X113688D01*
X110949D02*
X112002D01*
X109685D02*
X110317D01*
X107578D02*
X108421D01*
X104839D02*
X105893D01*
X102943D02*
X103575D01*
X102100D02*
X102732D01*
X86299D02*
X87142D01*
X83982D02*
X84825D01*
X80822D02*
X81875D01*
X78294D02*
X79136D01*
X74291D02*
X76608D01*
X63335D02*
X64810D01*
X124643Y111718D02*
X126118D01*
X112634D02*
X113477D01*
X110738D02*
X111792D01*
X109685D02*
X110317D01*
X107578D02*
X108421D01*
X104418D02*
X105682D01*
X102943D02*
X104207D01*
X102100D02*
X102732D01*
X86510D02*
X86931D01*
X83771D02*
X84614D01*
X81032D02*
X81875D01*
X78294D02*
X79136D01*
X74080D02*
X76608D01*
X63125D02*
X64389D01*
X124854Y111507D02*
X126329D01*
X112634D02*
X113477D01*
X110528D02*
X111581D01*
X109685D02*
X110317D01*
X107367D02*
X108421D01*
X103154D02*
X105471D01*
X83771D02*
X84614D01*
X81032D02*
X82086D01*
X78504D02*
X79347D01*
X75976D02*
X76819D01*
X73659D02*
X74923D01*
X70498D02*
X71130D01*
X62703D02*
X64178D01*
X125064Y111296D02*
X126539D01*
X112424D02*
X113266D01*
X109685D02*
X111370D01*
X107367D02*
X108210D01*
X103364D02*
X105261D01*
X83350D02*
X84403D01*
X81032D02*
X82507D01*
X78504D02*
X79347D01*
X75976D02*
X76819D01*
X73448D02*
X74501D01*
X70288D02*
X71130D01*
X62493D02*
X63967D01*
X125486Y111086D02*
X126750D01*
X112424D02*
X113266D01*
X109685D02*
X111160D01*
X107157D02*
X108210D01*
X103996D02*
X104839D01*
X81243D02*
X84403D01*
X78504D02*
X79347D01*
X75976D02*
X76819D01*
X73448D02*
X74291D01*
X70498D02*
X71341D01*
X62282D02*
X63757D01*
X125696Y110875D02*
X126961D01*
X112213D02*
X113266D01*
X109685D02*
X110949D01*
X107157D02*
X108210D01*
X81243D02*
X83982D01*
X78715D02*
X79558D01*
X75976D02*
X76819D01*
X73448D02*
X74080D01*
X70498D02*
X71552D01*
X62071D02*
X63335D01*
X125907Y110664D02*
X127171D01*
X112213D02*
X113056D01*
X109685D02*
X110738D01*
X107157D02*
X107999D01*
X82507D02*
X83561D01*
X81243D02*
X82086D01*
X78715D02*
X79558D01*
X75765D02*
X76819D01*
X70709D02*
X71552D01*
X61861D02*
X63125D01*
X126118Y110454D02*
X127593D01*
X112002D02*
X113056D01*
X109896D02*
X110528D01*
X107157D02*
X107999D01*
X81243D02*
X82086D01*
X78926D02*
X79558D01*
X75555D02*
X76608D01*
X70709D02*
X71763D01*
X61650D02*
X62914D01*
X126329Y110243D02*
X127803D01*
X112002D02*
X112845D01*
X107367D02*
X107789D01*
X81454D02*
X81875D01*
X78926D02*
X79768D01*
X75344D02*
X76397D01*
X70920D02*
X71973D01*
X61439D02*
X62703D01*
X126539Y110032D02*
X128014D01*
X112002D02*
X112845D01*
X93041D02*
X96201D01*
X78926D02*
X79768D01*
X75133D02*
X76187D01*
X71130D02*
X71973D01*
X68181D02*
X68813D01*
X61229D02*
X62493D01*
X126750Y109821D02*
X128225D01*
X117901D02*
X118323D01*
X111792D02*
X112845D01*
X90302D02*
X98940D01*
X79136D02*
X79979D01*
X74923D02*
X75976D01*
X71130D02*
X72184D01*
X68181D02*
X69024D01*
X61018D02*
X62282D01*
X127171Y109611D02*
X128435D01*
X121272D02*
X121694D01*
X117901D02*
X118533D01*
X111792D02*
X112634D01*
X89038D02*
X100204D01*
X79136D02*
X79979D01*
X74712D02*
X75765D01*
X71341D02*
X72184D01*
X68181D02*
X69024D01*
X60807D02*
X62071D01*
X127382Y109400D02*
X128646D01*
X121062D02*
X121904D01*
X117901D02*
X118744D01*
X111581D02*
X112634D01*
X87774D02*
X101468D01*
X79347D02*
X79768D01*
X77662D02*
X77872D01*
X74712D02*
X75555D01*
X71552D02*
X72395D01*
X68392D02*
X69024D01*
X60386D02*
X61861D01*
X127593Y109189D02*
X128857D01*
X120851D02*
X121904D01*
X118112D02*
X118744D01*
X111581D02*
X112424D01*
X97676D02*
X102732D01*
X86510D02*
X91566D01*
X77451D02*
X78083D01*
X74501D02*
X75344D01*
X71552D02*
X72605D01*
X60175D02*
X61439D01*
X127803Y108979D02*
X129067D01*
X120851D02*
X121694D01*
X118112D02*
X118744D01*
X111581D02*
X112424D01*
X99151D02*
X103575D01*
X85667D02*
X90092D01*
X77240D02*
X78083D01*
X74501D02*
X75344D01*
X71763D02*
X72605D01*
X59964D02*
X61229D01*
X128014Y108768D02*
X129278D01*
X120640D02*
X121483D01*
X118112D02*
X118744D01*
X111581D02*
X112213D01*
X100415D02*
X104418D01*
X84825D02*
X88828D01*
X77029D02*
X78083D01*
X74501D02*
X75344D01*
X71973D02*
X72816D01*
X69445D02*
X69866D01*
X59754D02*
X61018D01*
X128225Y108557D02*
X129489D01*
X120429D02*
X121483D01*
X118112D02*
X118955D01*
X111581D02*
X112213D01*
X102100D02*
X105050D01*
X84193D02*
X87142D01*
X76608D02*
X77872D01*
X74501D02*
X75344D01*
X71973D02*
X73027D01*
X69234D02*
X69866D01*
X59543D02*
X60807D01*
X128435Y108347D02*
X129699D01*
X120219D02*
X121272D01*
X118323D02*
X118955D01*
X103364D02*
X105682D01*
X83350D02*
X85878D01*
X76187D02*
X77451D01*
X74501D02*
X75555D01*
X72184D02*
X73027D01*
X69234D02*
X70077D01*
X59332D02*
X60596D01*
X128646Y108136D02*
X129910D01*
X120219D02*
X121062D01*
X118323D02*
X118955D01*
X103786D02*
X106314D01*
X82929D02*
X85667D01*
X74712D02*
X77240D01*
X72184D02*
X73237D01*
X69234D02*
X70288D01*
X65442D02*
X65863D01*
X59122D02*
X60386D01*
X128857Y107925D02*
X130121D01*
X123590D02*
X123800D01*
X120008D02*
X121062D01*
X118323D02*
X118955D01*
X104418D02*
X106946D01*
X82296D02*
X84825D01*
X74923D02*
X76819D01*
X72395D02*
X73448D01*
X69445D02*
X70498D01*
X65442D02*
X66074D01*
X58911D02*
X60175D01*
X129067Y107715D02*
X130331D01*
X123168D02*
X124011D01*
X119797D02*
X120851D01*
X118323D02*
X118955D01*
X104839D02*
X107578D01*
X81664D02*
X84403D01*
X75344D02*
X76397D01*
X72605D02*
X73448D01*
X69656D02*
X70498D01*
X65442D02*
X66074D01*
X58700D02*
X59964D01*
X129278Y107504D02*
X130542D01*
X123168D02*
X124011D01*
X119797D02*
X120640D01*
X118533D02*
X119165D01*
X105893D02*
X108210D01*
X81032D02*
X83350D01*
X72816D02*
X73659D01*
X69656D02*
X70709D01*
X65442D02*
X66074D01*
X58490D02*
X59754D01*
X129489Y107293D02*
X130753D01*
X123168D02*
X124011D01*
X119587D02*
X120429D01*
X118533D02*
X119165D01*
X106946D02*
X108631D01*
X80611D02*
X82507D01*
X72816D02*
X73659D01*
X69866D02*
X70920D01*
X65231D02*
X66074D01*
X58279D02*
X59543D01*
X129699Y107083D02*
X130963D01*
X123168D02*
X123800D01*
X119376D02*
X120429D01*
X118323D02*
X119165D01*
X106946D02*
X109263D01*
X79979D02*
X82086D01*
X73027D02*
X73869D01*
X70077D02*
X70920D01*
X65021D02*
X65863D01*
X58068D02*
X59332D01*
X129910Y106872D02*
X131174D01*
X117059D02*
X120219D01*
X107789D02*
X109685D01*
X79558D02*
X81664D01*
X73027D02*
X74080D01*
X70288D02*
X71130D01*
X63967D02*
X65653D01*
X57858D02*
X59122D01*
X130121Y106661D02*
X131385D01*
X115584D02*
X120008D01*
X107999D02*
X110106D01*
X79136D02*
X81243D01*
X73237D02*
X74080D01*
X70288D02*
X71341D01*
X66706D02*
X67970D01*
X63967D02*
X65653D01*
X57858D02*
X58911D01*
X130331Y106451D02*
X131596D01*
X122115D02*
X122747D01*
X115373D02*
X120008D01*
X108842D02*
X110528D01*
X78715D02*
X80400D01*
X73237D02*
X74080D01*
X70498D02*
X71552D01*
X66285D02*
X68602D01*
X64178D02*
X65231D01*
X57647D02*
X58700D01*
X130542Y106240D02*
X131806D01*
X121904D02*
X122958D01*
X118744D02*
X119797D01*
X115584D02*
X117269D01*
X109474D02*
X110949D01*
X78294D02*
X79768D01*
X70709D02*
X71552D01*
X66074D02*
X68813D01*
X57436D02*
X58490D01*
X130753Y106029D02*
X132017D01*
X121904D02*
X122747D01*
X118744D02*
X119587D01*
X109685D02*
X111370D01*
X77872D02*
X79558D01*
X70920D02*
X71763D01*
X67549D02*
X69024D01*
X65863D02*
X66917D01*
X57226D02*
X58490D01*
X130963Y105819D02*
X132017D01*
X121694D02*
X122747D01*
X118533D02*
X119587D01*
X110106D02*
X111792D01*
X77451D02*
X79136D01*
X70920D02*
X71973D01*
X67970D02*
X69234D01*
X65863D02*
X66706D01*
X57015D02*
X58279D01*
X131174Y105608D02*
X132228D01*
X121483D02*
X122536D01*
X118323D02*
X119376D01*
X110317D02*
X112213D01*
X77029D02*
X78926D01*
X71130D02*
X72184D01*
X68181D02*
X69445D01*
X65863D02*
X66496D01*
X56804D02*
X58068D01*
X131174Y105397D02*
X132438D01*
X121272D02*
X122326D01*
X118323D02*
X119165D01*
X110949D02*
X112634D01*
X76608D02*
X78294D01*
X71341D02*
X72184D01*
X68602D02*
X69445D01*
X65653D02*
X66285D01*
X56594D02*
X57858D01*
X131385Y105187D02*
X132649D01*
X121062D02*
X122115D01*
X118112D02*
X118955D01*
X111160D02*
X113056D01*
X76187D02*
X78083D01*
X71341D02*
X72184D01*
X68602D02*
X69656D01*
X65653D02*
X66285D01*
X65021D02*
X65442D01*
X56383D02*
X57647D01*
X131596Y104976D02*
X132860D01*
X120851D02*
X121904D01*
X117901D02*
X118955D01*
X111792D02*
X113266D01*
X75976D02*
X77662D01*
X71552D02*
X71763D01*
X68813D02*
X69656D01*
X64810D02*
X66285D01*
X56172D02*
X57436D01*
X131806Y104765D02*
X133070D01*
X120851D02*
X121904D01*
X117901D02*
X118744D01*
X112213D02*
X113688D01*
X75555D02*
X77029D01*
X69024D02*
X69866D01*
X64810D02*
X66285D01*
X56172D02*
X57226D01*
X132017Y104554D02*
X133281D01*
X120640D02*
X121694D01*
X117901D02*
X118533D01*
X112424D02*
X114109D01*
X75133D02*
X76819D01*
X69024D02*
X69866D01*
X65021D02*
X66285D01*
X55962D02*
X57015D01*
X132228Y104344D02*
X133281D01*
X124222D02*
X125064D01*
X120429D02*
X121483D01*
X112845D02*
X114320D01*
X74923D02*
X76397D01*
X69234D02*
X69866D01*
X65021D02*
X66285D01*
X61650D02*
X62493D01*
X55751D02*
X56804D01*
X132438Y104133D02*
X133492D01*
X123590D02*
X125275D01*
X120219D02*
X121272D01*
X113056D02*
X114741D01*
X74501D02*
X75976D01*
X69234D02*
X69866D01*
X65231D02*
X66496D01*
X61650D02*
X62703D01*
X55540D02*
X56594D01*
X132649Y103922D02*
X133702D01*
X123379D02*
X125696D01*
X120008D02*
X121062D01*
X113477D02*
X115162D01*
X74080D02*
X75765D01*
X69234D02*
X69866D01*
X65442D02*
X66496D01*
X61650D02*
X62703D01*
X55540D02*
X56594D01*
X132649Y103712D02*
X133913D01*
X123168D02*
X125696D01*
X119797D02*
X120851D01*
X113898D02*
X115373D01*
X73869D02*
X75344D01*
X69024D02*
X69866D01*
X65653D02*
X66706D01*
X62071D02*
X62493D01*
X55329D02*
X56383D01*
X132860Y103501D02*
X134124D01*
X125064D02*
X125907D01*
X122958D02*
X124222D01*
X119587D02*
X120640D01*
X114320D02*
X115584D01*
X73659D02*
X74923D01*
X68813D02*
X69656D01*
X65863D02*
X66917D01*
X55119D02*
X56172D01*
X133070Y103290D02*
X134124D01*
X125275D02*
X126118D01*
X122747D02*
X123800D01*
X119587D02*
X120640D01*
X114530D02*
X116005D01*
X73237D02*
X74712D01*
X68813D02*
X69656D01*
X66074D02*
X67128D01*
X63125D02*
X63546D01*
X54908D02*
X55962D01*
X133281Y103080D02*
X134334D01*
X125486D02*
X126118D01*
X122536D02*
X123590D01*
X119797D02*
X120429D01*
X114952D02*
X116216D01*
X73027D02*
X74501D01*
X68392D02*
X69445D01*
X66285D02*
X67549D01*
X62914D02*
X63757D01*
X54908D02*
X55962D01*
X133281Y102869D02*
X134545D01*
X125486D02*
X126118D01*
X122326D02*
X123379D01*
X115162D02*
X116637D01*
X72816D02*
X74080D01*
X70709D02*
X71130D01*
X66496D02*
X69234D01*
X62914D02*
X63967D01*
X54697D02*
X55751D01*
X133492Y102658D02*
X134545D01*
X125696D02*
X126118D01*
X122115D02*
X123168D01*
X115584D02*
X116848D01*
X72395D02*
X73869D01*
X70498D02*
X71130D01*
X66496D02*
X68813D01*
X63125D02*
X64178D01*
X54487D02*
X55540D01*
X133702Y102448D02*
X134756D01*
X125696D02*
X126961D01*
X121904D02*
X122958D01*
X115795D02*
X117059D01*
X72184D02*
X73448D01*
X70288D02*
X71130D01*
X66706D02*
X67760D01*
X63335D02*
X64389D01*
X54276D02*
X55329D01*
X133913Y102237D02*
X134966D01*
X125486D02*
X126961D01*
X121694D02*
X122747D01*
X116005D02*
X117480D01*
X71763D02*
X73237D01*
X70077D02*
X70920D01*
X66917D02*
X67970D01*
X63546D02*
X64599D01*
X54276D02*
X55329D01*
X133913Y102026D02*
X135177D01*
X125486D02*
X126961D01*
X121483D02*
X122536D01*
X116216D02*
X117691D01*
X71552D02*
X73027D01*
X69866D02*
X70920D01*
X67128D02*
X68181D01*
X63757D02*
X65021D01*
X54065D02*
X55119D01*
X134124Y101816D02*
X135388D01*
X125486D02*
X126750D01*
X121272D02*
X122326D01*
X116637D02*
X117901D01*
X71341D02*
X72605D01*
X69445D02*
X70709D01*
X67338D02*
X68602D01*
X63967D02*
X65231D01*
X53855D02*
X54908D01*
X134334Y101605D02*
X135388D01*
X125275D02*
X126539D01*
X121483D02*
X122115D01*
X116848D02*
X118112D01*
X71130D02*
X72395D01*
X67549D02*
X70498D01*
X64178D02*
X65442D01*
X53644D02*
X54908D01*
X134545Y101394D02*
X135598D01*
X125064D02*
X126118D01*
X117269D02*
X118533D01*
X70920D02*
X71973D01*
X67760D02*
X70077D01*
X64389D02*
X65653D01*
X53644D02*
X54697D01*
X134545Y101184D02*
X135809D01*
X124854D02*
X126118D01*
X117480D02*
X118744D01*
X70498D02*
X71763D01*
X68181D02*
X69866D01*
X64599D02*
X65863D01*
X53433D02*
X54487D01*
X134756Y100973D02*
X135809D01*
X124643D02*
X125907D01*
X117691D02*
X118955D01*
X70288D02*
X71552D01*
X68602D02*
X69445D01*
X64810D02*
X66074D01*
X53223D02*
X54276D01*
X134966Y100762D02*
X136020D01*
X124432D02*
X125696D01*
X117901D02*
X119165D01*
X70077D02*
X71341D01*
X65021D02*
X66285D01*
X53012D02*
X54065D01*
X134966Y100552D02*
X136230D01*
X124222D02*
X125275D01*
X118112D02*
X119376D01*
X69866D02*
X71130D01*
X65231D02*
X66496D01*
X53012D02*
X54065D01*
X135177Y100341D02*
X136230D01*
X124011D02*
X125064D01*
X118533D02*
X119587D01*
X69656D02*
X70709D01*
X65653D02*
X66496D01*
X52801D02*
X53855D01*
X135388Y100130D02*
X136441D01*
X123800D02*
X124854D01*
X118744D02*
X119797D01*
X69445D02*
X70709D01*
X65863D02*
X66496D01*
X52801D02*
X53644D01*
X135598Y99920D02*
X136441D01*
X126961D02*
X128857D01*
X123590D02*
X124643D01*
X118744D02*
X120008D01*
X69234D02*
X70498D01*
X52591D02*
X53644D01*
X135598Y99709D02*
X136652D01*
X126539D02*
X129278D01*
X123379D02*
X124432D01*
X118955D02*
X120219D01*
X69024D02*
X70288D01*
X58279D02*
X58911D01*
X52380D02*
X53433D01*
X135809Y99498D02*
X136862D01*
X126329D02*
X129489D01*
X123379D02*
X124222D01*
X119376D02*
X120429D01*
X68813D02*
X69866D01*
X58068D02*
X59122D01*
X52380D02*
X53433D01*
X135809Y99288D02*
X136862D01*
X128435D02*
X129489D01*
X126118D02*
X127593D01*
X123590D02*
X124011D01*
X119797D02*
X120640D01*
X68602D02*
X69656D01*
X57858D02*
X59543D01*
X52169D02*
X53223D01*
X136020Y99077D02*
X137073D01*
X128857D02*
X129699D01*
X125907D02*
X127171D01*
X119797D02*
X120851D01*
X68392D02*
X69445D01*
X57858D02*
X59754D01*
X52169D02*
X53012D01*
X136020Y98866D02*
X137284D01*
X129067D02*
X129699D01*
X125696D02*
X126961D01*
X120008D02*
X121062D01*
X68181D02*
X69234D01*
X57647D02*
X60175D01*
X51959D02*
X53012D01*
X136230Y98655D02*
X137284D01*
X129067D02*
X129910D01*
X125486D02*
X126750D01*
X120219D02*
X121272D01*
X67970D02*
X69024D01*
X58911D02*
X60386D01*
X57436D02*
X58279D01*
X51748D02*
X52801D01*
X136441Y98445D02*
X137495D01*
X129278D02*
X129910D01*
X125486D02*
X126539D01*
X120429D02*
X121483D01*
X67760D02*
X68813D01*
X59122D02*
X60807D01*
X57436D02*
X58279D01*
X51748D02*
X52801D01*
X136441Y98234D02*
X137495D01*
X129278D02*
X129910D01*
X125486D02*
X126329D01*
X120851D02*
X121694D01*
X67549D02*
X68602D01*
X59543D02*
X61018D01*
X57226D02*
X58068D01*
X51537D02*
X52591D01*
X136652Y98023D02*
X137705D01*
X129278D02*
X129910D01*
X125275D02*
X126118D01*
X120851D02*
X121904D01*
X67338D02*
X68392D01*
X59964D02*
X61439D01*
X57015D02*
X57858D01*
X51537D02*
X52380D01*
X136862Y97813D02*
X137705D01*
X129067D02*
X129910D01*
X125275D02*
X126118D01*
X121062D02*
X122115D01*
X67128D02*
X68181D01*
X59964D02*
X61650D01*
X57015D02*
X57858D01*
X51327D02*
X52380D01*
X136862Y97602D02*
X137916D01*
X129067D02*
X129910D01*
X125275D02*
X126118D01*
X121272D02*
X122326D01*
X66917D02*
X67970D01*
X59754D02*
X62071D01*
X56804D02*
X57647D01*
X51116D02*
X52169D01*
X137073Y97391D02*
X138127D01*
X128857D02*
X129910D01*
X125275D02*
X126118D01*
X121483D02*
X122536D01*
X66706D02*
X67760D01*
X60807D02*
X62282D01*
X59543D02*
X60386D01*
X56804D02*
X57647D01*
X51116D02*
X51959D01*
X137073Y97181D02*
X138127D01*
X128646D02*
X129699D01*
X125486D02*
X126118D01*
X121694D02*
X122747D01*
X66496D02*
X67549D01*
X61229D02*
X62703D01*
X59543D02*
X60386D01*
X56804D02*
X57647D01*
X50905D02*
X51959D01*
X137284Y96970D02*
X138337D01*
X128435D02*
X129699D01*
X125486D02*
X126329D01*
X121904D02*
X122958D01*
X74712D02*
X75555D01*
X66285D02*
X67549D01*
X61439D02*
X62914D01*
X59332D02*
X60175D01*
X56804D02*
X57647D01*
X50905D02*
X51748D01*
X137495Y96759D02*
X138548D01*
X130753D02*
X131385D01*
X128225D02*
X129489D01*
X125486D02*
X126329D01*
X121904D02*
X122958D01*
X74291D02*
X75133D01*
X71973D02*
X72395D01*
X66285D02*
X67338D01*
X61861D02*
X63125D01*
X59122D02*
X59964D01*
X56804D02*
X57647D01*
X50695D02*
X51748D01*
X137495Y96549D02*
X138548D01*
X130542D02*
X131385D01*
X127803D02*
X129278D01*
X125696D02*
X126750D01*
X122115D02*
X123168D01*
X73869D02*
X74923D01*
X66074D02*
X67128D01*
X62071D02*
X63335D01*
X58911D02*
X59964D01*
X56804D02*
X57858D01*
X50695D02*
X51537D01*
X137705Y96338D02*
X138759D01*
X130753D02*
X131596D01*
X125907D02*
X129067D01*
X122326D02*
X123379D01*
X73869D02*
X74501D01*
X73027D02*
X73659D01*
X65863D02*
X66917D01*
X62282D02*
X63125D01*
X58490D02*
X59754D01*
X57015D02*
X58279D01*
X50484D02*
X51537D01*
X137705Y96127D02*
X138759D01*
X130963D02*
X131596D01*
X126118D02*
X128857D01*
X122536D02*
X123590D01*
X65653D02*
X66706D01*
X62282D02*
X63125D01*
X57015D02*
X59754D01*
X50484D02*
X51327D01*
X137916Y95917D02*
X138759D01*
X130963D02*
X131596D01*
X126329D02*
X128435D01*
X122747D02*
X123800D01*
X79768D02*
X80611D01*
X65653D02*
X66706D01*
X62071D02*
X62914D01*
X57226D02*
X59543D01*
X50273D02*
X51327D01*
X137916Y95706D02*
X138969D01*
X131174D02*
X131596D01*
X126750D02*
X127803D01*
X122958D02*
X123800D01*
X79558D02*
X80822D01*
X65442D02*
X66496D01*
X61861D02*
X62703D01*
X58911D02*
X59543D01*
X57647D02*
X58700D01*
X50273D02*
X51116D01*
X138127Y95495D02*
X138969D01*
X131174D02*
X131596D01*
X122958D02*
X124011D01*
X79347D02*
X81243D01*
X65231D02*
X66074D01*
X61861D02*
X62703D01*
X58911D02*
X59543D01*
X50063D02*
X51116D01*
X138127Y95285D02*
X139180D01*
X131174D02*
X131596D01*
X123168D02*
X124222D01*
X78926D02*
X82929D01*
X76397D02*
X77029D01*
X65021D02*
X66074D01*
X61650D02*
X62493D01*
X58911D02*
X59543D01*
X50063D02*
X50905D01*
X138337Y95074D02*
X139180D01*
X130963D02*
X132228D01*
X123379D02*
X124432D01*
X78715D02*
X83771D01*
X76397D02*
X76819D01*
X72184D02*
X72395D01*
X64810D02*
X65863D01*
X61439D02*
X62282D01*
X58911D02*
X59754D01*
X49852D02*
X50905D01*
X138337Y94863D02*
X139391D01*
X130753D02*
X132228D01*
X123379D02*
X124432D01*
X79979D02*
X84403D01*
X78504D02*
X79768D01*
X71973D02*
X72395D01*
X71341D02*
X71552D01*
X64810D02*
X65653D01*
X61229D02*
X62282D01*
X59122D02*
X59964D01*
X49852D02*
X50695D01*
X138548Y94653D02*
X139391D01*
X130753D02*
X132438D01*
X123590D02*
X124643D01*
X89460D02*
X90302D01*
X79979D02*
X85246D01*
X78294D02*
X79558D01*
X71973D02*
X72605D01*
X71341D02*
X71763D01*
X64599D02*
X65653D01*
X60807D02*
X62071D01*
X59122D02*
X60596D01*
X49641D02*
X50695D01*
X138548Y94442D02*
X139601D01*
X130331D02*
X132017D01*
X124011D02*
X124854D01*
X89038D02*
X90513D01*
X81664D02*
X86299D01*
X78083D02*
X80190D01*
X71341D02*
X72605D01*
X64389D02*
X65442D01*
X59332D02*
X61861D01*
X49641D02*
X50484D01*
X138548Y94231D02*
X139601D01*
X130121D02*
X131806D01*
X124011D02*
X124854D01*
X88406D02*
X90513D01*
X83139D02*
X86931D01*
X82086D02*
X82929D01*
X78083D02*
X80822D01*
X71973D02*
X72605D01*
X64389D02*
X65231D01*
X59543D02*
X61650D01*
X49430D02*
X50484D01*
X138759Y94021D02*
X139812D01*
X129699D02*
X131385D01*
X124011D02*
X125064D01*
X88196D02*
X90513D01*
X83350D02*
X87563D01*
X77872D02*
X81664D01*
X71973D02*
X72816D01*
X64178D02*
X65021D01*
X59754D02*
X61439D01*
X49430D02*
X50273D01*
X138969Y93810D02*
X139812D01*
X129278D02*
X130963D01*
X124222D02*
X125275D01*
X93462D02*
X93884D01*
X83771D02*
X91356D01*
X77872D02*
X82718D01*
X72184D02*
X72816D01*
X63967D02*
X65021D01*
X60175D02*
X61018D01*
X54487D02*
X55119D01*
X49220D02*
X50273D01*
X138969Y93599D02*
X140023D01*
X129067D02*
X130542D01*
X124432D02*
X125486D01*
X93041D02*
X94305D01*
X85035D02*
X91777D01*
X84403D02*
X84614D01*
X77872D02*
X83139D01*
X72184D02*
X72816D01*
X63757D02*
X64810D01*
X54276D02*
X55119D01*
X49220D02*
X50063D01*
X139180Y93388D02*
X140023D01*
X132860D02*
X133070D01*
X128646D02*
X130331D01*
X124643D02*
X125486D01*
X92830D02*
X94305D01*
X87353D02*
X92409D01*
X85246D02*
X86721D01*
X77872D02*
X83771D01*
X72395D02*
X73027D01*
X63757D02*
X64599D01*
X56594D02*
X57858D01*
X54276D02*
X55119D01*
X49009D02*
X50063D01*
X139180Y93178D02*
X140233D01*
X132649D02*
X133281D01*
X128435D02*
X129910D01*
X124643D02*
X125696D01*
X94937D02*
X96412D01*
X87353D02*
X94305D01*
X85878D02*
X86721D01*
X77662D02*
X84825D01*
X72605D02*
X73237D01*
X63546D02*
X64599D01*
X56172D02*
X58490D01*
X54487D02*
X55119D01*
X49009D02*
X49852D01*
X139391Y92967D02*
X140233D01*
X132649D02*
X133281D01*
X128225D02*
X129489D01*
X124854D02*
X125696D01*
X86931D02*
X97255D01*
X77240D02*
X85878D01*
X72816D02*
X73659D01*
X63546D02*
X64389D01*
X55962D02*
X58911D01*
X48798D02*
X49852D01*
X139391Y92756D02*
X140444D01*
X132649D02*
X133492D01*
X128225D02*
X129278D01*
X125064D02*
X125907D01*
X86931D02*
X97676D01*
X77451D02*
X86299D01*
X73027D02*
X74501D01*
X63335D02*
X64389D01*
X55751D02*
X59122D01*
X48798D02*
X49641D01*
X139391Y92546D02*
X140444D01*
X134545D02*
X134756D01*
X132860D02*
X133492D01*
X128435D02*
X128857D01*
X125064D02*
X126118D01*
X77872D02*
X97887D01*
X73027D02*
X74923D01*
X63125D02*
X64178D01*
X57858D02*
X59543D01*
X55540D02*
X56594D01*
X53855D02*
X54276D01*
X48588D02*
X49641D01*
X139601Y92335D02*
X140444D01*
X134124D02*
X134966D01*
X132860D02*
X133702D01*
X125275D02*
X126118D01*
X77872D02*
X98097D01*
X73659D02*
X75133D01*
X63125D02*
X63967D01*
X58279D02*
X59543D01*
X55540D02*
X56383D01*
X53644D02*
X54487D01*
X48588D02*
X49430D01*
X139601Y92124D02*
X140655D01*
X133070D02*
X135177D01*
X125486D02*
X126329D01*
X77872D02*
X98097D01*
X74291D02*
X75133D01*
X62914D02*
X63967D01*
X58700D02*
X59754D01*
X55540D02*
X56172D01*
X53644D02*
X54487D01*
X48588D02*
X49430D01*
X139812Y91914D02*
X140655D01*
X133070D02*
X134966D01*
X125696D02*
X126329D01*
X77872D02*
X98308D01*
X62703D02*
X63757D01*
X58911D02*
X59754D01*
X55329D02*
X55962D01*
X53644D02*
X54487D01*
X48377D02*
X49430D01*
X139812Y91703D02*
X140865D01*
X132860D02*
X134756D01*
X125696D02*
X126539D01*
X77872D02*
X98308D01*
X62703D02*
X63546D01*
X59122D02*
X59964D01*
X55329D02*
X55962D01*
X54065D02*
X54276D01*
X48377D02*
X49220D01*
X139812Y91492D02*
X140865D01*
X132438D02*
X134334D01*
X129067D02*
X129699D01*
X125907D02*
X126750D01*
X77872D02*
X98308D01*
X62493D02*
X63546D01*
X59122D02*
X59964D01*
X55329D02*
X55962D01*
X48377D02*
X49220D01*
X140023Y91282D02*
X140865D01*
X131806D02*
X134124D01*
X129067D02*
X129910D01*
X125907D02*
X126750D01*
X79136D02*
X98519D01*
X62493D02*
X63335D01*
X59332D02*
X59964D01*
X55329D02*
X55962D01*
X48166D02*
X49220D01*
X140023Y91071D02*
X141076D01*
X133492D02*
X134124D01*
X131385D02*
X133281D01*
X129278D02*
X129910D01*
X125907D02*
X126961D01*
X99572D02*
X100204D01*
X80190D02*
X98519D01*
X62282D02*
X63335D01*
X59332D02*
X59964D01*
X55329D02*
X56172D01*
X48166D02*
X49009D01*
X140233Y90860D02*
X141076D01*
X133702D02*
X134124D01*
X131174D02*
X132860D01*
X129278D02*
X130121D01*
X126118D02*
X126961D01*
X100626D02*
X101258D01*
X80611D02*
X98519D01*
X62282D02*
X63125D01*
X59332D02*
X59964D01*
X55329D02*
X56172D01*
X48166D02*
X49009D01*
X140233Y90650D02*
X141076D01*
X130542D02*
X132438D01*
X129489D02*
X130331D01*
X126118D02*
X127171D01*
X101258D02*
X102311D01*
X81032D02*
X98519D01*
X62071D02*
X62914D01*
X59122D02*
X59964D01*
X55540D02*
X56383D01*
X47956D02*
X48798D01*
X140233Y90439D02*
X141287D01*
X129489D02*
X132017D01*
X126329D02*
X127171D01*
X102732D02*
X103154D01*
X101679D02*
X102100D01*
X98940D02*
X99783D01*
X81664D02*
X98308D01*
X62071D02*
X62914D01*
X59122D02*
X59754D01*
X55540D02*
X56594D01*
X47956D02*
X48798D01*
X140444Y90228D02*
X141287D01*
X129699D02*
X131596D01*
X126539D02*
X127382D01*
X102732D02*
X103154D01*
X98940D02*
X100415D01*
X82507D02*
X97887D01*
X61861D02*
X62703D01*
X58911D02*
X59754D01*
X55751D02*
X57015D01*
X47745D02*
X48798D01*
X140444Y90018D02*
X141287D01*
X129910D02*
X130963D01*
X126750D02*
X127382D01*
X102732D02*
X103154D01*
X99151D02*
X101258D01*
X83350D02*
X98308D01*
X61650D02*
X62703D01*
X58700D02*
X59543D01*
X55751D02*
X57436D01*
X47745D02*
X48588D01*
X140444Y89807D02*
X141497D01*
X126750D02*
X127593D01*
X102732D02*
X103364D01*
X99783D02*
X101679D01*
X95991D02*
X98729D01*
X83982D02*
X95780D01*
X61650D02*
X62493D01*
X56172D02*
X59543D01*
X47745D02*
X48588D01*
X140655Y89596D02*
X141497D01*
X126750D02*
X127593D01*
X102732D02*
X103786D01*
X100836D02*
X102311D01*
X96412D02*
X99783D01*
X85035D02*
X95569D01*
X61650D02*
X62493D01*
X56383D02*
X59332D01*
X47534D02*
X48377D01*
X140655Y89386D02*
X141708D01*
X126961D02*
X127803D01*
X100836D02*
X104207D01*
X97465D02*
X100626D01*
X96412D02*
X97044D01*
X85667D02*
X95569D01*
X61439D02*
X62282D01*
X56804D02*
X58911D01*
X52591D02*
X52801D01*
X47534D02*
X48377D01*
X140655Y89175D02*
X141708D01*
X126961D02*
X127803D01*
X98308D02*
X104207D01*
X96201D02*
X96833D01*
X85878D02*
X95359D01*
X61439D02*
X62282D01*
X57436D02*
X58700D01*
X52380D02*
X53433D01*
X47324D02*
X48377D01*
X140865Y88964D02*
X141708D01*
X132860D02*
X134756D01*
X126961D02*
X128014D01*
X99151D02*
X104207D01*
X97255D02*
X97465D01*
X96201D02*
X96623D01*
X86089D02*
X95359D01*
X61229D02*
X62282D01*
X52380D02*
X53855D01*
X47324D02*
X48166D01*
X140865Y88754D02*
X141919D01*
X132438D02*
X134966D01*
X127171D02*
X128014D01*
X99783D02*
X104207D01*
X96833D02*
X98097D01*
X96201D02*
X96623D01*
X85878D02*
X95148D01*
X61229D02*
X62071D01*
X52380D02*
X54487D01*
X47324D02*
X48166D01*
X140865Y88543D02*
X141919D01*
X131806D02*
X135177D01*
X127382D02*
X128225D01*
X99783D02*
X104207D01*
X97255D02*
X98308D01*
X96201D02*
X96623D01*
X85878D02*
X95148D01*
X61018D02*
X61861D01*
X52801D02*
X54908D01*
X47113D02*
X48166D01*
X141076Y88332D02*
X142129D01*
X134334D02*
X135388D01*
X131174D02*
X133702D01*
X127382D02*
X128225D01*
X99993D02*
X104207D01*
X98519D02*
X99572D01*
X96201D02*
X96412D01*
X85667D02*
X95359D01*
X61018D02*
X61861D01*
X53433D02*
X55540D01*
X47113D02*
X47956D01*
X141076Y88122D02*
X142129D01*
X134545D02*
X135388D01*
X130753D02*
X133702D01*
X127593D02*
X128435D01*
X100415D02*
X104207D01*
X96201D02*
X96412D01*
X85667D02*
X95359D01*
X60807D02*
X61650D01*
X53855D02*
X56172D01*
X47113D02*
X47956D01*
X141287Y87911D02*
X142129D01*
X134756D02*
X135598D01*
X133070D02*
X133702D01*
X130753D02*
X132649D01*
X127803D02*
X128435D01*
X100415D02*
X104207D01*
X96201D02*
X96623D01*
X85457D02*
X95991D01*
X60807D02*
X61650D01*
X54487D02*
X56804D01*
X46902D02*
X47956D01*
X141287Y87700D02*
X142129D01*
X134966D02*
X135598D01*
X133070D02*
X133702D01*
X130753D02*
X132228D01*
X127803D02*
X128646D01*
X100415D02*
X104207D01*
X85457D02*
X97255D01*
X60596D02*
X61439D01*
X55119D02*
X57436D01*
X46902D02*
X47745D01*
X141287Y87489D02*
X142340D01*
X134966D02*
X135598D01*
X133281D02*
X133913D01*
X131385D02*
X132017D01*
X127803D02*
X128646D01*
X100415D02*
X104207D01*
X85457D02*
X98097D01*
X60596D02*
X61439D01*
X55751D02*
X57858D01*
X46902D02*
X47745D01*
X141497Y87279D02*
X142340D01*
X134966D02*
X135809D01*
X133281D02*
X133913D01*
X131174D02*
X131806D01*
X128014D02*
X128646D01*
X100415D02*
X104207D01*
X85457D02*
X98940D01*
X60386D02*
X61439D01*
X56383D02*
X58279D01*
X46902D02*
X47745D01*
X141497Y87068D02*
X142340D01*
X135177D02*
X135809D01*
X133281D02*
X133913D01*
X131174D02*
X131806D01*
X128014D02*
X128857D01*
X100415D02*
X104207D01*
X85667D02*
X99572D01*
X60386D02*
X61229D01*
X56804D02*
X58279D01*
X46692D02*
X47745D01*
X141497Y86857D02*
X142340D01*
X135177D02*
X135809D01*
X133281D02*
X133913D01*
X131174D02*
X131806D01*
X128014D02*
X128857D01*
X100415D02*
X103996D01*
X97255D02*
X99783D01*
X85667D02*
X96623D01*
X60386D02*
X61229D01*
X57436D02*
X58279D01*
X46692D02*
X47534D01*
X141497Y86647D02*
X142551D01*
X135177D02*
X135809D01*
X133492D02*
X134124D01*
X131174D02*
X131806D01*
X128014D02*
X129067D01*
X100415D02*
X103786D01*
X98308D02*
X99783D01*
X85667D02*
X97044D01*
X60175D02*
X61229D01*
X46692D02*
X47534D01*
X141708Y86436D02*
X142551D01*
X135177D02*
X135809D01*
X133492D02*
X134124D01*
X131174D02*
X131806D01*
X128225D02*
X129067D01*
X100415D02*
X103575D01*
X98729D02*
X99783D01*
X85667D02*
X97044D01*
X60175D02*
X61018D01*
X46481D02*
X47534D01*
X141708Y86225D02*
X142551D01*
X135177D02*
X135598D01*
X133492D02*
X134124D01*
X131174D02*
X131806D01*
X128435D02*
X129067D01*
X100415D02*
X103364D01*
X97676D02*
X97887D01*
X91988D02*
X96833D01*
X85878D02*
X91777D01*
X60175D02*
X60807D01*
X53223D02*
X53644D01*
X46481D02*
X47324D01*
X141708Y86015D02*
X142551D01*
X133281D02*
X134124D01*
X131174D02*
X132017D01*
X128435D02*
X129278D01*
X102100D02*
X102943D01*
X100415D02*
X101679D01*
X99361D02*
X99993D01*
X97465D02*
X98097D01*
X92198D02*
X96833D01*
X86089D02*
X91356D01*
X59964D02*
X60807D01*
X53223D02*
X54487D01*
X51327D02*
X51959D01*
X46481D02*
X47324D01*
X141708Y85804D02*
X142762D01*
X133070D02*
X133913D01*
X131174D02*
X132228D01*
X128435D02*
X129278D01*
X102311D02*
X102522D01*
X99361D02*
X101679D01*
X97255D02*
X98519D01*
X92198D02*
X97044D01*
X86089D02*
X91145D01*
X59964D02*
X60807D01*
X53223D02*
X55329D01*
X51327D02*
X52169D01*
X46481D02*
X47324D01*
X141919Y85593D02*
X142762D01*
X131385D02*
X133913D01*
X128646D02*
X129489D01*
X99993D02*
X101468D01*
X92620D02*
X99572D01*
X86299D02*
X91145D01*
X59964D02*
X60807D01*
X53223D02*
X56172D01*
X51327D02*
X52169D01*
X46270D02*
X47324D01*
X141919Y85383D02*
X142762D01*
X131385D02*
X133702D01*
X128857D02*
X129489D01*
X100836D02*
X101679D01*
X96412D02*
X99993D01*
X92830D02*
X95780D01*
X86510D02*
X91145D01*
X59754D02*
X60596D01*
X54065D02*
X56594D01*
X51327D02*
X51959D01*
X46270D02*
X47113D01*
X141919Y85172D02*
X142762D01*
X131596D02*
X133492D01*
X128857D02*
X129489D01*
X101047D02*
X101679D01*
X97255D02*
X100626D01*
X96412D02*
X97044D01*
X92830D02*
X95569D01*
X86510D02*
X91356D01*
X65442D02*
X65863D01*
X59754D02*
X60596D01*
X54908D02*
X56804D01*
X46270D02*
X47113D01*
X141919Y84961D02*
X142972D01*
X132017D02*
X133070D01*
X128857D02*
X129699D01*
X101047D02*
X102311D01*
X97887D02*
X100836D01*
X96412D02*
X97044D01*
X92830D02*
X95569D01*
X86510D02*
X91566D01*
X59543D02*
X60386D01*
X55751D02*
X57226D01*
X46270D02*
X47113D01*
X142129Y84751D02*
X142972D01*
X128857D02*
X129699D01*
X98729D02*
X102943D01*
X96201D02*
X97044D01*
X92830D02*
X95359D01*
X86510D02*
X91566D01*
X59543D02*
X60386D01*
X56172D02*
X57226D01*
X46060D02*
X47113D01*
X142129Y84540D02*
X142972D01*
X136020D02*
X136441D01*
X128857D02*
X129699D01*
X99572D02*
X103154D01*
X96201D02*
X97887D01*
X92830D02*
X95359D01*
X86299D02*
X91566D01*
X59543D02*
X60386D01*
X56383D02*
X57226D01*
X50905D02*
X51537D01*
X46060D02*
X46902D01*
X142129Y84329D02*
X143183D01*
X136020D02*
X136652D01*
X129067D02*
X129910D01*
X99783D02*
X103154D01*
X97044D02*
X97887D01*
X96201D02*
X96623D01*
X92830D02*
X95148D01*
X86299D02*
X91566D01*
X59332D02*
X60386D01*
X56594D02*
X57436D01*
X50905D02*
X51748D01*
X46060D02*
X46902D01*
X142129Y84119D02*
X143183D01*
X135809D02*
X136652D01*
X129067D02*
X129910D01*
X99783D02*
X103154D01*
X97676D02*
X98729D01*
X96201D02*
X96412D01*
X92830D02*
X95148D01*
X86299D02*
X91356D01*
X59332D02*
X60175D01*
X56594D02*
X57436D01*
X50905D02*
X51748D01*
X46060D02*
X46902D01*
X142340Y83908D02*
X143183D01*
X135809D02*
X136441D01*
X129067D02*
X129910D01*
X100415D02*
X102732D01*
X98940D02*
X99572D01*
X96201D02*
X96412D01*
X92830D02*
X95359D01*
X86299D02*
X91356D01*
X59332D02*
X60175D01*
X56594D02*
X57226D01*
X50905D02*
X51748D01*
X46060D02*
X46902D01*
X142340Y83697D02*
X143183D01*
X135598D02*
X136441D01*
X132017D02*
X132649D01*
X129067D02*
X130121D01*
X100626D02*
X102732D01*
X96201D02*
X96412D01*
X92830D02*
X95359D01*
X86299D02*
X91356D01*
X59122D02*
X60175D01*
X56594D02*
X57226D01*
X45849D02*
X46692D01*
X142340Y83487D02*
X143394D01*
X135598D02*
X136230D01*
X132228D02*
X133070D01*
X129278D02*
X130121D01*
X100415D02*
X102522D01*
X93041D02*
X96623D01*
X86299D02*
X91356D01*
X59122D02*
X59964D01*
X56594D02*
X57226D01*
X45849D02*
X46692D01*
X142551Y83276D02*
X143394D01*
X135388D02*
X136230D01*
X132228D02*
X133492D01*
X129278D02*
X130121D01*
X100415D02*
X102522D01*
X93673D02*
X97676D01*
X86299D02*
X91356D01*
X59122D02*
X59964D01*
X56383D02*
X57226D01*
X52380D02*
X53223D01*
X45849D02*
X46692D01*
X142551Y83065D02*
X143394D01*
X135177D02*
X136020D01*
X132438D02*
X133702D01*
X129278D02*
X130121D01*
X100415D02*
X102522D01*
X93884D02*
X98519D01*
X86299D02*
X91356D01*
X59122D02*
X59754D01*
X56172D02*
X57015D01*
X52380D02*
X54065D01*
X45849D02*
X46692D01*
X142551Y82854D02*
X143394D01*
X135177D02*
X136020D01*
X132649D02*
X133913D01*
X129489D02*
X130331D01*
X100415D02*
X102522D01*
X96201D02*
X99151D01*
X93884D02*
X95569D01*
X86299D02*
X91356D01*
X58911D02*
X59754D01*
X55962D02*
X56804D01*
X52380D02*
X54697D01*
X45638D02*
X46481D01*
X142551Y82644D02*
X143394D01*
X134966D02*
X135809D01*
X133070D02*
X134334D01*
X129489D02*
X130331D01*
X100415D02*
X102522D01*
X97044D02*
X99783D01*
X96201D02*
X96623D01*
X86299D02*
X91356D01*
X58911D02*
X59754D01*
X52591D02*
X56594D01*
X45638D02*
X46481D01*
X142551Y82433D02*
X143604D01*
X134966D02*
X135809D01*
X133281D02*
X134545D01*
X129489D02*
X130331D01*
X100415D02*
X102311D01*
X97887D02*
X99783D01*
X86299D02*
X91356D01*
X58911D02*
X59754D01*
X53223D02*
X56383D01*
X45638D02*
X46481D01*
X142762Y82222D02*
X143604D01*
X138127D02*
X138759D01*
X133492D02*
X135598D01*
X129699D02*
X130331D01*
X100415D02*
X102311D01*
X98308D02*
X99993D01*
X86089D02*
X91566D01*
X58911D02*
X59754D01*
X54065D02*
X56804D01*
X45638D02*
X46481D01*
X142762Y82012D02*
X143604D01*
X137073D02*
X138759D01*
X133913D02*
X135388D01*
X129699D02*
X130542D01*
X100415D02*
X102100D01*
X99151D02*
X99993D01*
X86089D02*
X91566D01*
X58911D02*
X59543D01*
X54908D02*
X56804D01*
X45638D02*
X46481D01*
X142762Y81801D02*
X143604D01*
X136230D02*
X138969D01*
X134334D02*
X135388D01*
X129910D02*
X130542D01*
X100415D02*
X101679D01*
X86089D02*
X91566D01*
X58700D02*
X59543D01*
X55751D02*
X56804D01*
X45428D02*
X46481D01*
X142762Y81590D02*
X143604D01*
X135388D02*
X138759D01*
X134545D02*
X135177D01*
X129910D02*
X130542D01*
X99993D02*
X101468D01*
X86299D02*
X91566D01*
X58700D02*
X59543D01*
X45428D02*
X46270D01*
X142762Y81380D02*
X143604D01*
X134545D02*
X138127D01*
X129910D02*
X130542D01*
X100415D02*
X101258D01*
X86089D02*
X91566D01*
X58700D02*
X59332D01*
X45428D02*
X46270D01*
X142762Y81169D02*
X143604D01*
X133492D02*
X137284D01*
X129910D02*
X130753D01*
X86089D02*
X91566D01*
X58700D02*
X59332D01*
X45428D02*
X46270D01*
X142762Y80958D02*
X143604D01*
X132649D02*
X136230D01*
X129910D02*
X130753D01*
X86089D02*
X91566D01*
X58490D02*
X59332D01*
X45428D02*
X46270D01*
X142972Y80748D02*
X143815D01*
X132649D02*
X135177D01*
X129910D02*
X130753D01*
X86089D02*
X91566D01*
X58490D02*
X59122D01*
X45428D02*
X46270D01*
X142972Y80537D02*
X143815D01*
X132649D02*
X134124D01*
X130121D02*
X130753D01*
X85878D02*
X91566D01*
X58490D02*
X59122D01*
X45428D02*
X46270D01*
X142972Y80326D02*
X143815D01*
X130121D02*
X130753D01*
X85878D02*
X91566D01*
X58279D02*
X59122D01*
X51748D02*
X53855D01*
X45217D02*
X46060D01*
X142972Y80116D02*
X143815D01*
X130121D02*
X130963D01*
X85878D02*
X91566D01*
X58279D02*
X58911D01*
X51748D02*
X56172D01*
X45217D02*
X46060D01*
X142972Y79905D02*
X143815D01*
X130121D02*
X130963D01*
X85878D02*
X91566D01*
X58279D02*
X58911D01*
X51748D02*
X56172D01*
X45217D02*
X46060D01*
X142972Y79694D02*
X143815D01*
X130121D02*
X130963D01*
X85878D02*
X91777D01*
X58279D02*
X58911D01*
X52169D02*
X56172D01*
X45217D02*
X46060D01*
X142972Y79484D02*
X144026D01*
X130331D02*
X130963D01*
X85878D02*
X91777D01*
X58279D02*
X58911D01*
X55540D02*
X56172D01*
X51959D02*
X52801D01*
X45217D02*
X46060D01*
X142972Y79273D02*
X144026D01*
X135388D02*
X136441D01*
X130331D02*
X130963D01*
X85878D02*
X91777D01*
X58279D02*
X58911D01*
X51959D02*
X52591D01*
X45217D02*
X46060D01*
X143183Y79062D02*
X144026D01*
X135177D02*
X136862D01*
X130331D02*
X130963D01*
X86299D02*
X91777D01*
X58068D02*
X58911D01*
X51748D02*
X52380D01*
X45217D02*
X46060D01*
X143183Y78852D02*
X144026D01*
X135177D02*
X137284D01*
X133281D02*
X133913D01*
X130331D02*
X130963D01*
X86931D02*
X91777D01*
X58068D02*
X58911D01*
X51537D02*
X52380D01*
X45006D02*
X45849D01*
X143183Y78641D02*
X144026D01*
X135177D02*
X137495D01*
X133281D02*
X133913D01*
X130331D02*
X131174D01*
X87353D02*
X91777D01*
X58068D02*
X58700D01*
X51537D02*
X52169D01*
X45006D02*
X45849D01*
X143183Y78430D02*
X144026D01*
X136441D02*
X137495D01*
X135177D02*
X135809D01*
X133070D02*
X133913D01*
X130331D02*
X131174D01*
X87563D02*
X92198D01*
X58068D02*
X58700D01*
X51537D02*
X52169D01*
X45006D02*
X45849D01*
X143183Y78220D02*
X144236D01*
X136862D02*
X137705D01*
X135177D02*
X135809D01*
X133070D02*
X133702D01*
X130542D02*
X131174D01*
X87563D02*
X93041D01*
X86299D02*
X86721D01*
X58068D02*
X58700D01*
X51537D02*
X52169D01*
X45006D02*
X45849D01*
X143183Y78009D02*
X144236D01*
X137073D02*
X137705D01*
X135177D02*
X135809D01*
X133070D02*
X133702D01*
X130542D02*
X131174D01*
X87563D02*
X93252D01*
X86299D02*
X86721D01*
X58068D02*
X58700D01*
X51537D02*
X52380D01*
X45006D02*
X45849D01*
X143183Y77798D02*
X144236D01*
X137073D02*
X137705D01*
X135177D02*
X135809D01*
X133070D02*
X133702D01*
X130542D02*
X131174D01*
X87563D02*
X93252D01*
X86299D02*
X86721D01*
X58068D02*
X58700D01*
X51537D02*
X52380D01*
X45006D02*
X45849D01*
X143183Y77588D02*
X144236D01*
X137073D02*
X137705D01*
X135177D02*
X135809D01*
X133070D02*
X133702D01*
X130542D02*
X131385D01*
X94727D02*
X96412D01*
X87563D02*
X93462D01*
X86510D02*
X87142D01*
X57858D02*
X58700D01*
X51748D02*
X52801D01*
X45006D02*
X45849D01*
X143394Y77377D02*
X144236D01*
X137073D02*
X137705D01*
X135177D02*
X135809D01*
X133070D02*
X133702D01*
X130542D02*
X131385D01*
X94516D02*
X97676D01*
X87563D02*
X93462D01*
X86510D02*
X87142D01*
X57858D02*
X58700D01*
X51748D02*
X54697D01*
X45006D02*
X45849D01*
X143394Y77166D02*
X144236D01*
X137073D02*
X137705D01*
X135177D02*
X136020D01*
X133070D02*
X133702D01*
X130542D02*
X131385D01*
X94305D02*
X97887D01*
X87563D02*
X93462D01*
X86510D02*
X87142D01*
X57858D02*
X58700D01*
X51959D02*
X55962D01*
X45006D02*
X45849D01*
X143394Y76955D02*
X144236D01*
X137073D02*
X137705D01*
X135177D02*
X136020D01*
X133070D02*
X133913D01*
X130753D02*
X131385D01*
X87563D02*
X98097D01*
X85667D02*
X85878D01*
X57858D02*
X58700D01*
X52169D02*
X55962D01*
X45006D02*
X45638D01*
X143394Y76745D02*
X144236D01*
X137073D02*
X137705D01*
X135388D02*
X136020D01*
X133281D02*
X133913D01*
X130753D02*
X131385D01*
X87563D02*
X98097D01*
X85667D02*
X85878D01*
X57858D02*
X58700D01*
X51959D02*
X55962D01*
X45006D02*
X45638D01*
X143394Y76534D02*
X144236D01*
X136862D02*
X137705D01*
X135388D02*
X136020D01*
X133281D02*
X134124D01*
X130753D02*
X131385D01*
X87563D02*
X98308D01*
X86299D02*
X86931D01*
X85667D02*
X85878D01*
X57858D02*
X58700D01*
X55329D02*
X55751D01*
X51748D02*
X52591D01*
X44796D02*
X45638D01*
X143394Y76323D02*
X144447D01*
X136652D02*
X137705D01*
X135388D02*
X136020D01*
X133281D02*
X134334D01*
X130753D02*
X131385D01*
X87563D02*
X98308D01*
X86299D02*
X87142D01*
X85667D02*
X85878D01*
X57858D02*
X58700D01*
X51537D02*
X52380D01*
X44796D02*
X45638D01*
X143394Y76113D02*
X144447D01*
X135388D02*
X137495D01*
X133492D02*
X134545D01*
X130753D02*
X131385D01*
X87563D02*
X98519D01*
X86299D02*
X87142D01*
X85667D02*
X85878D01*
X57858D02*
X58700D01*
X51537D02*
X52169D01*
X44796D02*
X45638D01*
X143394Y75902D02*
X144447D01*
X133492D02*
X137284D01*
X130753D02*
X131385D01*
X87563D02*
X99151D01*
X86721D02*
X86931D01*
X86299D02*
X86510D01*
X85667D02*
X86089D01*
X57858D02*
X58700D01*
X51327D02*
X51959D01*
X44796D02*
X45638D01*
X143394Y75691D02*
X144447D01*
X133702D02*
X137073D01*
X130753D02*
X131385D01*
X87563D02*
X99572D01*
X85667D02*
X86089D01*
X57858D02*
X58700D01*
X51327D02*
X51959D01*
X44796D02*
X45638D01*
X143394Y75481D02*
X144447D01*
X134124D02*
X136862D01*
X130753D02*
X131385D01*
X87563D02*
X99572D01*
X86721D02*
X87142D01*
X85667D02*
X86089D01*
X57858D02*
X58490D01*
X51327D02*
X51959D01*
X44796D02*
X45638D01*
X143394Y75270D02*
X144447D01*
X134334D02*
X136441D01*
X130753D02*
X131385D01*
X87563D02*
X99572D01*
X86721D02*
X87142D01*
X85667D02*
X86089D01*
X57858D02*
X58490D01*
X51327D02*
X51959D01*
X44796D02*
X45638D01*
X143394Y75059D02*
X144447D01*
X130753D02*
X131596D01*
X87563D02*
X99572D01*
X86931D02*
X87142D01*
X85667D02*
X86089D01*
X57858D02*
X58490D01*
X51327D02*
X52169D01*
X44796D02*
X45638D01*
X143394Y74849D02*
X144447D01*
X130753D02*
X131596D01*
X87563D02*
X99151D01*
X86931D02*
X87142D01*
X86299D02*
X86721D01*
X85667D02*
X86089D01*
X57858D02*
X58490D01*
X51327D02*
X52380D01*
X44796D02*
X45638D01*
X143394Y74638D02*
X144447D01*
X130753D02*
X131596D01*
X87563D02*
X99151D01*
X86299D02*
X87353D01*
X85667D02*
X86089D01*
X57858D02*
X58490D01*
X51537D02*
X52591D01*
X44796D02*
X45638D01*
X143394Y74427D02*
X144447D01*
X130753D02*
X131596D01*
X87563D02*
X98940D01*
X86299D02*
X87142D01*
X85667D02*
X86089D01*
X57858D02*
X58490D01*
X51537D02*
X54487D01*
X44796D02*
X45638D01*
X143394Y74217D02*
X144447D01*
X130753D02*
X131596D01*
X87563D02*
X98940D01*
X85457D02*
X86089D01*
X57647D02*
X58490D01*
X51748D02*
X55751D01*
X44796D02*
X45638D01*
X143394Y74006D02*
X144447D01*
X130753D02*
X131596D01*
X87563D02*
X98940D01*
X85457D02*
X86089D01*
X57647D02*
X58490D01*
X52169D02*
X55751D01*
X44796D02*
X45638D01*
X143394Y73795D02*
X144447D01*
X130753D02*
X131596D01*
X87563D02*
X99151D01*
X85457D02*
X86089D01*
X57647D02*
X58490D01*
X53644D02*
X55751D01*
X44796D02*
X45638D01*
X143604Y73585D02*
X144447D01*
X133492D02*
X135177D01*
X130753D02*
X131596D01*
X87563D02*
X99361D01*
X86721D02*
X87142D01*
X85457D02*
X86089D01*
X57647D02*
X58490D01*
X44796D02*
X45638D01*
X143604Y73374D02*
X144447D01*
X133492D02*
X137705D01*
X130753D02*
X131596D01*
X87563D02*
X99572D01*
X86931D02*
X87142D01*
X85457D02*
X86089D01*
X57647D02*
X58490D01*
X44796D02*
X45638D01*
X143604Y73163D02*
X144447D01*
X133492D02*
X139391D01*
X130753D02*
X131596D01*
X87563D02*
X99783D01*
X85457D02*
X86089D01*
X57647D02*
X58490D01*
X44796D02*
X45638D01*
X143604Y72953D02*
X144447D01*
X133492D02*
X139391D01*
X130753D02*
X131596D01*
X87563D02*
X99993D01*
X86931D02*
X87142D01*
X86299D02*
X86510D01*
X85457D02*
X86089D01*
X57647D02*
X58490D01*
X44796D02*
X45638D01*
X143604Y72742D02*
X144447D01*
X134966D02*
X139391D01*
X130753D02*
X131596D01*
X87563D02*
X100204D01*
X86299D02*
X87142D01*
X85457D02*
X86089D01*
X57647D02*
X58490D01*
X44796D02*
X45638D01*
X143604Y72531D02*
X144447D01*
X138337D02*
X139391D01*
X130753D02*
X131596D01*
X87563D02*
X100626D01*
X86299D02*
X87142D01*
X85457D02*
X86089D01*
X57647D02*
X58490D01*
X44796D02*
X45638D01*
X143394Y72321D02*
X144447D01*
X137916D02*
X139391D01*
X130753D02*
X131596D01*
X87563D02*
X100626D01*
X85457D02*
X86089D01*
X57647D02*
X58490D01*
X44796D02*
X45638D01*
X143394Y72110D02*
X144447D01*
X137284D02*
X139391D01*
X130753D02*
X131596D01*
X87563D02*
X101047D01*
X85457D02*
X86089D01*
X57647D02*
X58490D01*
X44796D02*
X45638D01*
X143394Y71899D02*
X144447D01*
X136441D02*
X138969D01*
X130753D02*
X131596D01*
X87563D02*
X101258D01*
X85457D02*
X86721D01*
X57858D02*
X58490D01*
X53012D02*
X55119D01*
X44796D02*
X45638D01*
X143394Y71688D02*
X144447D01*
X135809D02*
X138337D01*
X130753D02*
X131596D01*
X85457D02*
X101468D01*
X57858D02*
X58490D01*
X51537D02*
X55540D01*
X44796D02*
X45638D01*
X143394Y71478D02*
X144447D01*
X134966D02*
X137495D01*
X130753D02*
X131596D01*
X85246D02*
X102732D01*
X57858D02*
X58490D01*
X51327D02*
X55751D01*
X44796D02*
X45638D01*
X143394Y71267D02*
X144447D01*
X134545D02*
X136862D01*
X130753D02*
X131596D01*
X85246D02*
X102732D01*
X57858D02*
X58490D01*
X54697D02*
X55962D01*
X51327D02*
X53855D01*
X44796D02*
X45638D01*
X143394Y71056D02*
X144447D01*
X134545D02*
X136020D01*
X130542D02*
X131385D01*
X85246D02*
X102732D01*
X57858D02*
X58490D01*
X55119D02*
X55962D01*
X44796D02*
X45638D01*
X143394Y70846D02*
X144447D01*
X134334D02*
X135598D01*
X130542D02*
X131385D01*
X85246D02*
X104207D01*
X57858D02*
X58490D01*
X55329D02*
X55962D01*
X49641D02*
X50484D01*
X44796D02*
X45638D01*
X143394Y70635D02*
X144447D01*
X134334D02*
X135598D01*
X130542D02*
X131385D01*
X85246D02*
X103154D01*
X57858D02*
X58490D01*
X55329D02*
X56172D01*
X49641D02*
X50484D01*
X44796D02*
X45638D01*
X143394Y70424D02*
X144447D01*
X134545D02*
X136020D01*
X130542D02*
X131385D01*
X85246D02*
X102943D01*
X57858D02*
X58490D01*
X55540D02*
X56172D01*
X49852D02*
X50484D01*
X44796D02*
X45638D01*
X143394Y70214D02*
X144447D01*
X134756D02*
X136652D01*
X130542D02*
X131385D01*
X104207D02*
X104418D01*
X85246D02*
X102732D01*
X63546D02*
X63757D01*
X57858D02*
X58490D01*
X55540D02*
X56172D01*
X50063D02*
X50273D01*
X44796D02*
X45638D01*
X143394Y70003D02*
X144447D01*
X135388D02*
X136862D01*
X130753D02*
X131385D01*
X103996D02*
X104418D01*
X102311D02*
X102732D01*
X85246D02*
X99783D01*
X57858D02*
X58490D01*
X55540D02*
X55962D01*
X44796D02*
X45638D01*
X143394Y69792D02*
X144447D01*
X135809D02*
X137495D01*
X130753D02*
X131385D01*
X103996D02*
X104629D01*
X102311D02*
X102732D01*
X85246D02*
X99572D01*
X57858D02*
X58700D01*
X55329D02*
X55962D01*
X44796D02*
X45638D01*
X143394Y69582D02*
X144236D01*
X136230D02*
X137916D01*
X130753D02*
X131385D01*
X103996D02*
X104418D01*
X102522D02*
X103364D01*
X85246D02*
X99572D01*
X57858D02*
X58700D01*
X55329D02*
X55962D01*
X44796D02*
X45638D01*
X143394Y69371D02*
X144236D01*
X136652D02*
X138337D01*
X130542D02*
X131385D01*
X103786D02*
X104418D01*
X102311D02*
X103364D01*
X85457D02*
X99572D01*
X57858D02*
X58700D01*
X55119D02*
X55751D01*
X49852D02*
X50484D01*
X45006D02*
X45638D01*
X143394Y69160D02*
X144236D01*
X137073D02*
X138969D01*
X130331D02*
X131385D01*
X103786D02*
X104418D01*
X102311D02*
X103364D01*
X85457D02*
X99783D01*
X57858D02*
X58700D01*
X54697D02*
X55751D01*
X49852D02*
X50695D01*
X45006D02*
X45849D01*
X143394Y68950D02*
X144236D01*
X137705D02*
X138969D01*
X133281D02*
X134124D01*
X130331D02*
X131385D01*
X103786D02*
X104418D01*
X101679D02*
X103364D01*
X85667D02*
X100204D01*
X57858D02*
X58700D01*
X53855D02*
X56172D01*
X49852D02*
X50695D01*
X45006D02*
X45849D01*
X143183Y68739D02*
X144236D01*
X138127D02*
X139180D01*
X133070D02*
X136652D01*
X130331D02*
X131385D01*
X103786D02*
X104418D01*
X101679D02*
X103364D01*
X86089D02*
X100204D01*
X57858D02*
X58700D01*
X51748D02*
X56172D01*
X49852D02*
X50484D01*
X45006D02*
X45849D01*
X143183Y68528D02*
X144236D01*
X133070D02*
X139180D01*
X130331D02*
X131174D01*
X103786D02*
X104629D01*
X101679D02*
X103364D01*
X86299D02*
X100204D01*
X58068D02*
X58700D01*
X51748D02*
X56172D01*
X45006D02*
X45849D01*
X143183Y68318D02*
X144236D01*
X133281D02*
X139180D01*
X130331D02*
X131174D01*
X103786D02*
X104839D01*
X101679D02*
X103364D01*
X86510D02*
X100204D01*
X58068D02*
X58911D01*
X51748D02*
X55540D01*
X45006D02*
X45849D01*
X143183Y68107D02*
X144236D01*
X133913D02*
X139180D01*
X130331D02*
X131174D01*
X103786D02*
X104839D01*
X101679D02*
X103364D01*
X86721D02*
X100204D01*
X58068D02*
X58911D01*
X51748D02*
X52801D01*
X45006D02*
X45849D01*
X143183Y67896D02*
X144026D01*
X137284D02*
X138969D01*
X130331D02*
X131174D01*
X103786D02*
X105050D01*
X101679D02*
X103364D01*
X87142D02*
X100204D01*
X58068D02*
X58911D01*
X45006D02*
X45849D01*
X143183Y67686D02*
X144026D01*
X130331D02*
X131174D01*
X103786D02*
X105261D01*
X101679D02*
X103364D01*
X87563D02*
X100204D01*
X58068D02*
X58911D01*
X45006D02*
X45849D01*
X143183Y67475D02*
X144026D01*
X130331D02*
X130963D01*
X103786D02*
X105261D01*
X101679D02*
X103364D01*
X87985D02*
X100204D01*
X58068D02*
X58911D01*
X45006D02*
X45849D01*
X143183Y67264D02*
X144026D01*
X130331D02*
X130963D01*
X105893D02*
X106103D01*
X101679D02*
X105471D01*
X88406D02*
X100204D01*
X58068D02*
X58911D01*
X45006D02*
X45849D01*
X143183Y67054D02*
X144026D01*
X130331D02*
X130963D01*
X101679D02*
X105682D01*
X88617D02*
X100204D01*
X58279D02*
X58911D01*
X45217D02*
X46060D01*
X142972Y66843D02*
X144026D01*
X130121D02*
X130963D01*
X101679D02*
X105893D01*
X89249D02*
X100204D01*
X58279D02*
X58911D01*
X45217D02*
X46060D01*
X142972Y66632D02*
X143815D01*
X130121D02*
X130963D01*
X101679D02*
X106314D01*
X89038D02*
X100204D01*
X58279D02*
X58911D01*
X45217D02*
X46060D01*
X142972Y66422D02*
X143815D01*
X130121D02*
X130963D01*
X101679D02*
X106525D01*
X88828D02*
X100415D01*
X58279D02*
X59122D01*
X45217D02*
X46060D01*
X142972Y66211D02*
X143815D01*
X130121D02*
X130963D01*
X101468D02*
X106525D01*
X88617D02*
X100626D01*
X58279D02*
X59122D01*
X45217D02*
X46060D01*
X142972Y66000D02*
X143815D01*
X130121D02*
X130753D01*
X101679D02*
X107157D01*
X88406D02*
X100415D01*
X58279D02*
X59122D01*
X45217D02*
X46060D01*
X142972Y65790D02*
X143815D01*
X129910D02*
X130753D01*
X101468D02*
X107367D01*
X93252D02*
X100415D01*
X88617D02*
X92409D01*
X58490D02*
X59122D01*
X45217D02*
X46060D01*
X142972Y65579D02*
X143815D01*
X129910D02*
X130753D01*
X101468D02*
X107367D01*
X93462D02*
X100626D01*
X88828D02*
X92198D01*
X58490D02*
X59332D01*
X45428D02*
X46270D01*
X142762Y65368D02*
X143815D01*
X129910D02*
X130753D01*
X101468D02*
X107578D01*
X93673D02*
X100626D01*
X89038D02*
X91988D01*
X58490D02*
X59543D01*
X45428D02*
X46270D01*
X142762Y65158D02*
X143604D01*
X129910D02*
X130753D01*
X101468D02*
X107578D01*
X94095D02*
X100626D01*
X89881D02*
X91566D01*
X58490D02*
X59543D01*
X45428D02*
X46270D01*
X142762Y64947D02*
X143604D01*
X129699D02*
X130542D01*
X101468D02*
X107578D01*
X94305D02*
X100626D01*
X90302D02*
X91356D01*
X58700D02*
X59543D01*
X45428D02*
X46270D01*
X142762Y64736D02*
X143604D01*
X129699D02*
X130542D01*
X94516D02*
X107578D01*
X90513D02*
X91145D01*
X58700D02*
X59543D01*
X45428D02*
X46270D01*
X142762Y64525D02*
X143604D01*
X129699D02*
X130542D01*
X94727D02*
X107578D01*
X58700D02*
X59543D01*
X45428D02*
X46481D01*
X142762Y64315D02*
X143604D01*
X129489D02*
X130542D01*
X95148D02*
X107578D01*
X58700D02*
X59754D01*
X45638D02*
X46481D01*
X142762Y64104D02*
X143604D01*
X129489D02*
X130331D01*
X95359D02*
X107578D01*
X58911D02*
X59754D01*
X45638D02*
X46481D01*
X142551Y63893D02*
X143604D01*
X129278D02*
X130331D01*
X95569D02*
X107578D01*
X58911D02*
X59754D01*
X45638D02*
X46481D01*
X142551Y63683D02*
X143394D01*
X129278D02*
X130331D01*
X95780D02*
X107578D01*
X58911D02*
X59754D01*
X45638D02*
X46481D01*
X142551Y63472D02*
X143394D01*
X129278D02*
X130331D01*
X112002D02*
X112213D01*
X95569D02*
X107578D01*
X58911D02*
X59754D01*
X45638D02*
X46481D01*
X142551Y63261D02*
X143394D01*
X129278D02*
X130121D01*
X112002D02*
X112424D01*
X95569D02*
X107578D01*
X59122D02*
X59754D01*
X45638D02*
X46692D01*
X142551Y63051D02*
X143394D01*
X129067D02*
X130121D01*
X112002D02*
X112424D01*
X95359D02*
X107367D01*
X92830D02*
X94937D01*
X59122D02*
X59754D01*
X45849D02*
X46692D01*
X142340Y62840D02*
X143394D01*
X129067D02*
X130121D01*
X95148D02*
X107367D01*
X92620D02*
X94727D01*
X59122D02*
X60175D01*
X45849D02*
X46692D01*
X142340Y62629D02*
X143394D01*
X129067D02*
X130121D01*
X110949D02*
X111370D01*
X94937D02*
X107367D01*
X92620D02*
X94727D01*
X59122D02*
X60175D01*
X45849D02*
X46692D01*
X142340Y62419D02*
X143183D01*
X129067D02*
X129910D01*
X111160D02*
X112002D01*
X94937D02*
X107367D01*
X92409D02*
X94305D01*
X59332D02*
X60386D01*
X55540D02*
X56172D01*
X45849D02*
X46692D01*
X142129Y62208D02*
X143183D01*
X129067D02*
X129910D01*
X119165D02*
X120429D01*
X117059D02*
X117901D01*
X111370D02*
X112002D01*
X94727D02*
X107367D01*
X92198D02*
X94305D01*
X59332D02*
X60386D01*
X55540D02*
X56172D01*
X54487D02*
X55119D01*
X46060D02*
X46902D01*
X142129Y61997D02*
X143183D01*
X128857D02*
X129910D01*
X118955D02*
X120429D01*
X117059D02*
X117901D01*
X111581D02*
X112002D01*
X94516D02*
X107367D01*
X92198D02*
X94095D01*
X59332D02*
X60386D01*
X55540D02*
X56172D01*
X53433D02*
X55329D01*
X46060D02*
X46902D01*
X142129Y61787D02*
X143183D01*
X128857D02*
X129699D01*
X118955D02*
X120008D01*
X117059D02*
X117691D01*
X94516D02*
X107367D01*
X59543D02*
X60386D01*
X53012D02*
X55119D01*
X46060D02*
X46902D01*
X142129Y61576D02*
X142972D01*
X128857D02*
X129699D01*
X118323D02*
X119797D01*
X116427D02*
X116848D01*
X94516D02*
X107367D01*
X59543D02*
X60596D01*
X53012D02*
X53855D01*
X46060D02*
X46902D01*
X141919Y61365D02*
X142972D01*
X133913D02*
X134545D01*
X128646D02*
X129699D01*
X116427D02*
X119376D01*
X94516D02*
X107367D01*
X92620D02*
X93041D01*
X59543D02*
X60596D01*
X46270D02*
X47113D01*
X141919Y61155D02*
X142972D01*
X133702D02*
X135598D01*
X128646D02*
X129489D01*
X116637D02*
X119165D01*
X94516D02*
X107367D01*
X92620D02*
X93041D01*
X59754D02*
X60596D01*
X55119D02*
X55329D01*
X46270D02*
X47113D01*
X141919Y60944D02*
X142762D01*
X133702D02*
X136441D01*
X128225D02*
X129489D01*
X116637D02*
X118323D01*
X94516D02*
X107367D01*
X59754D02*
X60807D01*
X54908D02*
X55329D01*
X53644D02*
X54065D01*
X46270D02*
X47113D01*
X141919Y60733D02*
X142762D01*
X133702D02*
X137073D01*
X128225D02*
X129489D01*
X116848D02*
X117691D01*
X94727D02*
X107367D01*
X59964D02*
X60807D01*
X55119D02*
X55540D01*
X53223D02*
X54276D01*
X46270D02*
X47113D01*
X141708Y60523D02*
X142762D01*
X134966D02*
X137284D01*
X133702D02*
X134334D01*
X128225D02*
X129278D01*
X117059D02*
X117691D01*
X94727D02*
X107367D01*
X59964D02*
X60807D01*
X55119D02*
X55540D01*
X53223D02*
X54487D01*
X46481D02*
X47324D01*
X141708Y60312D02*
X142762D01*
X136020D02*
X137284D01*
X134966D02*
X135598D01*
X133702D02*
X134124D01*
X128225D02*
X129278D01*
X94727D02*
X107367D01*
X59964D02*
X60807D01*
X55119D02*
X55540D01*
X54065D02*
X54697D01*
X53223D02*
X53644D01*
X46481D02*
X47324D01*
X141708Y60101D02*
X142551D01*
X136652D02*
X137284D01*
X134966D02*
X135598D01*
X133492D02*
X134124D01*
X128225D02*
X129278D01*
X94727D02*
X107367D01*
X60175D02*
X61018D01*
X55119D02*
X55540D01*
X54065D02*
X54697D01*
X53223D02*
X53644D01*
X46481D02*
X47324D01*
X141708Y59891D02*
X142551D01*
X136652D02*
X137284D01*
X134966D02*
X135598D01*
X133492D02*
X134124D01*
X128014D02*
X129067D01*
X94727D02*
X107367D01*
X60175D02*
X61229D01*
X54276D02*
X55540D01*
X53223D02*
X53644D01*
X46481D02*
X47534D01*
X141708Y59680D02*
X142551D01*
X136441D02*
X137073D01*
X134966D02*
X135388D01*
X133492D02*
X134124D01*
X128014D02*
X129067D01*
X94727D02*
X107367D01*
X60175D02*
X61229D01*
X54276D02*
X55540D01*
X53223D02*
X53644D01*
X46692D02*
X47534D01*
X141497Y59469D02*
X142551D01*
X136441D02*
X137073D01*
X134756D02*
X135388D01*
X133492D02*
X134124D01*
X128014D02*
X128857D01*
X94516D02*
X107367D01*
X60386D02*
X61439D01*
X54487D02*
X55329D01*
X53223D02*
X53644D01*
X46692D02*
X47534D01*
X141497Y59259D02*
X142340D01*
X136441D02*
X137073D01*
X134756D02*
X135388D01*
X133492D02*
X133913D01*
X127803D02*
X128857D01*
X94516D02*
X107367D01*
X86299D02*
X86931D01*
X60386D02*
X61439D01*
X53223D02*
X53855D01*
X46692D02*
X47534D01*
X141497Y59048D02*
X142340D01*
X136441D02*
X137073D01*
X134756D02*
X135388D01*
X127803D02*
X128857D01*
X94516D02*
X107367D01*
X86299D02*
X86931D01*
X60386D02*
X61439D01*
X53433D02*
X53855D01*
X46692D02*
X47745D01*
X141497Y58837D02*
X142340D01*
X136230D02*
X136862D01*
X127171D02*
X128646D01*
X94727D02*
X107367D01*
X86510D02*
X86721D01*
X60596D02*
X61650D01*
X54487D02*
X55540D01*
X46902D02*
X47745D01*
X141287Y58626D02*
X142340D01*
X136441D02*
X136862D01*
X127171D02*
X128646D01*
X94727D02*
X107367D01*
X60596D02*
X61650D01*
X54487D02*
X55962D01*
X46902D02*
X47745D01*
X141287Y58416D02*
X142129D01*
X134124D02*
X134756D01*
X127171D02*
X128435D01*
X94727D02*
X107367D01*
X85457D02*
X86089D01*
X60807D02*
X61650D01*
X54487D02*
X55962D01*
X46902D02*
X47956D01*
X141076Y58205D02*
X142129D01*
X133913D02*
X135388D01*
X126750D02*
X128435D01*
X94516D02*
X107367D01*
X84614D02*
X85667D01*
X60807D02*
X61861D01*
X55540D02*
X56172D01*
X54697D02*
X55119D01*
X53644D02*
X54065D01*
X47113D02*
X47956D01*
X141076Y57994D02*
X142129D01*
X134124D02*
X136230D01*
X126750D02*
X128225D01*
X94516D02*
X107367D01*
X84614D02*
X85246D01*
X61018D02*
X61861D01*
X55540D02*
X56172D01*
X54697D02*
X55119D01*
X53644D02*
X54065D01*
X47113D02*
X47956D01*
X141076Y57784D02*
X141919D01*
X133913D02*
X136652D01*
X126750D02*
X128225D01*
X94516D02*
X107367D01*
X84614D02*
X85035D01*
X61018D02*
X61861D01*
X55751D02*
X56172D01*
X54697D02*
X55119D01*
X53644D02*
X54065D01*
X47113D02*
X48166D01*
X140865Y57573D02*
X141919D01*
X135388D02*
X136652D01*
X133702D02*
X134545D01*
X126750D02*
X128014D01*
X94727D02*
X107367D01*
X83982D02*
X84403D01*
X83139D02*
X83771D01*
X82296D02*
X82929D01*
X81875D02*
X82086D01*
X61229D02*
X62071D01*
X55540D02*
X56172D01*
X54697D02*
X55119D01*
X53644D02*
X54065D01*
X47324D02*
X48166D01*
X140865Y57362D02*
X141919D01*
X133702D02*
X134334D01*
X126961D02*
X128014D01*
X94727D02*
X107367D01*
X87353D02*
X87985D01*
X83139D02*
X84403D01*
X81032D02*
X82929D01*
X67338D02*
X67970D01*
X61229D02*
X62282D01*
X55540D02*
X56172D01*
X54908D02*
X55329D01*
X53644D02*
X54276D01*
X47324D02*
X48166D01*
X140865Y57152D02*
X141708D01*
X133702D02*
X134124D01*
X126961D02*
X128014D01*
X94727D02*
X107367D01*
X81032D02*
X81875D01*
X79136D02*
X79558D01*
X61439D02*
X62282D01*
X54908D02*
X55962D01*
X53855D02*
X54276D01*
X47324D02*
X48377D01*
X140655Y56941D02*
X141708D01*
X126750D02*
X127803D01*
X94727D02*
X107367D01*
X79136D02*
X79558D01*
X61439D02*
X62493D01*
X53855D02*
X55962D01*
X47534D02*
X48377D01*
X140655Y56730D02*
X141497D01*
X133913D02*
X134966D01*
X126750D02*
X127593D01*
X94727D02*
X107367D01*
X61439D02*
X62493D01*
X56172D02*
X56383D01*
X54065D02*
X55540D01*
X47534D02*
X48377D01*
X140655Y56520D02*
X141497D01*
X133492D02*
X135388D01*
X126750D02*
X127593D01*
X94727D02*
X107367D01*
X61650D02*
X62703D01*
X56172D02*
X56383D01*
X54487D02*
X55119D01*
X47534D02*
X48588D01*
X140444Y56309D02*
X141497D01*
X133492D02*
X135598D01*
X126329D02*
X127382D01*
X94727D02*
X107367D01*
X61650D02*
X62914D01*
X56172D02*
X56594D01*
X47745D02*
X48588D01*
X140444Y56098D02*
X141287D01*
X134756D02*
X135809D01*
X133281D02*
X134124D01*
X126118D02*
X127382D01*
X94727D02*
X107367D01*
X61861D02*
X62914D01*
X56172D02*
X57436D01*
X47745D02*
X48798D01*
X140444Y55888D02*
X141287D01*
X135177D02*
X135809D01*
X133281D02*
X133913D01*
X126118D02*
X127171D01*
X123800D02*
X124432D01*
X120851D02*
X121272D01*
X94727D02*
X107367D01*
X61861D02*
X62914D01*
X56172D02*
X57436D01*
X54276D02*
X54697D01*
X47745D02*
X48798D01*
X140233Y55677D02*
X141287D01*
X135177D02*
X136020D01*
X133070D02*
X133702D01*
X126118D02*
X127171D01*
X123168D02*
X125064D01*
X120219D02*
X122747D01*
X116637D02*
X117901D01*
X94727D02*
X107367D01*
X87353D02*
X87563D01*
X86089D02*
X86931D01*
X81243D02*
X81875D01*
X77240D02*
X77662D01*
X62071D02*
X63335D01*
X55751D02*
X57226D01*
X54276D02*
X54697D01*
X47956D02*
X48798D01*
X140233Y55466D02*
X141076D01*
X135388D02*
X136020D01*
X133070D02*
X133702D01*
X116427D02*
X127171D01*
X115162D02*
X115584D01*
X94727D02*
X107367D01*
X86721D02*
X87774D01*
X84193D02*
X84403D01*
X78294D02*
X78926D01*
X62282D02*
X63546D01*
X55119D02*
X57015D01*
X54276D02*
X54908D01*
X47956D02*
X49009D01*
X140023Y55256D02*
X141076D01*
X135388D02*
X136020D01*
X133070D02*
X133702D01*
X114952D02*
X126961D01*
X94727D02*
X107367D01*
X86931D02*
X87774D01*
X83982D02*
X84614D01*
X79768D02*
X80611D01*
X78083D02*
X78926D01*
X75976D02*
X76397D01*
X62282D02*
X63546D01*
X56594D02*
X56804D01*
X54276D02*
X56172D01*
X48166D02*
X49009D01*
X140023Y55045D02*
X141076D01*
X135177D02*
X135809D01*
X133281D02*
X133492D01*
X114952D02*
X126750D01*
X94516D02*
X107367D01*
X85667D02*
X86299D01*
X82296D02*
X83350D01*
X79558D02*
X80822D01*
X78083D02*
X79136D01*
X75976D02*
X76397D01*
X62493D02*
X63757D01*
X57226D02*
X57858D01*
X54487D02*
X55540D01*
X48166D02*
X49009D01*
X140023Y54834D02*
X140865D01*
X135177D02*
X135809D01*
X131806D02*
X132438D01*
X114741D02*
X126750D01*
X107999D02*
X108421D01*
X94516D02*
X107789D01*
X85667D02*
X86510D01*
X82296D02*
X83350D01*
X75765D02*
X76397D01*
X62493D02*
X63757D01*
X56804D02*
X57858D01*
X48166D02*
X49220D01*
X139812Y54624D02*
X140865D01*
X134966D02*
X135598D01*
X132860D02*
X133070D01*
X131806D02*
X132438D01*
X112634D02*
X126539D01*
X94516D02*
X109053D01*
X85667D02*
X86510D01*
X82507D02*
X83561D01*
X75133D02*
X76187D01*
X62703D02*
X63757D01*
X56172D02*
X57436D01*
X48377D02*
X49220D01*
X139812Y54413D02*
X140865D01*
X135177D02*
X135598D01*
X132649D02*
X133702D01*
X132017D02*
X132228D01*
X112845D02*
X126539D01*
X94305D02*
X109474D01*
X90934D02*
X91777D01*
X87985D02*
X88406D01*
X85667D02*
X86721D01*
X83771D02*
X84825D01*
X62703D02*
X63967D01*
X55751D02*
X57226D01*
X48377D02*
X49220D01*
X139601Y54202D02*
X140655D01*
X132649D02*
X134124D01*
X112845D02*
X126329D01*
X94305D02*
X110106D01*
X90724D02*
X91777D01*
X87985D02*
X88406D01*
X85667D02*
X86721D01*
X83771D02*
X85035D01*
X62914D02*
X63967D01*
X55329D02*
X56594D01*
X48377D02*
X49430D01*
X139601Y53992D02*
X140655D01*
X133070D02*
X134756D01*
X112845D02*
X126118D01*
X111370D02*
X112213D01*
X94305D02*
X110106D01*
X90724D02*
X91777D01*
X87774D02*
X88406D01*
X85667D02*
X86721D01*
X83982D02*
X85246D01*
X63125D02*
X64178D01*
X54908D02*
X56172D01*
X48588D02*
X49430D01*
X139601Y53781D02*
X140444D01*
X133492D02*
X135177D01*
X112845D02*
X126118D01*
X110738D02*
X112213D01*
X94305D02*
X109896D01*
X90302D02*
X91566D01*
X87774D02*
X88406D01*
X85878D02*
X86721D01*
X84403D02*
X85246D01*
X63125D02*
X64389D01*
X58068D02*
X58490D01*
X57015D02*
X57436D01*
X54908D02*
X55751D01*
X48588D02*
X49641D01*
X139391Y53570D02*
X140444D01*
X134124D02*
X135177D01*
X132438D02*
X132860D01*
X113056D02*
X125907D01*
X110528D02*
X112213D01*
X94305D02*
X109896D01*
X90092D02*
X91566D01*
X87985D02*
X88196D01*
X86089D02*
X86721D01*
X84403D02*
X85035D01*
X63335D02*
X64389D01*
X58068D02*
X58490D01*
X56594D02*
X57436D01*
X48798D02*
X49641D01*
X139391Y53359D02*
X140233D01*
X134545D02*
X135177D01*
X132438D02*
X133070D01*
X115795D02*
X125907D01*
X110106D02*
X110949D01*
X94305D02*
X109685D01*
X89881D02*
X91566D01*
X63546D02*
X64599D01*
X56172D02*
X57436D01*
X48798D02*
X49852D01*
X139180Y53149D02*
X140233D01*
X132438D02*
X133281D01*
X116005D02*
X125696D01*
X94305D02*
X109474D01*
X89881D02*
X91566D01*
X63546D02*
X64599D01*
X58490D02*
X58700D01*
X55751D02*
X57015D01*
X48798D02*
X49852D01*
X139180Y52938D02*
X140023D01*
X132649D02*
X133492D01*
X116005D02*
X125486D01*
X94305D02*
X109053D01*
X89881D02*
X91988D01*
X63757D02*
X64810D01*
X58279D02*
X58700D01*
X55329D02*
X56594D01*
X49009D02*
X50063D01*
X138969Y52727D02*
X140023D01*
X132860D02*
X133702D01*
X116005D02*
X125486D01*
X109474D02*
X110949D01*
X94305D02*
X108842D01*
X90934D02*
X92198D01*
X63757D02*
X65021D01*
X58279D02*
X58911D01*
X55329D02*
X56383D01*
X49220D02*
X50063D01*
X138969Y52517D02*
X140023D01*
X133070D02*
X133913D01*
X116005D02*
X125275D01*
X109053D02*
X110738D01*
X94516D02*
X108421D01*
X90724D02*
X92409D01*
X63967D02*
X65021D01*
X55329D02*
X56172D01*
X49220D02*
X50273D01*
X138759Y52306D02*
X139812D01*
X133281D02*
X134124D01*
X116005D02*
X125064D01*
X109053D02*
X109685D01*
X94727D02*
X108421D01*
X64178D02*
X65442D01*
X57858D02*
X58068D01*
X55540D02*
X55962D01*
X49430D02*
X50273D01*
X138759Y52095D02*
X139812D01*
X135177D02*
X135598D01*
X133492D02*
X134334D01*
X116005D02*
X125064D01*
X94727D02*
X108210D01*
X64178D02*
X65442D01*
X57226D02*
X58279D01*
X55540D02*
X55962D01*
X49430D02*
X50273D01*
X138548Y51885D02*
X139601D01*
X131596D02*
X135598D01*
X116427D02*
X124854D01*
X93884D02*
X107999D01*
X64389D02*
X65653D01*
X56804D02*
X58068D01*
X55540D02*
X56172D01*
X49641D02*
X50484D01*
X138548Y51674D02*
X139601D01*
X131596D02*
X135388D01*
X116637D02*
X124643D01*
X93884D02*
X107789D01*
X64599D02*
X65863D01*
X58279D02*
X58490D01*
X55751D02*
X57647D01*
X49641D02*
X50484D01*
X138337Y51463D02*
X139391D01*
X131806D02*
X135388D01*
X116637D02*
X124432D01*
X93673D02*
X107789D01*
X93041D02*
X93252D01*
X64810D02*
X65863D01*
X58068D02*
X58490D01*
X55751D02*
X57226D01*
X49641D02*
X50695D01*
X138337Y51253D02*
X139391D01*
X116637D02*
X124432D01*
X92830D02*
X107999D01*
X64810D02*
X66074D01*
X58068D02*
X58490D01*
X56172D02*
X56804D01*
X49852D02*
X50695D01*
X138127Y51042D02*
X139180D01*
X131596D02*
X132017D01*
X116848D02*
X124222D01*
X92620D02*
X108210D01*
X65021D02*
X66074D01*
X58068D02*
X58490D01*
X49852D02*
X50905D01*
X138127Y50831D02*
X139180D01*
X130963D02*
X132649D01*
X117269D02*
X124011D01*
X92409D02*
X108210D01*
X65231D02*
X66496D01*
X57858D02*
X58490D01*
X50063D02*
X50905D01*
X138127Y50621D02*
X138969D01*
X130753D02*
X132860D01*
X118955D02*
X123800D01*
X91566D02*
X108421D01*
X65442D02*
X66496D01*
X59332D02*
X59964D01*
X57858D02*
X58490D01*
X56383D02*
X56804D01*
X50063D02*
X51116D01*
X137916Y50410D02*
X138969D01*
X131806D02*
X133070D01*
X130753D02*
X131385D01*
X119797D02*
X123800D01*
X113688D02*
X114530D01*
X91356D02*
X108631D01*
X65442D02*
X66706D01*
X58911D02*
X59964D01*
X57858D02*
X58279D01*
X56383D02*
X57226D01*
X50273D02*
X51116D01*
X137916Y50199D02*
X138759D01*
X131806D02*
X133281D01*
X130542D02*
X131174D01*
X122326D02*
X123590D01*
X113477D02*
X114530D01*
X94727D02*
X108631D01*
X93252D02*
X94095D01*
X90092D02*
X90724D01*
X65653D02*
X66917D01*
X58700D02*
X59754D01*
X56383D02*
X58279D01*
X50273D02*
X51327D01*
X137705Y49988D02*
X138759D01*
X132649D02*
X133281D01*
X131596D02*
X132228D01*
X130542D02*
X131174D01*
X122115D02*
X123379D01*
X113477D02*
X114530D01*
X94727D02*
X108842D01*
X93462D02*
X93884D01*
X89881D02*
X90513D01*
X65863D02*
X66917D01*
X57015D02*
X59332D01*
X50484D02*
X51327D01*
X137495Y49778D02*
X138548D01*
X132649D02*
X133281D01*
X131596D02*
X132228D01*
X130542D02*
X131174D01*
X122115D02*
X123168D01*
X113477D02*
X114530D01*
X94727D02*
X109053D01*
X91777D02*
X93252D01*
X89670D02*
X90302D01*
X66074D02*
X67128D01*
X57647D02*
X58911D01*
X50484D02*
X51537D01*
X137495Y49567D02*
X138548D01*
X132649D02*
X133281D01*
X131385D02*
X132017D01*
X130542D02*
X131174D01*
X121904D02*
X123168D01*
X113688D02*
X114530D01*
X94727D02*
X109053D01*
X91777D02*
X93041D01*
X89670D02*
X90724D01*
X66074D02*
X67338D01*
X57647D02*
X58700D01*
X50695D02*
X51537D01*
X137284Y49356D02*
X138337D01*
X132649D02*
X133281D01*
X130542D02*
X132017D01*
X121694D02*
X122958D01*
X113688D02*
X114109D01*
X112213D02*
X112634D01*
X94727D02*
X109263D01*
X93673D02*
X94305D01*
X91988D02*
X92409D01*
X90092D02*
X91356D01*
X87563D02*
X89249D01*
X66285D02*
X67760D01*
X57226D02*
X58279D01*
X50695D02*
X51748D01*
X137284Y49146D02*
X138337D01*
X132649D02*
X133281D01*
X130753D02*
X131806D01*
X121272D02*
X122747D01*
X113266D02*
X113477D01*
X111792D02*
X112845D01*
X94727D02*
X109474D01*
X93462D02*
X94305D01*
X90092D02*
X91356D01*
X86931D02*
X89249D01*
X66496D02*
X67760D01*
X57015D02*
X57858D01*
X50905D02*
X51959D01*
X137073Y48935D02*
X138127D01*
X132438D02*
X133070D01*
X130963D02*
X131806D01*
X121272D02*
X122536D01*
X113056D02*
X113477D01*
X111581D02*
X112845D01*
X94516D02*
X109474D01*
X93673D02*
X94305D01*
X86721D02*
X91566D01*
X66706D02*
X67970D01*
X58700D02*
X59964D01*
X57015D02*
X57647D01*
X50905D02*
X51959D01*
X137073Y48724D02*
X137916D01*
X132228D02*
X133070D01*
X131174D02*
X131385D01*
X129910D02*
X130753D01*
X121272D02*
X122326D01*
X111792D02*
X113477D01*
X93673D02*
X109685D01*
X86299D02*
X91988D01*
X66917D02*
X67970D01*
X58279D02*
X59964D01*
X51116D02*
X52169D01*
X136862Y48514D02*
X137916D01*
X132228D02*
X132860D01*
X129489D02*
X130963D01*
X120851D02*
X122115D01*
X111792D02*
X113266D01*
X85878D02*
X109896D01*
X67128D02*
X68392D01*
X59543D02*
X60175D01*
X58068D02*
X59332D01*
X51327D02*
X52169D01*
X136652Y48303D02*
X137705D01*
X132228D02*
X132649D01*
X129489D02*
X130963D01*
X120851D02*
X121904D01*
X112424D02*
X112634D01*
X110738D02*
X111370D01*
X85878D02*
X109896D01*
X67338D02*
X68602D01*
X59754D02*
X60386D01*
X57647D02*
X59332D01*
X51327D02*
X52380D01*
X136652Y48092D02*
X137705D01*
X130331D02*
X130963D01*
X129278D02*
X129910D01*
X120429D02*
X121694D01*
X110528D02*
X111370D01*
X85878D02*
X110106D01*
X67549D02*
X68813D01*
X61018D02*
X61229D01*
X59964D02*
X60386D01*
X58911D02*
X59332D01*
X57647D02*
X58490D01*
X51537D02*
X52591D01*
X136441Y47882D02*
X137495D01*
X131806D02*
X132017D01*
X130331D02*
X130963D01*
X129278D02*
X129699D01*
X120219D02*
X121483D01*
X94937D02*
X111581D01*
X92830D02*
X94727D01*
X86089D02*
X92620D01*
X67760D02*
X68813D01*
X61018D02*
X61439D01*
X59964D02*
X60386D01*
X58911D02*
X59543D01*
X57647D02*
X58490D01*
X51748D02*
X52591D01*
X136230Y47671D02*
X137495D01*
X131596D02*
X132228D01*
X130331D02*
X130963D01*
X129067D02*
X129699D01*
X120219D02*
X121272D01*
X94937D02*
X111792D01*
X92830D02*
X94727D01*
X86299D02*
X92409D01*
X67970D02*
X69024D01*
X61018D02*
X61650D01*
X59122D02*
X59543D01*
X57858D02*
X58279D01*
X51748D02*
X52801D01*
X136230Y47460D02*
X137284D01*
X131596D02*
X132228D01*
X130331D02*
X130963D01*
X129278D02*
X129699D01*
X120008D02*
X121272D01*
X95569D02*
X111581D01*
X93884D02*
X94516D01*
X89038D02*
X91777D01*
X86721D02*
X87985D01*
X68181D02*
X69234D01*
X61229D02*
X61861D01*
X59122D02*
X59543D01*
X58068D02*
X58490D01*
X51959D02*
X52801D01*
X136020Y47250D02*
X137073D01*
X131385D02*
X132017D01*
X130331D02*
X130753D01*
X119587D02*
X121062D01*
X111160D02*
X111792D01*
X95780D02*
X110949D01*
X90092D02*
X91566D01*
X68181D02*
X69656D01*
X61229D02*
X61861D01*
X59964D02*
X60175D01*
X58911D02*
X59543D01*
X58068D02*
X58490D01*
X51959D02*
X53012D01*
X136020Y47039D02*
X137073D01*
X131385D02*
X132017D01*
X130331D02*
X130753D01*
X119165D02*
X120851D01*
X110949D02*
X112002D01*
X96201D02*
X110738D01*
X90302D02*
X91566D01*
X68392D02*
X69866D01*
X61439D02*
X62071D01*
X59964D02*
X60596D01*
X58068D02*
X59543D01*
X52169D02*
X53223D01*
X135809Y46828D02*
X136862D01*
X130121D02*
X131806D01*
X119165D02*
X120429D01*
X96623D02*
X111792D01*
X90302D02*
X91566D01*
X68602D02*
X70077D01*
X61439D02*
X62071D01*
X59964D02*
X60596D01*
X58279D02*
X59332D01*
X52169D02*
X53223D01*
X135809Y46618D02*
X136652D01*
X130331D02*
X131596D01*
X118955D02*
X120219D01*
X97255D02*
X111581D01*
X90092D02*
X91777D01*
X69024D02*
X70288D01*
X61229D02*
X62071D01*
X60175D02*
X60807D01*
X58490D02*
X59122D01*
X52380D02*
X53433D01*
X135598Y46407D02*
X136652D01*
X130542D02*
X131385D01*
X127171D02*
X127593D01*
X126118D02*
X126750D01*
X118744D02*
X120008D01*
X110949D02*
X111370D01*
X97465D02*
X110738D01*
X89670D02*
X91988D01*
X69234D02*
X70498D01*
X60386D02*
X61861D01*
X52591D02*
X53644D01*
X135388Y46196D02*
X136441D01*
X126961D02*
X128014D01*
X126118D02*
X126539D01*
X118323D02*
X119797D01*
X97887D02*
X110528D01*
X88828D02*
X92620D01*
X69445D02*
X70920D01*
X60386D02*
X61650D01*
X52591D02*
X53644D01*
X135388Y45986D02*
X136441D01*
X127171D02*
X128225D01*
X126118D02*
X126539D01*
X117901D02*
X119587D01*
X98729D02*
X110528D01*
X88617D02*
X92830D01*
X69656D02*
X71130D01*
X60386D02*
X61439D01*
X52801D02*
X53855D01*
X135177Y45775D02*
X136230D01*
X127382D02*
X128435D01*
X125486D02*
X125907D01*
X117901D02*
X119376D01*
X98940D02*
X110528D01*
X88406D02*
X92830D01*
X69866D02*
X71341D01*
X60175D02*
X61229D01*
X53012D02*
X53855D01*
X134966Y45564D02*
X136020D01*
X127593D02*
X128646D01*
X125486D02*
X126118D01*
X117691D02*
X119165D01*
X109685D02*
X110317D01*
X99783D02*
X109053D01*
X87985D02*
X92830D01*
X70077D02*
X71552D01*
X59964D02*
X60807D01*
X53012D02*
X54065D01*
X134756Y45354D02*
X136020D01*
X127803D02*
X128857D01*
X125486D02*
X125907D01*
X117480D02*
X118955D01*
X112002D02*
X112845D01*
X103364D02*
X108421D01*
X100415D02*
X102732D01*
X87563D02*
X92620D01*
X70288D02*
X71763D01*
X59754D02*
X60596D01*
X53223D02*
X54276D01*
X134756Y45143D02*
X135809D01*
X128225D02*
X129067D01*
X117269D02*
X118744D01*
X112213D02*
X113056D01*
X103575D02*
X108842D01*
X100626D02*
X102732D01*
X95780D02*
X96833D01*
X90724D02*
X92409D01*
X87353D02*
X90513D01*
X70498D02*
X71973D01*
X59543D02*
X60386D01*
X53223D02*
X54487D01*
X134545Y44932D02*
X135598D01*
X128435D02*
X129278D01*
X116848D02*
X118533D01*
X113266D02*
X114952D01*
X109896D02*
X110106D01*
X104418D02*
X109053D01*
X101468D02*
X102311D01*
X95569D02*
X97676D01*
X92830D02*
X93462D01*
X90724D02*
X92198D01*
X86721D02*
X90513D01*
X70709D02*
X72395D01*
X59543D02*
X60175D01*
X53433D02*
X54487D01*
X134334Y44722D02*
X135598D01*
X128646D02*
X129489D01*
X125696D02*
X126329D01*
X116637D02*
X118323D01*
X113266D02*
X115373D01*
X109685D02*
X110528D01*
X105261D02*
X109263D01*
X99151D02*
X99572D01*
X95569D02*
X97676D01*
X92830D02*
X93462D01*
X89249D02*
X90092D01*
X85878D02*
X89038D01*
X70920D02*
X72605D01*
X62493D02*
X62703D01*
X53644D02*
X54697D01*
X134124Y44511D02*
X135388D01*
X128857D02*
X129489D01*
X125696D02*
X126539D01*
X113266D02*
X117901D01*
X108210D02*
X111370D01*
X106314D02*
X107789D01*
X99151D02*
X99783D01*
X95569D02*
X97676D01*
X92830D02*
X93462D01*
X87985D02*
X89038D01*
X85878D02*
X87563D01*
X71341D02*
X73027D01*
X62493D02*
X62914D01*
X53855D02*
X54908D01*
X134124Y44300D02*
X135177D01*
X128857D02*
X129489D01*
X125907D02*
X126961D01*
X113266D02*
X117691D01*
X107999D02*
X111581D01*
X107578D02*
X107789D01*
X106946D02*
X107367D01*
X85457D02*
X88617D01*
X71552D02*
X73237D01*
X62493D02*
X62914D01*
X54065D02*
X55119D01*
X133913Y44089D02*
X134966D01*
X129067D02*
X129489D01*
X126118D02*
X127171D01*
X112845D02*
X117480D01*
X110317D02*
X111792D01*
X109474D02*
X109896D01*
X106946D02*
X109053D01*
X84825D02*
X88617D01*
X71763D02*
X73448D01*
X63967D02*
X64599D01*
X62493D02*
X62914D01*
X54065D02*
X55119D01*
X133702Y43879D02*
X134966D01*
X128857D02*
X129489D01*
X126329D02*
X127382D01*
X109263D02*
X117059D01*
X106103D02*
X109053D01*
X98308D02*
X101258D01*
X96201D02*
X97255D01*
X95780D02*
X95991D01*
X90934D02*
X91356D01*
X84403D02*
X88617D01*
X72184D02*
X73869D01*
X63757D02*
X64389D01*
X62493D02*
X62914D01*
X54276D02*
X55329D01*
X133492Y43668D02*
X134756D01*
X128857D02*
X129489D01*
X126539D02*
X127593D01*
X107578D02*
X116848D01*
X106103D02*
X106946D01*
X104207D02*
X104629D01*
X98308D02*
X101258D01*
X95780D02*
X97676D01*
X90934D02*
X91566D01*
X83982D02*
X88617D01*
X72395D02*
X74080D01*
X63546D02*
X64389D01*
X62493D02*
X62914D01*
X54487D02*
X55540D01*
X133492Y43457D02*
X134545D01*
X128646D02*
X129278D01*
X126750D02*
X128014D01*
X125696D02*
X126118D01*
X107789D02*
X116637D01*
X106103D02*
X106946D01*
X104207D02*
X105050D01*
X101679D02*
X102943D01*
X98097D02*
X101468D01*
X95780D02*
X97676D01*
X90934D02*
X91777D01*
X83561D02*
X88617D01*
X72605D02*
X74501D01*
X64810D02*
X65021D01*
X63335D02*
X64178D01*
X62493D02*
X62914D01*
X54487D02*
X55751D01*
X133281Y43247D02*
X134334D01*
X127171D02*
X129278D01*
X125696D02*
X126329D01*
X114320D02*
X116216D01*
X107789D02*
X113688D01*
X106103D02*
X106946D01*
X104418D02*
X105050D01*
X95569D02*
X103996D01*
X92830D02*
X94516D01*
X91145D02*
X91988D01*
X88828D02*
X89038D01*
X87985D02*
X88406D01*
X83139D02*
X87563D01*
X73027D02*
X74712D01*
X64810D02*
X65231D01*
X63125D02*
X63967D01*
X62493D02*
X62914D01*
X61018D02*
X61650D01*
X54697D02*
X55751D01*
X133070Y43036D02*
X134334D01*
X127382D02*
X129067D01*
X125696D02*
X126539D01*
X113898D02*
X116005D01*
X109053D02*
X113688D01*
X106103D02*
X108842D01*
X104418D02*
X105261D01*
X97887D02*
X103996D01*
X95780D02*
X97676D01*
X92620D02*
X94305D01*
X91145D02*
X91988D01*
X89460D02*
X89881D01*
X88828D02*
X89038D01*
X87985D02*
X88406D01*
X82718D02*
X87563D01*
X81032D02*
X81875D01*
X80190D02*
X80822D01*
X73237D02*
X75133D01*
X64810D02*
X65231D01*
X61018D02*
X63757D01*
X54908D02*
X55962D01*
X132860Y42825D02*
X134124D01*
X127803D02*
X128646D01*
X125064D02*
X126750D01*
X101047D02*
X115795D01*
X98940D02*
X100626D01*
X96201D02*
X97044D01*
X92409D02*
X93041D01*
X89460D02*
X90724D01*
X88828D02*
X89249D01*
X87985D02*
X88406D01*
X80400D02*
X87563D01*
X73448D02*
X75555D01*
X61229D02*
X63546D01*
X55119D02*
X56172D01*
X132860Y42615D02*
X133913D01*
X124854D02*
X126961D01*
X101258D02*
X115373D01*
X98940D02*
X100415D01*
X96412D02*
X96833D01*
X92620D02*
X93041D01*
X88828D02*
X90724D01*
X84193D02*
X87563D01*
X80400D02*
X83982D01*
X73869D02*
X75555D01*
X65653D02*
X65863D01*
X64178D02*
X64599D01*
X62493D02*
X63335D01*
X55119D02*
X56383D01*
X132649Y42404D02*
X133702D01*
X126329D02*
X127171D01*
X124643D02*
X125486D01*
X103154D02*
X115162D01*
X101468D02*
X102943D01*
X99151D02*
X100415D01*
X96412D02*
X96833D01*
X93041D02*
X93462D01*
X88196D02*
X90934D01*
X84403D02*
X87563D01*
X80611D02*
X83982D01*
X74080D02*
X75976D01*
X65442D02*
X66074D01*
X63967D02*
X64599D01*
X62282D02*
X63125D01*
X55329D02*
X56383D01*
X132438Y42193D02*
X133702D01*
X126539D02*
X127382D01*
X124643D02*
X125275D01*
X122958D02*
X123590D01*
X112213D02*
X114741D01*
X107789D02*
X111792D01*
X105682D02*
X107157D01*
X101890D02*
X104629D01*
X98729D02*
X100204D01*
X96201D02*
X97044D01*
X92830D02*
X94516D01*
X88196D02*
X90934D01*
X84403D02*
X86721D01*
X80611D02*
X83982D01*
X74501D02*
X76397D01*
X65231D02*
X65863D01*
X63757D02*
X64389D01*
X62071D02*
X62914D01*
X55540D02*
X56594D01*
X132438Y41983D02*
X133492D01*
X126750D02*
X127593D01*
X124643D02*
X125275D01*
X122958D02*
X123590D01*
X112213D02*
X114320D01*
X109053D02*
X111370D01*
X107789D02*
X108631D01*
X105682D02*
X107157D01*
X101890D02*
X104629D01*
X98097D02*
X99993D01*
X95991D02*
X97255D01*
X95148D02*
X95569D01*
X91777D02*
X94727D01*
X88196D02*
X90934D01*
X83771D02*
X86299D01*
X80190D02*
X83139D01*
X74923D02*
X76819D01*
X65021D02*
X65653D01*
X63546D02*
X64178D01*
X62071D02*
X62703D01*
X55751D02*
X56804D01*
X132228Y41772D02*
X133281D01*
X126961D02*
X127803D01*
X124643D02*
X125486D01*
X122958D02*
X123590D01*
X112002D02*
X114109D01*
X109474D02*
X111792D01*
X107578D02*
X108210D01*
X105893D02*
X106735D01*
X101890D02*
X104418D01*
X96201D02*
X100415D01*
X94937D02*
X95780D01*
X91566D02*
X94727D01*
X87774D02*
X90934D01*
X79558D02*
X82929D01*
X75133D02*
X77029D01*
X64810D02*
X65653D01*
X63335D02*
X63967D01*
X62071D02*
X62493D01*
X55751D02*
X57015D01*
X132017Y41561D02*
X133070D01*
X127171D02*
X127593D01*
X124854D02*
X125696D01*
X109685D02*
X113688D01*
X107578D02*
X107999D01*
X105893D02*
X106735D01*
X101890D02*
X104418D01*
X99151D02*
X100415D01*
X96412D02*
X98940D01*
X94937D02*
X95780D01*
X91777D02*
X94727D01*
X87563D02*
X90934D01*
X79558D02*
X83139D01*
X75555D02*
X77029D01*
X64599D02*
X65442D01*
X63125D02*
X63967D01*
X55962D02*
X57226D01*
X131806Y41351D02*
X133070D01*
X125064D02*
X125907D01*
X123590D02*
X124222D01*
X109896D02*
X113477D01*
X107789D02*
X107999D01*
X105682D02*
X106735D01*
X103364D02*
X104418D01*
X101679D02*
X102732D01*
X100836D02*
X101258D01*
X96833D02*
X100415D01*
X91777D02*
X95780D01*
X87563D02*
X91356D01*
X80822D02*
X83350D01*
X79558D02*
X80190D01*
X78083D02*
X78294D01*
X75765D02*
X77872D01*
X64599D02*
X65231D01*
X62914D02*
X63757D01*
X56172D02*
X57436D01*
X131596Y41140D02*
X132860D01*
X125275D02*
X126118D01*
X123590D02*
X124432D01*
X109896D02*
X113056D01*
X105682D02*
X106735D01*
X103575D02*
X104629D01*
X98308D02*
X102522D01*
X90724D02*
X95569D01*
X86510D02*
X90302D01*
X81875D02*
X84614D01*
X76187D02*
X79558D01*
X65653D02*
X66285D01*
X64389D02*
X65021D01*
X62914D02*
X63546D01*
X56383D02*
X57436D01*
X131385Y40929D02*
X132649D01*
X125486D02*
X126329D01*
X123800D02*
X124643D01*
X110106D02*
X112634D01*
X107367D02*
X108210D01*
X105261D02*
X106735D01*
X103364D02*
X105050D01*
X98308D02*
X102732D01*
X92409D02*
X95359D01*
X89670D02*
X91777D01*
X87985D02*
X88617D01*
X83982D02*
X84403D01*
X82086D02*
X83350D01*
X76608D02*
X79347D01*
X65653D02*
X66496D01*
X64178D02*
X64810D01*
X62703D02*
X63335D01*
X56594D02*
X57647D01*
X131174Y40719D02*
X132438D01*
X125696D02*
X126539D01*
X124011D02*
X124854D01*
X122958D02*
X123590D01*
X110106D02*
X112213D01*
X109053D02*
X109263D01*
X100415D02*
X108631D01*
X99151D02*
X99993D01*
X94516D02*
X95359D01*
X92830D02*
X93884D01*
X91356D02*
X91988D01*
X86931D02*
X87142D01*
X80822D02*
X81454D01*
X77029D02*
X79347D01*
X66074D02*
X66706D01*
X63967D02*
X64599D01*
X56804D02*
X57858D01*
X130963Y40508D02*
X132228D01*
X125907D02*
X126539D01*
X124222D02*
X125064D01*
X122958D02*
X123590D01*
X109896D02*
X112002D01*
X100626D02*
X109474D01*
X99361D02*
X99783D01*
X94727D02*
X95148D01*
X92620D02*
X93462D01*
X91356D02*
X92409D01*
X80822D02*
X81454D01*
X77240D02*
X79136D01*
X67970D02*
X68392D01*
X66285D02*
X66917D01*
X63757D02*
X64389D01*
X57015D02*
X58068D01*
X130753Y40297D02*
X132017D01*
X126118D02*
X126539D01*
X124432D02*
X125275D01*
X122958D02*
X123590D01*
X100626D02*
X111581D01*
X99151D02*
X99572D01*
X94937D02*
X95780D01*
X92830D02*
X93252D01*
X91566D02*
X91988D01*
X81032D02*
X81243D01*
X77662D02*
X79979D01*
X67760D02*
X68392D01*
X66285D02*
X66917D01*
X63546D02*
X64389D01*
X57015D02*
X58279D01*
X130542Y40087D02*
X131806D01*
X124643D02*
X125486D01*
X123168D02*
X123800D01*
X104629D02*
X111160D01*
X100626D02*
X103575D01*
X99151D02*
X99993D01*
X95148D02*
X95780D01*
X78083D02*
X80611D01*
X67760D02*
X68181D01*
X66285D02*
X66917D01*
X64810D02*
X65863D01*
X63546D02*
X64178D01*
X57226D02*
X58490D01*
X130331Y39876D02*
X131596D01*
X124854D02*
X125696D01*
X123168D02*
X123800D01*
X104839D02*
X110528D01*
X100626D02*
X103575D01*
X99151D02*
X99993D01*
X78715D02*
X80822D01*
X68813D02*
X69024D01*
X64599D02*
X66917D01*
X57436D02*
X58700D01*
X130331Y39665D02*
X131385D01*
X125064D02*
X125696D01*
X123168D02*
X123800D01*
X105050D02*
X110106D01*
X101047D02*
X103364D01*
X98940D02*
X99993D01*
X95991D02*
X96833D01*
X79136D02*
X81664D01*
X68602D02*
X69024D01*
X67338D02*
X67760D01*
X65442D02*
X66706D01*
X64599D02*
X65231D01*
X57647D02*
X58911D01*
X130121Y39455D02*
X131174D01*
X125275D02*
X125486D01*
X123379D02*
X124011D01*
X121483D02*
X122326D01*
X105050D02*
X109685D01*
X103786D02*
X103996D01*
X101890D02*
X102311D01*
X95991D02*
X96833D01*
X79558D02*
X81664D01*
X68392D02*
X69024D01*
X67128D02*
X67760D01*
X66074D02*
X66285D01*
X64599D02*
X65021D01*
X57858D02*
X59122D01*
X129910Y39244D02*
X130963D01*
X123379D02*
X124011D01*
X121483D02*
X122747D01*
X105893D02*
X109263D01*
X105471D02*
X105682D01*
X103996D02*
X104207D01*
X96201D02*
X96833D01*
X93673D02*
X94305D01*
X79979D02*
X82507D01*
X68392D02*
X69024D01*
X67128D02*
X67760D01*
X64599D02*
X65231D01*
X58068D02*
X59332D01*
X129699Y39033D02*
X130963D01*
X123379D02*
X124011D01*
X121694D02*
X123168D01*
X105682D02*
X108842D01*
X103996D02*
X104207D01*
X93673D02*
X94305D01*
X80400D02*
X83561D01*
X68181D02*
X68813D01*
X66917D02*
X67549D01*
X64810D02*
X65442D01*
X58279D02*
X59543D01*
X129489Y38822D02*
X130753D01*
X122115D02*
X124222D01*
X120640D02*
X121272D01*
X105682D02*
X108210D01*
X93884D02*
X94095D01*
X81032D02*
X83561D01*
X67970D02*
X68813D01*
X66706D02*
X67338D01*
X64810D02*
X65653D01*
X58490D02*
X59543D01*
X129278Y38612D02*
X130542D01*
X122536D02*
X124222D01*
X120219D02*
X121694D01*
X104418D02*
X107578D01*
X99993D02*
X100415D01*
X81664D02*
X84614D01*
X67970D02*
X69234D01*
X66496D02*
X67338D01*
X65021D02*
X65863D01*
X58700D02*
X59754D01*
X129067Y38401D02*
X130331D01*
X122958D02*
X124222D01*
X120008D02*
X121904D01*
X103364D02*
X106946D01*
X99783D02*
X100836D01*
X98308D02*
X98940D01*
X82296D02*
X85878D01*
X67760D02*
X69445D01*
X66496D02*
X67128D01*
X58911D02*
X59964D01*
X128857Y38190D02*
X130121D01*
X123379D02*
X124011D01*
X121272D02*
X122115D01*
X119797D02*
X120640D01*
X102943D02*
X106525D01*
X101890D02*
X102732D01*
X99783D02*
X100836D01*
X98519D02*
X98940D01*
X82718D02*
X86089D01*
X69024D02*
X69656D01*
X67549D02*
X68392D01*
X66285D02*
X66917D01*
X59122D02*
X60175D01*
X128646Y37980D02*
X129910D01*
X121062D02*
X122326D01*
X119797D02*
X120429D01*
X101679D02*
X106103D01*
X99783D02*
X100836D01*
X83139D02*
X87774D01*
X69234D02*
X69656D01*
X67549D02*
X68181D01*
X66074D02*
X66706D01*
X59122D02*
X60596D01*
X128435Y37769D02*
X129699D01*
X120851D02*
X122326D01*
X119587D02*
X120219D01*
X101679D02*
X105261D01*
X99783D02*
X100626D01*
X83982D02*
X87774D01*
X69234D02*
X69656D01*
X67338D02*
X67970D01*
X66074D02*
X66706D01*
X59332D02*
X60807D01*
X128225Y37558D02*
X129489D01*
X121694D02*
X122326D01*
X120640D02*
X121483D01*
X119587D02*
X120219D01*
X118744D02*
X118955D01*
X99572D02*
X104418D01*
X84825D02*
X89249D01*
X69234D02*
X69656D01*
X67338D02*
X67970D01*
X59754D02*
X61018D01*
X128014Y37348D02*
X129278D01*
X121694D02*
X122326D01*
X119797D02*
X121272D01*
X118533D02*
X119165D01*
X96833D02*
X103575D01*
X85667D02*
X92620D01*
X70288D02*
X71130D01*
X69024D02*
X69656D01*
X67128D02*
X67970D01*
X59964D02*
X61229D01*
X127593Y37137D02*
X129067D01*
X121694D02*
X122326D01*
X119797D02*
X120851D01*
X118112D02*
X119376D01*
X86510D02*
X102732D01*
X70077D02*
X71341D01*
X69024D02*
X69656D01*
X67128D02*
X67970D01*
X60175D02*
X61439D01*
X127382Y36926D02*
X128857D01*
X121694D02*
X122326D01*
X119797D02*
X120640D01*
X117691D02*
X119376D01*
X87353D02*
X101890D01*
X70920D02*
X71552D01*
X69866D02*
X70709D01*
X68813D02*
X69445D01*
X67128D02*
X67970D01*
X60386D02*
X61650D01*
X127171Y36716D02*
X128646D01*
X121483D02*
X122115D01*
X117691D02*
X119587D01*
X88617D02*
X100626D01*
X71130D02*
X71973D01*
X69866D02*
X70498D01*
X67549D02*
X69234D01*
X60596D02*
X61861D01*
X126961Y36505D02*
X128435D01*
X121062D02*
X122115D01*
X118955D02*
X119797D01*
X116848D02*
X117691D01*
X90092D02*
X99151D01*
X71341D02*
X71973D01*
X69656D02*
X70288D01*
X67760D02*
X69234D01*
X60807D02*
X62071D01*
X126750Y36294D02*
X128014D01*
X120640D02*
X121694D01*
X119165D02*
X119797D01*
X116427D02*
X117901D01*
X114530D02*
X115162D01*
X93252D02*
X95991D01*
X71341D02*
X71973D01*
X69656D02*
X70077D01*
X67970D02*
X68813D01*
X61018D02*
X62282D01*
X126539Y36084D02*
X127803D01*
X120640D02*
X121483D01*
X119376D02*
X120008D01*
X116216D02*
X117901D01*
X114530D02*
X115162D01*
X72395D02*
X73448D01*
X71130D02*
X71763D01*
X69445D02*
X70077D01*
X61229D02*
X62493D01*
X126329Y35873D02*
X127593D01*
X119376D02*
X120219D01*
X117269D02*
X117901D01*
X116005D02*
X116848D01*
X114741D02*
X115162D01*
X72184D02*
X73869D01*
X71130D02*
X71763D01*
X69445D02*
X69866D01*
X61439D02*
X62914D01*
X126118Y35662D02*
X127382D01*
X119587D02*
X120219D01*
X117269D02*
X117901D01*
X116005D02*
X116637D01*
X113688D02*
X114109D01*
X76397D02*
X76608D01*
X73237D02*
X73869D01*
X71973D02*
X72816D01*
X70920D02*
X71552D01*
X69234D02*
X69866D01*
X61650D02*
X63125D01*
X125696Y35452D02*
X127171D01*
X119587D02*
X120219D01*
X117059D02*
X117901D01*
X114952D02*
X115584D01*
X113688D02*
X114320D01*
X76397D02*
X76819D01*
X73448D02*
X74080D01*
X71973D02*
X72605D01*
X70920D02*
X71552D01*
X69234D02*
X69656D01*
X62071D02*
X63335D01*
X125486Y35241D02*
X126961D01*
X117059D02*
X117691D01*
X114952D02*
X115584D01*
X113688D02*
X114320D01*
X76397D02*
X76819D01*
X73448D02*
X74080D01*
X71973D02*
X72816D01*
X70709D02*
X71341D01*
X62282D02*
X63546D01*
X125275Y35030D02*
X126750D01*
X116848D02*
X117691D01*
X115162D02*
X115795D01*
X113688D02*
X114741D01*
X77662D02*
X78083D01*
X76187D02*
X76819D01*
X74712D02*
X75765D01*
X73448D02*
X74080D01*
X72395D02*
X73237D01*
X70709D02*
X71341D01*
X62493D02*
X63757D01*
X125064Y34820D02*
X126539D01*
X118323D02*
X118744D01*
X116637D02*
X117480D01*
X115162D02*
X115795D01*
X113688D02*
X114741D01*
X78504D02*
X78926D01*
X77662D02*
X78083D01*
X76187D02*
X76819D01*
X74501D02*
X75976D01*
X72816D02*
X74080D01*
X70709D02*
X71130D01*
X62703D02*
X64178D01*
X124643Y34609D02*
X126118D01*
X118112D02*
X118744D01*
X116637D02*
X117269D01*
X115373D02*
X116005D01*
X113266D02*
X114530D01*
X78504D02*
X78926D01*
X75344D02*
X76608D01*
X74501D02*
X75133D01*
X73027D02*
X74080D01*
X70709D02*
X70920D01*
X62914D02*
X64389D01*
X124432Y34398D02*
X125907D01*
X117691D02*
X118744D01*
X116637D02*
X117480D01*
X115373D02*
X116005D01*
X113266D02*
X114741D01*
X79558D02*
X80190D01*
X78504D02*
X78715D01*
X75765D02*
X76608D01*
X74291D02*
X74923D01*
X73237D02*
X73869D01*
X71552D02*
X72184D01*
X63125D02*
X64599D01*
X124222Y34188D02*
X125696D01*
X116637D02*
X118533D01*
X115584D02*
X116216D01*
X114109D02*
X114741D01*
X112002D02*
X112424D01*
X79558D02*
X80400D01*
X77029D02*
X77451D01*
X75765D02*
X76397D01*
X74291D02*
X74923D01*
X73027D02*
X73869D01*
X71552D02*
X72395D01*
X63546D02*
X65021D01*
X123800Y33977D02*
X125275D01*
X116848D02*
X118112D01*
X115584D02*
X116216D01*
X114320D02*
X114952D01*
X111581D02*
X113056D01*
X81875D02*
X82086D01*
X79558D02*
X80400D01*
X76819D02*
X77451D01*
X75765D02*
X76397D01*
X74291D02*
X74712D01*
X71763D02*
X73659D01*
X63757D02*
X65231D01*
X123590Y33766D02*
X125064D01*
X115795D02*
X116427D01*
X114320D02*
X114952D01*
X111160D02*
X113266D01*
X107578D02*
X107789D01*
X81454D02*
X82507D01*
X79347D02*
X80400D01*
X78504D02*
X78926D01*
X76819D02*
X77451D01*
X75765D02*
X76397D01*
X74080D02*
X74712D01*
X72184D02*
X73448D01*
X63967D02*
X65442D01*
X123379Y33555D02*
X124854D01*
X115795D02*
X116427D01*
X114530D02*
X115162D01*
X112634D02*
X113266D01*
X111160D02*
X111792D01*
X107367D02*
X107999D01*
X81454D02*
X82507D01*
X79347D02*
X80400D01*
X78504D02*
X78926D01*
X76819D02*
X77240D01*
X75765D02*
X76187D01*
X74080D02*
X74712D01*
X64389D02*
X65863D01*
X122958Y33345D02*
X124643D01*
X116005D02*
X116427D01*
X114530D02*
X115162D01*
X112634D02*
X113477D01*
X111160D02*
X111792D01*
X109263D02*
X110317D01*
X107367D02*
X107999D01*
X81243D02*
X82296D01*
X79347D02*
X80400D01*
X78294D02*
X78926D01*
X76819D02*
X77240D01*
X75555D02*
X76187D01*
X74080D02*
X74501D01*
X64599D02*
X66074D01*
X122747Y33134D02*
X124222D01*
X116005D02*
X116427D01*
X114530D02*
X115162D01*
X112213D02*
X113477D01*
X110949D02*
X111581D01*
X108842D02*
X110528D01*
X107578D02*
X107789D01*
X81243D02*
X82296D01*
X79979D02*
X80611D01*
X79347D02*
X79768D01*
X78294D02*
X78926D01*
X76608D02*
X77240D01*
X75555D02*
X76187D01*
X73869D02*
X74501D01*
X64810D02*
X66285D01*
X122536Y32923D02*
X124011D01*
X114530D02*
X115162D01*
X110949D02*
X113477D01*
X108842D02*
X110738D01*
X81032D02*
X82296D01*
X79979D02*
X80611D01*
X79347D02*
X79768D01*
X78294D02*
X78715D01*
X76608D02*
X77240D01*
X75344D02*
X75976D01*
X74080D02*
X74291D01*
X65231D02*
X66706D01*
X122115Y32713D02*
X123590D01*
X114320D02*
X115162D01*
X113056D02*
X113477D01*
X111160D02*
X112424D01*
X110106D02*
X110738D01*
X108842D02*
X109263D01*
X107789D02*
X108210D01*
X81664D02*
X82296D01*
X81032D02*
X81454D01*
X79979D02*
X80611D01*
X79136D02*
X79768D01*
X78083D02*
X78715D01*
X76608D02*
X77240D01*
X75344D02*
X75976D01*
X65442D02*
X66917D01*
X121904Y32502D02*
X123379D01*
X114109D02*
X114952D01*
X113056D02*
X113477D01*
X111160D02*
X112002D01*
X110106D02*
X110738D01*
X107789D02*
X108210D01*
X81664D02*
X82086D01*
X80822D02*
X81454D01*
X80190D02*
X80611D01*
X79136D02*
X79768D01*
X78083D02*
X78715D01*
X76608D02*
X77240D01*
X75344D02*
X75976D01*
X65863D02*
X67128D01*
X121483Y32291D02*
X123168D01*
X114109D02*
X114530D01*
X112845D02*
X113477D01*
X109685D02*
X110528D01*
X107789D02*
X108421D01*
X81664D02*
X82086D01*
X80190D02*
X81243D01*
X79136D02*
X79768D01*
X77872D02*
X78504D01*
X76397D02*
X77240D01*
X66074D02*
X67549D01*
X121272Y32081D02*
X122747D01*
X112634D02*
X113477D01*
X109474D02*
X110528D01*
X107789D02*
X108421D01*
X81454D02*
X82086D01*
X80190D02*
X81243D01*
X79136D02*
X79558D01*
X76397D02*
X78504D01*
X66285D02*
X67970D01*
X120851Y31870D02*
X122536D01*
X112002D02*
X113266D01*
X109263D02*
X110106D01*
X107789D02*
X108421D01*
X100836D02*
X102522D01*
X96412D02*
X97887D01*
X92198D02*
X93673D01*
X87142D02*
X90092D01*
X81454D02*
X82086D01*
X80190D02*
X81032D01*
X79136D02*
X79558D01*
X77029D02*
X78504D01*
X66496D02*
X68181D01*
X120640Y31659D02*
X122326D01*
X111581D02*
X113056D01*
X109053D02*
X109896D01*
X107789D02*
X108421D01*
X100415D02*
X103154D01*
X96201D02*
X98308D01*
X91777D02*
X94095D01*
X86931D02*
X90302D01*
X81454D02*
X82086D01*
X80190D02*
X80822D01*
X78926D02*
X79558D01*
X77240D02*
X78294D01*
X66917D02*
X68602D01*
X120219Y31449D02*
X121904D01*
X111581D02*
X112634D01*
X110738D02*
X111160D01*
X109053D02*
X109685D01*
X107999D02*
X108421D01*
X102100D02*
X103364D01*
X99993D02*
X101258D01*
X97676D02*
X98519D01*
X95780D02*
X96833D01*
X93252D02*
X94305D01*
X91566D02*
X92620D01*
X86931D02*
X90302D01*
X81454D02*
X81875D01*
X78926D02*
X79558D01*
X67338D02*
X68813D01*
X119797Y31238D02*
X121483D01*
X110317D02*
X111160D01*
X109053D02*
X109685D01*
X107999D02*
X108631D01*
X102732D02*
X103364D01*
X99993D02*
X100626D01*
X98097D02*
X98729D01*
X95569D02*
X96412D01*
X93673D02*
X94516D01*
X91356D02*
X91988D01*
X89881D02*
X90302D01*
X86931D02*
X87563D01*
X81454D02*
X81875D01*
X79136D02*
X79558D01*
X67549D02*
X69234D01*
X119376Y31027D02*
X121272D01*
X109053D02*
X111160D01*
X107999D02*
X108631D01*
X102943D02*
X103364D01*
X101258D02*
X102522D01*
X99783D02*
X100415D01*
X98308D02*
X98940D01*
X96833D02*
X97676D01*
X95359D02*
X96201D01*
X93884D02*
X94727D01*
X92409D02*
X93462D01*
X91145D02*
X91777D01*
X89881D02*
X90302D01*
X86931D02*
X87774D01*
X81243D02*
X81875D01*
X67970D02*
X69656D01*
X119165Y30817D02*
X120851D01*
X109263D02*
X110738D01*
X107999D02*
X108631D01*
X101047D02*
X103364D01*
X99783D02*
X100204D01*
X98519D02*
X99151D01*
X96623D02*
X97887D01*
X95359D02*
X95991D01*
X94095D02*
X94727D01*
X92198D02*
X93462D01*
X91145D02*
X91566D01*
X89881D02*
X90302D01*
X86931D02*
X89460D01*
X81243D02*
X81875D01*
X68181D02*
X70077D01*
X118744Y30606D02*
X120429D01*
X107999D02*
X108631D01*
X102100D02*
X103364D01*
X100836D02*
X101679D01*
X99783D02*
X100204D01*
X98519D02*
X99151D01*
X97255D02*
X97887D01*
X96412D02*
X97044D01*
X95359D02*
X95780D01*
X94305D02*
X94727D01*
X93041D02*
X93673D01*
X92198D02*
X92830D01*
X90934D02*
X91566D01*
X89881D02*
X90302D01*
X86931D02*
X89460D01*
X68602D02*
X70288D01*
X118533Y30395D02*
X120219D01*
X108210D02*
X108631D01*
X102732D02*
X103364D01*
X100836D02*
X101468D01*
X99783D02*
X100204D01*
X98729D02*
X99151D01*
X97465D02*
X98097D01*
X96412D02*
X96833D01*
X95148D02*
X95780D01*
X94305D02*
X94937D01*
X93252D02*
X93673D01*
X91988D02*
X92620D01*
X90934D02*
X91356D01*
X89881D02*
X90302D01*
X88828D02*
X89460D01*
X69024D02*
X70709D01*
X118112Y30185D02*
X119797D01*
X100836D02*
X101468D01*
X99783D02*
X100204D01*
X98729D02*
X99151D01*
X97465D02*
X98097D01*
X96412D02*
X96833D01*
X95148D02*
X95780D01*
X94516D02*
X94937D01*
X93252D02*
X93673D01*
X91988D02*
X92620D01*
X90934D02*
X91356D01*
X89881D02*
X90302D01*
X87563D02*
X89460D01*
X69445D02*
X70920D01*
X117691Y29974D02*
X119376D01*
X100836D02*
X101468D01*
X99783D02*
X100204D01*
X98729D02*
X99361D01*
X97676D02*
X98097D01*
X96412D02*
X96833D01*
X95148D02*
X95569D01*
X94516D02*
X94937D01*
X93252D02*
X93884D01*
X91988D02*
X92409D01*
X90724D02*
X91356D01*
X89881D02*
X90302D01*
X87142D02*
X89249D01*
X69656D02*
X71341D01*
X117269Y29763D02*
X119165D01*
X101047D02*
X101679D01*
X99783D02*
X100415D01*
X98729D02*
X99361D01*
X97676D02*
X98097D01*
X96201D02*
X96833D01*
X95148D02*
X95569D01*
X94516D02*
X94937D01*
X93252D02*
X93884D01*
X91988D02*
X92409D01*
X90724D02*
X91356D01*
X89881D02*
X90302D01*
X87142D02*
X87985D01*
X70077D02*
X71763D01*
X116848Y29553D02*
X118744D01*
X101047D02*
X101890D01*
X99783D02*
X100626D01*
X98729D02*
X99361D01*
X97676D02*
X98097D01*
X96201D02*
X96833D01*
X95148D02*
X95569D01*
X94516D02*
X94937D01*
X93252D02*
X93884D01*
X91988D02*
X92409D01*
X90724D02*
X91356D01*
X89670D02*
X90302D01*
X88617D02*
X89460D01*
X86931D02*
X87563D01*
X70288D02*
X72184D01*
X116427Y29342D02*
X118323D01*
X101258D02*
X102100D01*
X99993D02*
X100626D01*
X98729D02*
X99361D01*
X97676D02*
X98097D01*
X96201D02*
X96833D01*
X95148D02*
X95569D01*
X94516D02*
X94937D01*
X93252D02*
X93884D01*
X91988D02*
X92409D01*
X90724D02*
X91356D01*
X88196D02*
X90302D01*
X86721D02*
X87353D01*
X70709D02*
X72605D01*
X116005Y29131D02*
X117901D01*
X101468D02*
X102311D01*
X100204D02*
X100836D01*
X98729D02*
X99361D01*
X97676D02*
X98097D01*
X96201D02*
X96833D01*
X95148D02*
X95569D01*
X94516D02*
X94937D01*
X93252D02*
X93884D01*
X91988D02*
X92409D01*
X90724D02*
X91356D01*
X87985D02*
X90302D01*
X86721D02*
X87353D01*
X71130D02*
X73027D01*
X115584Y28921D02*
X117480D01*
X101679D02*
X102522D01*
X100415D02*
X101258D01*
X98729D02*
X99361D01*
X97676D02*
X98097D01*
X96201D02*
X96833D01*
X95148D02*
X95569D01*
X94516D02*
X94937D01*
X93252D02*
X93884D01*
X91988D02*
X92409D01*
X90724D02*
X91356D01*
X89881D02*
X90302D01*
X87985D02*
X88406D01*
X86721D02*
X87142D01*
X71552D02*
X73659D01*
X114952Y28710D02*
X117059D01*
X101890D02*
X102732D01*
X100626D02*
X101468D01*
X98729D02*
X99151D01*
X97676D02*
X98097D01*
X96412D02*
X96833D01*
X95148D02*
X95569D01*
X94516D02*
X94937D01*
X93252D02*
X93673D01*
X91988D02*
X92409D01*
X90934D02*
X91356D01*
X87774D02*
X88406D01*
X86721D02*
X87142D01*
X71973D02*
X74080D01*
X114530Y28499D02*
X116637D01*
X102100D02*
X102943D01*
X100836D02*
X101679D01*
X98729D02*
X99151D01*
X97465D02*
X98097D01*
X96412D02*
X96833D01*
X95148D02*
X95780D01*
X94305D02*
X94937D01*
X93252D02*
X93673D01*
X91988D02*
X92620D01*
X90934D02*
X91356D01*
X87774D02*
X88406D01*
X86721D02*
X87142D01*
X72395D02*
X74501D01*
X114109Y28288D02*
X116216D01*
X102311D02*
X103154D01*
X101047D02*
X101890D01*
X98729D02*
X99151D01*
X97465D02*
X98097D01*
X96412D02*
X97044D01*
X95148D02*
X95780D01*
X94305D02*
X94937D01*
X93041D02*
X93673D01*
X91988D02*
X92620D01*
X90934D02*
X91356D01*
X89670D02*
X90513D01*
X87985D02*
X88406D01*
X86721D02*
X87142D01*
X72816D02*
X74923D01*
X113898Y28078D02*
X115795D01*
X102732D02*
X103364D01*
X99572D02*
X102100D01*
X98519D02*
X99151D01*
X96412D02*
X97887D01*
X95359D02*
X95780D01*
X94305D02*
X94727D01*
X92198D02*
X93673D01*
X90934D02*
X91566D01*
X87985D02*
X90513D01*
X86721D02*
X87353D01*
X73448D02*
X75344D01*
X113266Y27867D02*
X115373D01*
X102943D02*
X103364D01*
X99572D02*
X102100D01*
X98519D02*
X98940D01*
X96623D02*
X97887D01*
X95359D02*
X95991D01*
X94095D02*
X94727D01*
X92409D02*
X93462D01*
X91145D02*
X91777D01*
X88196D02*
X90513D01*
X86721D02*
X87353D01*
X73869D02*
X75765D01*
X112634Y27656D02*
X114952D01*
X102943D02*
X103364D01*
X99572D02*
X100204D01*
X98308D02*
X98940D01*
X97044D02*
X97465D01*
X95569D02*
X96201D01*
X93884D02*
X94516D01*
X92620D02*
X93252D01*
X91145D02*
X91988D01*
X90092D02*
X90513D01*
X88617D02*
X89249D01*
X86931D02*
X87563D01*
X74291D02*
X76397D01*
X112002Y27446D02*
X114530D01*
X102732D02*
X103364D01*
X99572D02*
X100204D01*
X97887D02*
X98729D01*
X95569D02*
X96623D01*
X93673D02*
X94516D01*
X91356D02*
X92198D01*
X89670D02*
X90513D01*
X87142D02*
X87985D01*
X74501D02*
X77029D01*
X111370Y27235D02*
X114109D01*
X99572D02*
X103364D01*
X95780D02*
X98519D01*
X91566D02*
X94305D01*
X87353D02*
X90513D01*
X75133D02*
X77662D01*
X110949Y27024D02*
X113477D01*
X99572D02*
X103364D01*
X96201D02*
X98308D01*
X91988D02*
X93884D01*
X87774D02*
X90092D01*
X75555D02*
X78083D01*
X110528Y26814D02*
X112845D01*
X76187D02*
X78715D01*
X109896Y26603D02*
X112213D01*
X76819D02*
X79347D01*
X109263Y26392D02*
X111792D01*
X77240D02*
X79979D01*
X108421Y26182D02*
X111370D01*
X77872D02*
X80611D01*
X107578Y25971D02*
X110738D01*
X78504D02*
X81454D01*
X106946Y25760D02*
X110106D01*
X79136D02*
X82086D01*
X106103Y25550D02*
X109474D01*
X79768D02*
X82929D01*
X105261Y25339D02*
X108631D01*
X80400D02*
X83982D01*
X104207Y25128D02*
X107999D01*
X81243D02*
X84825D01*
X102943Y24918D02*
X107157D01*
X82086D02*
X86089D01*
X101679Y24707D02*
X106314D01*
X82929D02*
X87353D01*
X100415Y24496D02*
X105261D01*
X83771D02*
X88828D01*
X98308Y24286D02*
X104418D01*
X84614D02*
X90724D01*
X85878Y24075D02*
X103364D01*
X87142Y23864D02*
X101890D01*
X88617Y23654D02*
X100415D01*
X90934Y23443D02*
X98097D01*
M02*
