G04*
G04 #@! TF.GenerationSoftware,Altium Limited,Altium Designer,20.0.10 (225)*
G04*
G04 Layer_Color=2752767*
%FSLAX25Y25*%
%MOIN*%
G70*
G01*
G75*
%ADD41C,0.00200*%
%ADD42C,0.00267*%
D41*
X262980Y93688D02*
Y95288D01*
X264580D01*
Y93688D01*
X262980D01*
Y74003D02*
Y75603D01*
X264580D01*
Y74003D01*
X262980D01*
X208661Y103531D02*
X207861Y105131D01*
X209461D01*
X208661Y103531D01*
Y28728D02*
X207861Y30328D01*
X209461D01*
X208661Y28728D01*
X149606Y72035D02*
X150006Y72435D01*
X150406D01*
X150006Y72835D01*
X150406Y73235D01*
X150006D01*
X149606Y73635D01*
X149206Y73235D01*
X148806D01*
X149206Y72835D01*
X148806Y72435D01*
X149206D01*
X149606Y72035D01*
X141732D02*
X142132Y72435D01*
X142532D01*
X142132Y72835D01*
X142532Y73235D01*
X142132D01*
X141732Y73635D01*
X141332Y73235D01*
X140932D01*
X141332Y72835D01*
X140932Y72435D01*
X141332D01*
X141732Y72035D01*
X117507Y123216D02*
X117907Y124016D01*
X117507Y124816D01*
X118307Y124416D01*
X119107Y124816D01*
X118707Y124016D01*
X119107Y123216D01*
X118307Y123616D01*
X117507Y123216D01*
X107468D02*
X107868Y124016D01*
X107468Y124816D01*
X108268Y124416D01*
X109068Y124816D01*
X108668Y124016D01*
X109068Y123216D01*
X108268Y123616D01*
X107468Y123216D01*
X97428D02*
X97828Y124016D01*
X97428Y124816D01*
X98228Y124416D01*
X99028Y124816D01*
X98628Y124016D01*
X99028Y123216D01*
X98228Y123616D01*
X97428Y123216D01*
X122126Y96917D02*
X121326Y98516D01*
X122926D01*
X122126Y96917D01*
Y86917D02*
X121326Y88516D01*
X122926D01*
X122126Y86917D01*
Y76916D02*
X121326Y78517D01*
X122926D01*
X122126Y76916D01*
Y66917D02*
X121326Y68516D01*
X122926D01*
X122126Y66917D01*
X90472D02*
X89672Y68516D01*
X91272D01*
X90472Y66917D01*
Y76916D02*
X89672Y78517D01*
X91272D01*
X90472Y76916D01*
Y86917D02*
X89672Y88516D01*
X91272D01*
X90472Y86917D01*
X90433Y96917D02*
X89633Y98516D01*
X91233D01*
X90433Y96917D01*
X70466Y76372D02*
Y75972D01*
X71266D01*
Y76372D01*
X71666D01*
Y77172D01*
X71266D01*
Y77572D01*
X70466D01*
Y77172D01*
X70066D01*
Y76372D01*
X70466D01*
Y96057D02*
Y95657D01*
X71266D01*
Y96057D01*
X71666D01*
Y96857D01*
X71266D01*
Y97257D01*
X70466D01*
Y96857D01*
X70066D01*
Y96057D01*
X70466D01*
X51134Y98413D02*
X50334Y100013D01*
X51934D01*
X51134Y98413D01*
Y23609D02*
X50334Y25210D01*
X51934D01*
X51134Y23609D01*
X15893Y70066D02*
Y71666D01*
X17493D01*
Y70066D01*
X15893D01*
Y89751D02*
Y91351D01*
X17493D01*
Y89751D01*
X15893D01*
X87783Y18885D02*
X88183D01*
X88583Y19285D01*
X88983Y18885D01*
X89383D01*
Y19285D01*
X88983Y19685D01*
X89383Y20085D01*
Y20485D01*
X88983D01*
X88583Y20085D01*
X88183Y20485D01*
X87783D01*
Y20085D01*
X88183Y19685D01*
X87783Y19285D01*
Y18885D01*
X107468D02*
X107868D01*
X108268Y19285D01*
X108668Y18885D01*
X109068D01*
Y19285D01*
X108668Y19685D01*
X109068Y20085D01*
Y20485D01*
X108668D01*
X108268Y20085D01*
X107868Y20485D01*
X107468D01*
Y20085D01*
X107868Y19685D01*
X107468Y19285D01*
Y18885D01*
X127153D02*
X127553D01*
X127953Y19285D01*
X128353Y18885D01*
X128753D01*
Y19285D01*
X128353Y19685D01*
X128753Y20085D01*
Y20485D01*
X128353D01*
X127953Y20085D01*
X127553Y20485D01*
X127153D01*
Y20085D01*
X127553Y19685D01*
X127153Y19285D01*
Y18885D01*
D42*
X229147Y101575D02*
G03*
X229147Y101575I-800J0D01*
G01*
Y59842D02*
G03*
X229147Y59842I-800J0D01*
G01*
X190075Y61024D02*
G03*
X190075Y61024I-800J0D01*
G01*
Y102756D02*
G03*
X190075Y102756I-800J0D01*
G01*
X169772D02*
G03*
X169772Y102756I-800J0D01*
G01*
Y61024D02*
G03*
X169772Y61024I-800J0D01*
G01*
M02*
