G04*
G04 #@! TF.GenerationSoftware,Altium Limited,Altium Designer,20.0.10 (225)*
G04*
G04 Layer_Physical_Order=2*
G04 Layer_Color=16711680*
%FSLAX25Y25*%
%MOIN*%
G70*
G01*
G75*
%ADD29C,0.01200*%
%ADD30C,0.07559*%
%ADD31C,0.06929*%
%ADD32C,0.03780*%
%ADD33C,0.05039*%
%ADD34C,0.06299*%
%ADD35C,0.03339*%
%ADD36C,0.03842*%
%ADD37C,0.08819*%
G36*
X48400Y26000D02*
X50800Y28400D01*
X51400D01*
X53900Y25900D01*
Y22900D01*
X52800Y21800D01*
X49500D01*
X48400Y22900D01*
X48400Y26000D01*
D02*
G37*
G36*
X89000Y79900D02*
X87394Y78294D01*
Y77105D01*
X88900Y75600D01*
X92100D01*
X92900Y76400D01*
X92900Y79200D01*
X92200Y79900D01*
X89000D01*
D02*
G37*
G36*
X92556Y90100D02*
X93900Y88308D01*
Y87300D01*
X91900Y85300D01*
X88800D01*
X87700Y86400D01*
Y89400D01*
X88400Y90100D01*
X92556Y90100D01*
D02*
G37*
G36*
X102100Y22400D02*
X107800Y28100D01*
X108900D01*
X114400Y22600D01*
Y15700D01*
X111200Y12500D01*
X104900Y12500D01*
X102100Y15300D01*
X102100Y22400D01*
D02*
G37*
G36*
X106100Y128700D02*
X103900Y126500D01*
Y120900D01*
X107900Y116900D01*
X108800D01*
X112700Y120800D01*
Y126700D01*
X110700Y128700D01*
X106100Y128700D01*
D02*
G37*
G36*
X118200Y77977D02*
X118200Y77300D01*
X120500Y75000D01*
X123900Y75000D01*
X126500Y77600D01*
Y78000D01*
X124100Y80400D01*
X120073D01*
X118200Y77977D01*
D02*
G37*
G36*
X223500Y61963D02*
Y56200D01*
X224900Y54800D01*
X231400D01*
X232830Y55890D01*
X233031Y62248D01*
X228860Y67640D01*
X227886Y67619D01*
X223500Y61963D01*
D02*
G37*
D29*
X228346Y59842D02*
Y76454D01*
X225300Y79500D02*
X228346Y76454D01*
X162200Y79500D02*
X225300D01*
X134100Y107600D02*
X162200Y79500D01*
X114500Y107600D02*
X134100D01*
X108268Y113832D02*
X114500Y107600D01*
X108268Y113832D02*
Y124016D01*
X109783Y77716D02*
X122126D01*
X127884D02*
X130900Y74700D01*
Y43400D02*
Y74700D01*
X122126Y77716D02*
X127884D01*
X123300Y35800D02*
X130900Y43400D01*
X108268Y19685D02*
Y34068D01*
X110000Y35800D01*
X123300D01*
X90472Y87717D02*
X99783D01*
X109783Y77716D01*
X84316D02*
X90472D01*
X51134Y44534D02*
X84316Y77716D01*
X51134Y24409D02*
Y44534D01*
D30*
X263779Y94488D02*
D03*
Y74803D02*
D03*
X16693Y70866D02*
D03*
Y90551D02*
D03*
D31*
X228346Y101575D02*
D03*
Y59842D02*
D03*
X189275Y61024D02*
D03*
Y102756D02*
D03*
X168972D02*
D03*
Y61024D02*
D03*
D32*
X208661Y104331D02*
D03*
Y29528D02*
D03*
X70866Y76772D02*
D03*
X51134Y99213D02*
D03*
Y24409D02*
D03*
D33*
X149606Y72835D02*
D03*
X141732D02*
D03*
D34*
X118307Y124016D02*
D03*
X108268D02*
D03*
X98228D02*
D03*
D35*
X122126Y97716D02*
D03*
Y87717D02*
D03*
Y77716D02*
D03*
Y67716D02*
D03*
X90472D02*
D03*
Y77716D02*
D03*
Y87717D02*
D03*
X90433Y97716D02*
D03*
D36*
X70866Y96457D02*
D03*
D37*
X88583Y19685D02*
D03*
X108268D02*
D03*
X127953D02*
D03*
M02*
